<svg width="32" height="32" fill="none" xmlns="http://www.w3.org/2000/svg"><path d="M16 .572C24.521.572 31.429 7.479 31.429 16S24.52 31.43 16 31.43C7.48 31.429.571 24.52.571 16S7.48.572 16 .572zm0 2.571C8.9 3.143 3.143 8.899 3.143 16c0 7.1 5.756 12.857 12.857 12.857 7.1 0 12.857-5.756 12.857-12.857 0-7.1-5.756-12.857-12.857-12.857zm-5.41 7.448a1.286 1.286 0 011.82 0l3.59 3.59 3.59-3.59a1.286 1.286 0 011.698-.107l.121.107a1.286 1.286 0 010 1.818L17.82 16l3.59 3.591c.464.463.5 1.193.107 1.697l-.107.121a1.286 1.286 0 01-1.818 0L16 17.82l-3.59 3.59c-.464.464-1.194.5-1.698.107l-.121-.107a1.286 1.286 0 010-1.818l3.59-3.59-3.59-3.592a1.286 1.286 0 01-.107-1.697l.107-.121z" fill="#EF4335"/></svg>