<svg width="29" height="31" fill="none" xmlns="http://www.w3.org/2000/svg"><path d="M28.47 16.232c-.258.419-.6.779-1.004 1.055l-10.531 7.215a4.299 4.299 0 01-4.87 0L1.534 17.287C.209 16.38-.304 14.71.178 13.242l11.908 8.056a4.3 4.3 0 004.549.174l.279-.174L28.82 13.24c.316.965.222 2.06-.35 2.99zm.351 2.751c.316.965.222 2.06-.35 2.99-.259.42-.601.78-1.005 1.056l-10.531 7.215a4.299 4.299 0 01-4.87 0L1.534 23.03C.209 22.122-.304 20.451.178 18.984l11.908 8.056a4.3 4.3 0 004.549.174l.279-.174 11.907-8.057zM16.914.742l11.08 7.497a1.783 1.783 0 010 2.94l-11.08 7.497a4.299 4.299 0 01-4.828 0l-11.08-7.497a1.783 1.783 0 010-2.94L12.086.742a4.299 4.299 0 014.828 0zM13.735 2.83l-.2.117-9.993 6.762 9.992 6.762c.52.352 1.18.39 1.73.117l.202-.117 9.99-6.762-9.99-6.762a1.719 1.719 0 00-1.73-.117z" fill="#515E78"/></svg>