<svg width="499" height="498" fill="none" xmlns="http://www.w3.org/2000/svg"><g clip-path="url(#clip0)"><path d="M168.703 229.817L0 330.687l104.852 60.726 133.16-53.484-68.801-103.539" fill="#000" fill-opacity=".05"/><path d="M255.149 302.738v-8.13l-5.839 2.922-10.283-5.971c-3.3-1.906-8.758-1.906-12.186 0l-103.456 59.836-5.839-2.922v8.131c-.127 1.397.635 2.794 2.539 3.811l13.709 7.876c3.301 1.906 8.759 1.906 12.187 0l106.883-61.742c1.523-1.143 2.285-2.54 2.285-3.811z" fill="#55C3FE"/><path d="M123.385 351.268l-5.839-2.922v8.131c-.127 1.397.635 2.795 2.539 3.811l13.709 7.876c1.651.89 3.809 1.398 5.84 1.398v-27.695l-16.249 9.401z" fill="#179ECC"/><path d="M133.541 359.526c3.3 1.905 8.758 1.905 12.186 0l106.883-61.742c3.3-1.906 3.3-5.082 0-6.988l-13.709-7.876c-3.301-1.906-8.759-1.906-12.187 0l-106.883 61.742c-3.3 1.905-3.3 5.081 0 6.987l13.71 7.877z" fill="#97DFFF"/><path d="M165.91 338.31l-7.362-4.32v-38.112l47.983-27.695-40.621 70.127z" fill="#179ECC"/><path d="M214.02 310.488l-48.11 27.822v-38.24l48.11-27.695v38.113z" fill="#35AFE5"/><path d="M293.231 70.889l-6.982-3.938c-.127-.128-.254-.255-.508-.255-.634-.254-1.523-.127-2.539.382L82.13 183.192c-2.158 1.27-3.935 4.319-3.935 6.733v154.609c0 1.27.38 2.159 1.142 2.541.127 0 .254.127.381.127l6.982 3.938 1.396-7.496-2.03.89 197.263-113.956c2.158-1.27 3.936-4.319 3.936-6.733V75.081l5.966-4.192z" fill="#35AFE5"/><path d="M286.122 66.95c-.127-.127-.254-.254-.508-.254-.634-.254-1.523-.127-2.538.382L82.13 183.192c-.889.508-1.777 1.397-2.412 2.414l134.302 84.99 69.182-39.891c2.158-1.27 3.936-4.319 3.936-6.733V75.081l6.093-4.192-7.109-3.938z" fill="#97DFFF"/><path d="M294.373 228.038c0 2.541-1.777 5.463-3.935 6.733L89.366 351.014c-2.158 1.27-3.936.254-3.936-2.287V194.118c0-2.54 1.778-5.462 3.936-6.733L290.438 71.143c2.158-1.27 3.935-.254 3.935 2.287v154.608z" fill="#55C3FE"/><path d="M290.565 216.732L89.239 332.974v-139.11l201.326-116.37v139.238z" fill="#E6F7FF"/><path d="M288.534 78.638V215.08L89.239 330.306v2.668l201.326-116.242V77.495l-2.031 1.143z" fill="#fff"/><path d="M271.651 111.669l-80.226 46.37v-4.574l80.226-46.37v4.574zm0 8.257l-125.29 72.414v-4.574l125.29-72.413v4.573zm0 8.258l-125.29 72.413v-4.573l125.29-72.413v4.573zm0 8.258l-125.29 72.413v-4.701l125.29-72.413v4.701zm0 8.13l-125.29 72.414v-4.574l125.29-72.413v4.573zm0 8.258l-125.29 72.413v-4.573l125.29-72.414v4.574zm0 16.388l-80.226 46.37v-4.573l80.226-46.37v4.573zm0 8.258l-125.29 72.413v-4.573l125.29-72.414v4.574zm0 8.258l-125.29 72.413v-4.574l125.29-72.413v4.574zm0 8.13l-125.29 72.54v-4.7l125.29-72.413v4.573zm0 8.258l-125.29 72.413v-4.573l125.29-72.414v4.574zm-65.12 45.989l-60.17 34.682v-4.574l60.17-34.809v4.701z" fill="#CBE9F4"/><path d="M465.869 347.584l-107.772-62.377-20.818-146.987 20.818-11.941 107.772 62.377v158.928z" fill="#144682"/><path d="M460.537 344.789l-18.025 9.274L337.66 143.556l19.929-11.306 102.948 59.455v153.084z" fill="#fff"/><path d="M445.051 359.526l-107.772-62.378V138.22l107.772 62.25v159.056z" fill="#2D5CA0"/><path d="M441.623 361.558l-107.772-62.25-20.945-146.986 20.945-11.942 107.772 62.25v158.928z" fill="#1890C6"/><path d="M436.292 358.89l-18.153 9.147-104.725-210.379 19.93-11.307 102.948 59.455V358.89z" fill="#fff"/><path d="M420.805 373.5l-107.899-62.25V152.322l107.899 62.25V373.5z" fill="#55C3FE"/><path d="M312.906 311.25V152.322l107.899 62.25-107.899 96.678z" fill="#000" fill-opacity=".05"/><path d="M340.452 159.055l-9.139-5.209v-19.437l4.569 6.479 4.57-3.049v21.216z" fill="#EA4266"/><path d="M244.359 448.581l-85.684-49.673-37.448-20.199 133.922-74.446 152.327 66.188-134.936 78.13h-28.181z" fill="#000" fill-opacity=".05"/><path d="M271.397 447.184l-99.901-57.804v-22.359l134.048-55.009 99.901 57.677-134.048 77.495z" fill="#144682"/><path d="M305.544 304.771l-128.971 59.963v20.327l94.824 54.881 134.048-77.367-99.901-57.804z" fill="#E5E5E5"/><path d="M305.544 299.562l-21.453 10.036v64.156H176.573v6.098l94.824 54.882 134.048-77.368-99.901-57.804z" fill="#F4F4F4"/><path d="M305.544 294.862l-21.453 9.909v68.983H176.573v1.398l94.824 54.754 134.048-77.368-99.901-57.676z" fill="#fff"/><path d="M271.397 424.697l-99.901-57.676 134.048-77.368 99.901 57.677-134.048 77.367z" fill="#2D5CA0"/><path d="M271.778 416.694l-94.951-54.755v-21.342l127.321-52.214 94.95 54.754-127.32 73.557z" fill="#1890C6"/><path d="M304.148 281.522l-122.624 56.915v19.31l90.254 52.214 127.32-73.557-94.95-54.882z" fill="#E5E5E5"/><path d="M304.148 276.568l-20.311 9.401v60.98H181.524v5.843l90.254 52.214 127.32-73.556-94.95-54.882z" fill="#F4F4F4"/><path d="M304.148 271.994l-20.311 9.528v65.426H181.524v1.398l90.254 52.087 127.32-73.557-94.95-54.882z" fill="#fff"/><path d="M271.778 395.478l-94.951-54.882 127.321-73.556 94.95 54.881-127.32 73.557z" fill="#55C3FE"/><path d="M272.413 390.015l-90.635-52.467v-20.327l121.608-49.927 90.762 52.341-121.735 70.38z" fill="#EA4266"/><path d="M303.386 260.688l-117.165 54.5v18.421l86.192 49.8 121.735-70.253-90.762-52.468z" fill="#E5E5E5"/><path d="M303.386 255.987l-19.422 9.02v58.312h-97.743v5.59l86.192 49.8 121.735-70.254-90.762-52.468z" fill="#F4F4F4"/><path d="M303.386 251.668l-19.422 9.02v62.631h-97.743v1.27l86.192 49.8 121.735-70.38-90.762-52.341z" fill="#fff"/><path d="M272.413 369.689l-90.635-52.468 121.608-70.254 90.762 52.341-121.735 70.381z" fill="#FE7386"/><path d="M181.778 317.221l71.974 41.669 60.17-34.809-72.102-41.542-60.042 34.682z" fill="#EF92A9"/><path d="M236.108 285.842l67.278-38.875 49.506 28.457-116.784 10.418z" fill="#EF92A9"/><path d="M418.139 150.924c-3.173-4.573.635-36.333-3.935-39.255 0-.762 0-1.525-.127-2.287 1.016-.254-21.452-26.806-26.022-22.613-4.57 4.192-1.016 11.18-1.016 11.18s.254 1.143-1.523 1.905c1.015.381 2.031.508 2.92.381 0 .254.126.508.126.889.254 1.525.508 3.304 1.016 5.082.508 1.906.889 3.684 1.269 5.336-.254.127-.38.381-.634.635-.127 0-.127.127-.127.127l-.381.381c-.254.254-.508.635-.762.889-8.124 10.418-5.458 22.741-10.409 26.806-1.65 1.398-5.458 4.447-10.155 6.352l-6.474 1.525-9.267-17.532.127 5.463-.127-.254.508 14.101c-2.285.254-4.189 7.623-.254 9.909.254.127 8.505.763 8.759.763l1.27 9.401-.381 9.02c-5.078 4.573-9.521 9.782-10.663 14.609-3.301 13.34-2.031 44.083-2.031 44.083s0 .127.127.254c-1.65 1.271-7.363 5.717-8.759 7.75-.127.254-.254.381-.254.635-.254.762.127 1.525.889 2.033.127 0 .253.127.253.127s.127 0 .127.127c.127 0 .254.127.254.127.127 0 .127 0 .254.127h2.539c.127 0 .381-.127.508-.127s.254 0 .381-.127c.127 0 .38-.127.634-.127.127 0 .254-.127.381-.127.254-.127.381-.127.635-.254.127 0 .254-.127.381-.127.38-.127.634-.381 1.015-.508 6.093-3.176 7.363-4.066 8.505-4.701.254-.127.381-.254.508-.381l.127-.127c.127-.127.254-.254.254-.508 0-.127.127-.381.127-.508v-.89c.127-.127.253-.127.253-.127l5.078-45.099s8.124 13.466 14.217 11.052c-3.808 4.701-2.919-1.27-3.681 3.684-1.904 13.594-1.904 43.067-1.904 43.067l.254.254c-1.904 1.525-7.109 5.59-8.378 7.496-.127.254-.254.381-.254.635-.254.762 0 1.525.889 2.033.126 0 .253.127.253.127s.127 0 .127.127c.127 0 .254.127.254.127.127 0 .127 0 .254.127h2.539c.127 0 .381-.127.508-.127s.254 0 .38-.127c.127 0 .381-.127.635-.127.127 0 .254-.127.381-.127.254-.127.381-.127.635-.254.127 0 .254-.127.381-.127.38-.127.761-.382 1.015-.509 6.093-3.176 7.363-4.065 8.505-4.7.254-.127.381-.254.508-.381 0 0 0-.127.127-.127.127-.127.254-.254.254-.508 0-.127.127-.382.127-.509v-.127c0-.508-.127-1.016-.127-1.778 0-.127-.127-.381-.254-.508.254-.254 6.093-58.058 6.093-58.058s23.991-10.799 27.292-12.577c15.613-8.639 3.046-32.396 3.046-32.396z" fill="#000" fill-opacity=".05"/><path d="M383.485 97.694s.127-1.27 3.554 6.479c3.428 7.75-4.824 32.396-6.855 35.064-2.031 2.668-26.784 10.29-32.242 1.905 3.427-1.778.127-4.319.761-8.257 10.156 3.557 20.184-4.574 23.357-7.115 5.078-4.319 2.031-17.404 11.425-28.076z" fill="#C7EBF9"/><path d="M343.88 223.211s-7.49 5.717-9.14 8.003c-1.65 2.414 1.904 4.828 7.997 1.652s7.363-4.065 8.505-4.701c1.143-.635.889-1.651.762-3.303-.381-1.778-8.124-1.651-8.124-1.651z" fill="#fff"/><path d="M351.115 227.149c-1.142.635-2.412 1.525-8.505 4.701-4.57 2.413-7.616 1.524-8.251 0-.634 2.159 2.666 3.938 8.251 1.016 6.093-3.176 7.363-4.065 8.505-4.701.889-.508 1.016-1.143.889-2.286-.127.508-.254.889-.889 1.27z" fill="#4C4C4C"/><path d="M408.492 150.543s-.254 17.024-15.36 20.835c-15.105 3.684-30.973 11.434-30.973 11.434l-9.901 42.94s-2.158 1.016-4.189.635c-3.428-.635-4.697-3.176-4.697-3.176s-1.143-30.744 2.031-44.083c3.3-13.34 30.339-28.966 30.339-28.966l32.75.381z" fill="#112F5B"/><path d="M366.983 238.075s-7.49 5.717-9.14 8.003c-1.65 2.414 1.904 4.828 7.997 1.652s7.363-4.065 8.505-4.701c1.143-.635 1.016-1.651.762-3.303-.381-1.778-8.124-1.651-8.124-1.651z" fill="#fff"/><path d="M374.218 242.013c-1.142.635-2.412 1.525-8.505 4.701-4.569 2.413-7.616 1.524-8.251 0-.634 2.159 2.666 3.938 8.251 1.016 6.093-3.176 7.363-4.065 8.505-4.701.889-.508 1.016-1.143.889-2.286-.127.635-.381 1.016-.889 1.27z" fill="#4C4C4C"/><path d="M423.471 160.707s1.396 17.023-13.202 22.232c-14.598 5.209-29.704 14.483-29.704 14.483l-5.458 41.415s-1.523 1.651-4.443 1.651c-3.047 0-4.697-2.032-4.697-2.032s-3.427-31.379-1.523-44.973c1.904-13.593 22.468-29.473 22.468-29.473l36.559-3.303z" fill="#164072"/><path d="M373.584 151.687s-1.651-50.944 13.963-56.915c15.487-5.97 29.831 8.258 35.924 21.978 6.093 13.721 4.443 37.605 0 46.497-21.326 14.61-50.395-4.573-49.887-11.56z" fill="#E6F7FF"/><path d="M423.471 116.624c-6.093-13.721-20.31-27.95-35.924-21.979l-1.523.763c11.424 1.397 21.199 12.45 25.895 23.248 6.093 13.721 4.443 37.604 0 46.497-2.158 1.525-4.316 2.541-6.6 3.43 6.093 0 12.313-1.524 18.025-5.336 4.57-8.892 6.093-32.903.127-46.623z" fill="#fff"/><path d="M383.231 72.032s-3.935 6.225-.381 19.691c2.793 10.926 3.301 17.024 7.744 17.405 4.569.508 18.152-2.922 16.756-14.229 1.396-.254 4.189-5.462 1.904-9.655-2.158-4.192-3.682.381-3.682.381s.127-9.02-6.22-12.323c-6.474-3.303-16.121-1.27-16.121-1.27z" fill="url(#paint0_linear)"/><path d="M398.21 82.83c0-.508-4.824 6.353-12.694 4.193 2.666-.762 3.3-2.668 3.3-2.668s-2.665 3.43-7.108 2.287c1.904-.762 2.792-1.652 2.792-1.652s-2.919 1.525-5.839.381c1.777-.762 1.523-1.905 1.523-1.905s-1.523 1.524-4.696-1.144c1.269-.127 1.142-5.97 5.712-10.036 4.57-4.192 8.251-5.081 14.217-4.065-1.523-1.525-3.046-2.414-5.204-2.033 2.412-1.397 7.489 1.017 9.012 3.303 4.697-1.778 13.583 1.27 10.663 18.421 0-.38-.507-3.176-2.158-3.811-1.65-.508-3.046 2.795-2.665 3.557.381.89.507 5.717.507 5.717l-2.158 1.143s.635-4.192-.888-5.59c-1.269-1.143-4.062.382-4.316-6.097z" fill="#112F5B"/><path d="M346.165 121.324l9.139 12.323 29.831-6.987-1.777 38.493-27.038-.254-8.886-10.926-1.269-32.649z" fill="#fff"/><path d="M346.165 116.115l9.139 17.532 1.016 31.252-8.886-10.926-1.269-37.858z" fill="#E6F7FF"/><path d="M391.228 147.494s-.888 1.398-2.919 0c-1.904-1.397-2.666-3.811-3.809-4.7-.126 3.049 0 5.208-3.808 5.208-3.808-.127-6.22-.635-8.378-.381-2.158.127.381 9.655 11.552 9.909 6.093-.381 8.759-3.811 8.759-3.811l-1.397-6.225z" fill="url(#paint1_linear)"/><path d="M346.672 135.426s2.031 4.192 3.301 4.7c1.269.508.254 7.495-3.555 5.209-3.935-2.287-2.031-9.782.254-9.909z" fill="url(#paint2_linear)"/><path d="M411.031 115.099s.634-10.544 7.997-6.352c7.363 4.192 15.233 28.965 15.233 32.395 0 3.303-34.147 19.946-43.541 16.389 1.778-3.431 1.778-7.877-.126-11.434 10.282-3.176 23.483-7.114 25.768-10.544 2.158-3.431-6.601-6.353-5.331-20.454z" fill="#C7EBF9"/><path d="M202.088 486.566L48.11 397.638v-5.844l203.992 60.09v5.717l-50.014 28.965z" fill="#55C3FE"/><path d="M202.088 486.566L48.11 397.638v-5.844l153.978 88.42v6.352z" fill="#35AFE5"/><path d="M202.088 480.722L48.11 391.794l50.141-28.838 153.851 88.928-50.014 28.838z" fill="#97DFFF"/><path d="M102.694 379.217l-10.155-5.844v-1.27l16.756 2.032v1.271l-6.601 3.811z" fill="#32A5C4"/><path d="M102.694 377.946l-10.155-5.843 6.6-3.812 10.156 5.844-6.601 3.811z" fill="#ADF8FF"/><path d="M113.611 385.442l-10.155-5.844v-1.271l16.629 2.16v1.143l-6.474 3.812z" fill="#32A5C4"/><path d="M113.611 384.171l-10.155-5.844 6.474-3.684 10.155 5.844-6.474 3.684z" fill="#ADF8FF"/><path d="M124.401 391.794l-10.155-5.844v-1.271l16.756 2.033v1.271l-6.601 3.811z" fill="#32A5C4"/><path d="M124.401 390.523l-10.155-5.844 6.601-3.811 10.155 5.844-6.601 3.811z" fill="#ADF8FF"/><path d="M135.318 398.019l-10.155-5.844v-1.27l16.629 2.159v1.144l-6.474 3.811z" fill="#32A5C4"/><path d="M135.318 396.748l-10.155-5.844 6.473-3.811 10.156 5.971-6.474 3.684z" fill="#ADF8FF"/><path d="M146.108 404.371l-10.156-5.971v-1.143l16.756 2.032v1.271l-6.6 3.811z" fill="#32A5C4"/><path d="M146.108 403.1l-10.156-5.843 6.601-3.812 10.155 5.844-6.6 3.811z" fill="#ADF8FF"/><path d="M157.024 410.596l-10.155-5.844v-1.27l16.629 2.159v1.144l-6.474 3.811z" fill="#32A5C4"/><path d="M157.024 409.326l-10.155-5.844 6.474-3.812 10.155 5.971-6.474 3.685z" fill="#ADF8FF"/><path d="M167.814 416.948l-10.155-5.971v-1.143l16.756 2.032v1.271l-6.601 3.811z" fill="#32A5C4"/><path d="M167.814 415.678l-10.155-5.844 6.601-3.812 10.155 5.844-6.601 3.812z" fill="#ADF8FF"/><path d="M178.731 423.173l-10.155-5.844v-1.27l16.629 2.032v1.271l-6.474 3.811z" fill="#32A5C4"/><path d="M178.731 421.902l-10.155-5.843 6.601-3.812 10.028 5.844-6.474 3.811z" fill="#ADF8FF"/><path d="M189.521 429.398l-10.028-5.844v-1.143l16.629 2.032v1.271l-6.601 3.684z" fill="#32A5C4"/><path d="M189.521 428.254l-10.028-5.843 6.474-3.812 10.155 5.844-6.601 3.811z" fill="#ADF8FF"/><path d="M200.438 435.75l-10.155-5.844v-1.27l16.756 2.032v1.271l-6.601 3.811z" fill="#32A5C4"/><path d="M200.438 434.48l-10.155-5.844 6.601-3.812 10.155 5.844-6.601 3.812z" fill="#ADF8FF"/><path d="M211.355 441.975l-10.156-5.844v-1.27l16.63 2.159v1.271l-6.474 3.684z" fill="#32A5C4"/><path d="M211.355 440.832l-10.156-5.971 6.474-3.684 10.156 5.843-6.474 3.812z" fill="#ADF8FF"/><path d="M222.144 448.327l-10.155-5.844v-1.27l16.756 2.032v1.271l-6.601 3.811z" fill="#32A5C4"/><path d="M222.144 447.057l-10.155-5.844 6.601-3.812 10.155 5.844-6.601 3.812z" fill="#ADF8FF"/><path d="M233.061 454.552l-10.155-5.844v-1.27l16.629 2.159v1.271l-6.474 3.684z" fill="#32A5C4"/><path d="M233.061 453.409l-10.155-5.971 6.474-3.685 10.155 5.844-6.474 3.812z" fill="#ADF8FF"/><path d="M100.155 387.602l-16.12-9.401v-1.271l22.594 5.717v1.143l-6.474 3.812z" fill="#32A5C4"/><path d="M100.155 386.331l-16.12-9.401 6.6-3.811 15.994 9.528-6.474 3.684z" fill="#ADF8FF"/><path d="M110.945 393.954l-10.155-5.971v-1.144l16.756 2.033v1.27l-6.601 3.812z" fill="#32A5C4"/><path d="M110.945 392.683l-10.155-5.844 6.601-3.811 10.155 5.844-6.601 3.811z" fill="#ADF8FF"/><path d="M121.862 400.179l-10.155-5.844v-1.271l16.756 2.033v1.27l-6.601 3.812z" fill="#32A5C4"/><path d="M121.862 398.908l-10.155-5.844 6.601-3.811 10.155 5.844-6.601 3.811z" fill="#ADF8FF"/><path d="M132.779 406.404l-10.155-5.844v-1.271l16.629 2.16v1.27l-6.474 3.685z" fill="#32A5C4"/><path d="M132.779 405.26l-10.155-5.971 6.474-3.684 10.155 5.844-6.474 3.811z" fill="#ADF8FF"/><path d="M143.569 412.756l-10.155-5.844v-1.271l16.756 2.033v1.27l-6.601 3.812z" fill="#32A5C4"/><path d="M143.569 411.485l-10.155-5.844 6.601-3.811 10.155 5.844-6.601 3.811z" fill="#ADF8FF"/><path d="M154.486 418.98l-10.156-5.843v-1.271l16.63 2.16v1.27l-6.474 3.684z" fill="#32A5C4"/><path d="M154.486 417.837l-10.156-5.971 6.474-3.684 10.156 5.844-6.474 3.811z" fill="#ADF8FF"/><path d="M165.275 425.333l-10.155-5.844v-1.27l16.756 2.032v1.271l-6.601 3.811z" fill="#32A5C4"/><path d="M165.275 424.062l-10.155-5.844 6.601-3.811 10.155 5.844-6.601 3.811z" fill="#ADF8FF"/><path d="M176.192 431.558l-10.155-5.844v-1.271l16.629 2.16v1.27l-6.474 3.685z" fill="#32A5C4"/><path d="M176.192 430.414l-10.155-5.971 6.474-3.684 10.155 5.844-6.474 3.811z" fill="#ADF8FF"/><path d="M186.982 437.91l-10.155-5.844v-1.271l16.756 2.033v1.27l-6.601 3.812z" fill="#32A5C4"/><path d="M186.982 436.639l-10.155-5.844 6.601-3.811 10.155 5.844-6.601 3.811z" fill="#ADF8FF"/><path d="M197.899 444.135l-10.155-5.844v-1.27l16.629 2.159v1.144l-6.474 3.811z" fill="#32A5C4"/><path d="M197.899 442.864l-10.155-5.844 6.474-3.684 10.155 5.844-6.474 3.684z" fill="#ADF8FF"/><path d="M208.689 450.487l-10.155-5.844v-1.27l16.756 2.032v1.271l-6.601 3.811z" fill="#32A5C4"/><path d="M208.689 449.216l-10.155-5.844 6.601-3.811 10.155 5.844-6.601 3.811z" fill="#ADF8FF"/><path d="M224.556 459.634l-15.105-8.766v-1.271l21.579 4.955v1.27l-6.474 3.812z" fill="#32A5C4"/><path d="M224.556 458.363l-15.105-8.766 6.6-3.811 14.979 8.766-6.474 3.811z" fill="#ADF8FF"/><path d="M87.588 390.269l-12.059-7.114v-1.27l17.772 2.794v1.271l-5.713 4.319z" fill="#32A5C4"/><path d="M87.97 389.126l-12.44-7.241 6.473-3.685 12.44 7.242-6.474 3.684z" fill="#ADF8FF"/><path d="M97.617 395.986l-10.156-5.844v-1.27l16.63 2.159v1.144l-6.474 3.811z" fill="#32A5C4"/><path d="M97.617 394.716l-10.156-5.844 6.474-3.811 10.156 5.97-6.474 3.685z" fill="#ADF8FF"/><path d="M108.407 402.338l-10.156-5.971v-1.143l16.756 2.033v1.27l-6.6 3.811z" fill="#32A5C4"/><path d="M108.407 401.068l-10.156-5.844 6.601-3.811 10.155 5.844-6.6 3.811z" fill="#ADF8FF"/><path d="M119.323 408.563l-10.155-5.844v-1.27l16.629 2.033v1.27l-6.474 3.811z" fill="#32A5C4"/><path d="M119.323 407.293l-10.155-5.844 6.474-3.811 10.155 5.844-6.474 3.811z" fill="#ADF8FF"/><path d="M130.113 414.788l-10.155-5.844v-1.143l16.756 2.033v1.27l-6.601 3.684z" fill="#32A5C4"/><path d="M130.113 413.645l-10.155-5.844 6.601-3.811 10.155 5.844-6.601 3.811z" fill="#ADF8FF"/><path d="M141.03 421.14l-10.155-5.843v-1.271l16.629 2.033v1.27l-6.474 3.811z" fill="#32A5C4"/><path d="M141.03 419.87l-10.155-5.844 6.474-3.811 10.155 5.844-6.474 3.811z" fill="#ADF8FF"/><path d="M151.82 427.365l-10.155-5.844v-1.27l16.756 2.159v1.271l-6.601 3.684z" fill="#32A5C4"/><path d="M151.82 426.222l-10.155-5.971 6.601-3.684 10.155 5.844-6.601 3.811z" fill="#ADF8FF"/><path d="M162.737 433.717l-10.155-5.844v-1.27l16.629 2.033v1.27l-6.474 3.811z" fill="#32A5C4"/><path d="M162.737 432.447l-10.155-5.844 6.6-3.811 10.029 5.844-6.474 3.811z" fill="#ADF8FF"/><path d="M173.654 439.942l-10.156-5.843v-1.271l16.629 2.16v1.27l-6.473 3.684z" fill="#32A5C4"/><path d="M173.654 438.799l-10.156-5.971 6.474-3.684 10.155 5.844-6.473 3.811z" fill="#ADF8FF"/><path d="M184.443 446.294l-10.155-5.843v-1.271l16.756 2.033v1.27l-6.601 3.811z" fill="#32A5C4"/><path d="M184.443 445.024l-10.155-5.844 6.601-3.811 10.155 5.844-6.601 3.811z" fill="#ADF8FF"/><path d="M195.36 452.519l-10.155-5.844v-1.27l16.629 2.159v1.144l-6.474 3.811z" fill="#32A5C4"/><path d="M195.36 451.249l-10.155-5.844 6.474-3.684 10.155 5.844-6.474 3.684z" fill="#ADF8FF"/><path d="M206.15 458.871l-10.155-5.844v-1.27l16.756 2.033v1.27l-6.601 3.811z" fill="#32A5C4"/><path d="M206.15 457.601l-10.155-5.844 6.601-3.811 10.155 5.844-6.601 3.811z" fill="#ADF8FF"/><path d="M215.924 464.461l-9.012-5.209v-1.27l15.613 1.524v1.144l-6.601 3.811z" fill="#32A5C4"/><path d="M215.924 463.191l-9.012-5.209 6.474-3.811 9.139 5.336-6.601 3.684z" fill="#ADF8FF"/><path d="M84.161 398.146L66.897 388.11v-1.271l23.738 6.225v1.271l-6.474 3.811z" fill="#32A5C4"/><path d="M84.161 396.875l-17.264-10.036 6.474-3.684 17.264 9.909-6.474 3.811z" fill="#ADF8FF"/><path d="M94.95 404.371l-10.027-5.844v-1.271l16.629 2.16v1.27l-6.601 3.685z" fill="#32A5C4"/><path d="M94.95 403.227l-10.027-5.971 6.474-3.684 10.155 5.844-6.601 3.811z" fill="#ADF8FF"/><path d="M105.868 410.723l-10.155-5.844v-1.27l16.756 2.032v1.271l-6.601 3.811z" fill="#32A5C4"/><path d="M105.868 409.452l-10.155-5.843 6.6-3.812 10.156 5.844-6.601 3.811z" fill="#ADF8FF"/><path d="M116.785 416.948l-10.156-5.844v-1.271l16.629 2.16v1.271l-6.473 3.684z" fill="#32A5C4"/><path d="M116.785 415.677l-10.156-5.843 6.474-3.685 10.155 5.844-6.473 3.684z" fill="#ADF8FF"/><path d="M127.574 423.3l-10.155-5.844v-1.27l16.756 2.032v1.271l-6.601 3.811z" fill="#32A5C4"/><path d="M127.574 422.03l-10.155-5.844 6.601-3.811 10.155 5.843-6.601 3.812z" fill="#ADF8FF"/><path d="M138.491 429.525l-10.155-5.844v-1.27l16.629 2.159v1.144l-6.474 3.811z" fill="#32A5C4"/><path d="M138.491 428.254l-10.155-5.843 6.474-3.812 10.155 5.971-6.474 3.684z" fill="#ADF8FF"/><path d="M149.281 435.877l-10.155-5.844v-1.27l16.756 2.032v1.271l-6.601 3.811z" fill="#32A5C4"/><path d="M149.281 434.606l-10.155-5.843 6.601-3.812 10.155 5.844-6.601 3.811z" fill="#ADF8FF"/><path d="M160.198 442.102l-10.155-5.844v-1.27l16.629 2.16v1.143l-6.474 3.811z" fill="#32A5C4"/><path d="M160.198 440.832l-10.155-5.844 6.474-3.811 10.155 5.97-6.474 3.685z" fill="#ADF8FF"/><path d="M170.988 448.454l-10.155-5.971v-1.143l16.756 2.032v1.271l-6.601 3.811z" fill="#32A5C4"/><path d="M170.988 447.184l-10.155-5.844 6.6-3.811 10.156 5.843-6.601 3.812z" fill="#ADF8FF"/><path d="M181.905 454.679l-10.156-5.844v-1.27l16.63 2.159v1.144l-6.474 3.811z" fill="#32A5C4"/><path d="M181.905 453.409l-10.156-5.844 6.601-3.812 10.029 5.971-6.474 3.685z" fill="#ADF8FF"/><path d="M192.695 461.031l-10.029-5.971v-1.143l16.629 2.032v1.271l-6.6 3.811z" fill="#32A5C4"/><path d="M192.695 459.761l-10.029-5.844 6.474-3.812 10.155 5.844-6.6 3.812z" fill="#ADF8FF"/><path d="M207.419 469.416l-13.963-8.004v-1.27l20.564 4.192v1.271l-6.601 3.811z" fill="#32A5C4"/><path d="M207.419 468.145l-13.963-8.003 6.601-3.811 13.963 8.003-6.601 3.811z" fill="#ADF8FF"/><path d="M70.705 400.179l-12.313-7.115v-1.27l18.914 3.43v1.27l-6.6 3.685z" fill="#32A5C4"/><path d="M70.705 399.035l-12.313-7.241 6.601-3.811 12.313 7.241-6.6 3.811z" fill="#ADF8FF"/><path d="M81.622 406.531l-10.155-5.844v-1.271l16.63 2.033v1.27l-6.475 3.812z" fill="#32A5C4"/><path d="M81.622 405.26l-10.155-5.844 6.474-3.811 10.155 5.844-6.474 3.811z" fill="#ADF8FF"/><path d="M92.412 412.756l-10.155-5.844v-1.271l16.756 2.16v1.27l-6.6 3.685z" fill="#32A5C4"/><path d="M92.412 411.612l-10.155-5.971 6.6-3.684 10.156 5.844-6.6 3.811z" fill="#ADF8FF"/><path d="M157.405 450.487l-64.231-37.223v-1.271l70.705 33.412v1.271l-6.474 3.811z" fill="#32A5C4"/><path d="M157.405 449.216l-64.231-37.223 6.474-3.811 64.231 37.223-6.474 3.811z" fill="#ADF8FF"/><path d="M168.449 456.839l-10.155-5.971v-1.143l16.756 2.032v1.271l-6.601 3.811z" fill="#32A5C4"/><path d="M168.449 455.568l-10.155-5.843 6.601-3.812 10.155 5.844-6.601 3.811z" fill="#ADF8FF"/><path d="M179.366 463.064l-10.155-5.844v-1.271l16.629 2.16v1.144l-6.474 3.811z" fill="#32A5C4"/><path d="M179.366 461.793l-10.155-5.844 6.474-3.811 10.155 5.971-6.474 3.684z" fill="#ADF8FF"/><path d="M190.156 469.416L180 463.445v-1.143l16.757 2.032v1.271l-6.601 3.811z" fill="#32A5C4"/><path d="M190.156 468.145L180 462.301l6.601-3.811 10.156 5.844-6.601 3.811z" fill="#ADF8FF"/><path d="M198.915 474.371l-7.998-4.574v-1.27l14.598.889v1.143l-6.6 3.812z" fill="#32A5C4"/><path d="M198.915 473.1l-7.998-4.573 6.474-3.812 8.124 4.701-6.6 3.684z" fill="#ADF8FF"/><path d="M318.746 343.01v76.86l65.12 22.613 16.248-12.577-81.368-86.896z" fill="#000" fill-opacity=".05"/><path d="M318.746 343.01l28.18-16.388 29.958 22.105-28.181 16.261-29.957-21.978z" fill="#97DFFF"/><path d="M348.576 373.246l28.308-16.388v-8.131l-28.181 16.261-.127 8.258z" fill="#55C3FE"/><path d="M348.576 373.246l28.308-16.388 6.982 4.065-28.181 16.388-7.109-4.065z" fill="#97DFFF"/><path d="M355.685 385.442l28.181-16.389v-8.13l-28.181 16.388v8.131z" fill="#55C3FE"/><path d="M355.685 385.442l28.181-16.388 7.108 4.065-28.18 16.388-7.109-4.065z" fill="#97DFFF"/><path d="M362.794 397.638l28.18-16.388v-8.131l-28.18 16.388v8.131z" fill="#55C3FE"/><path d="M362.794 397.638l28.18-16.388 6.982 4.192-28.181 16.261-6.981-4.065z" fill="#97DFFF"/><path d="M369.775 409.834l28.181-16.262v-8.13l-28.181 16.261v8.131z" fill="#55C3FE"/><path d="M369.775 409.961l28.181-16.388 7.109 4.065-28.181 16.388-7.109-4.065z" fill="#97DFFF"/><path d="M376.884 422.157l28.181-16.389v-8.13l-28.181 16.388v8.131z" fill="#55C3FE"/><path d="M376.884 422.157l28.181-16.388 7.108 4.065-28.307 16.388-6.982-4.065z" fill="#97DFFF"/><path d="M383.866 434.353l28.307-16.388v-8.131l-28.307 16.388v8.131z" fill="#55C3FE"/><path d="M383.866 434.353l28.307-16.389 6.982 4.193-28.181 16.261-7.108-4.065z" fill="#97DFFF"/><path d="M390.974 446.549l28.181-16.262v-8.13l-28.181 16.261v8.131z" fill="#55C3FE"/><path d="M376.884 422.03v-8.131l-7.109-4.065v-8.131l-6.981-4.065v-8.131l-7.109-4.065v-8.131l-6.982-4.065v-8.258l-29.957-21.978 65.12 99.473 7.108 4.065v-8.13l-7.108-4.065v-8.131l-6.982-4.192z" fill="#35AFE5"/><path d="M203.357 276.568v34.682c0 7.114 4.697 14.229 14.091 19.691 18.787 10.926 49.379 10.926 68.166 0 9.394-5.462 14.091-12.577 14.091-19.691v-34.682h-96.348z" fill="#0A253F"/><path d="M249.69 321.667L167.053 273.9v-2.287h165.275v2.287l-82.638 47.767z" fill="#0B2D4F"/><path d="M249.69 319.381l-82.637-47.768 82.637-47.767 82.638 47.767-82.638 47.768z" fill="#164072"/><path d="M295.389 324.081h-2.793v-29.346l-43.54-21.851 1.269-2.541 45.064 22.613v31.125z" fill="#FFD629"/><path d="M255.657 272.121c0 1.525-2.158 2.922-4.697 2.922-2.666 0-4.697-1.27-4.697-2.922 0-1.524 2.158-2.922 4.697-2.922 2.539.128 4.697 1.398 4.697 2.922z" fill="#FFD629"/><path d="M297.42 337.293v-14.609c0-1.779-1.524-3.303-3.301-3.303-1.777 0-3.3 1.524-3.3 3.303v14.609h6.601z" fill="#FFF42C"/><path d="M85.05 497.746s14.598-.381 32.496-16.897c17.899-16.642 32.243-24.391 32.243-24.391v-5.082l50.268-29.601 12.694-8.384-.381-78.384-19.422 17.531-1.396 48.53-60.677 39.637-45.825 57.041z" fill="#000" fill-opacity=".05"/><path d="M111.072 480.087c-3.173 4.574-21.199 21.089-26.53 17.405-5.332-3.684 4.062-26.298 7.362-30.871l99.648-142.032c3.173-4.573 10.155-5.335 15.487-1.524 5.331 3.684 6.981 10.544 3.808 15.118l-99.775 141.904z" fill="#1D6BAA"/><path d="M206.912 322.938c-1.143-.763-2.285-1.271-3.428-1.779 2.285 3.684 2.539 8.131.254 11.434l-99.647 142.031c-2.539 3.558-13.71 14.102-21.2 17.151-.126 2.668.254 4.7 1.524 5.717 5.331 3.684 23.357-12.704 26.53-17.405l99.775-142.031c3.173-4.574 1.523-11.307-3.808-15.118z" fill="#155A93"/><path d="M95.205 461.539l-3.428 4.955c-3.173 4.573-12.567 27.187-7.362 30.871 5.331 3.684 23.357-12.704 26.53-17.405l3.428-4.954-19.168-13.467z" fill="#227CC6"/><path d="M108.66 470.94l-2.538 3.557c-3.174 4.574-17.518 25.027-22.723 21.343.254.635.635 1.144 1.143 1.525 5.331 3.684 23.357-12.704 26.53-17.405l3.428-4.955-5.84-4.065z" fill="#1D76B2"/><path d="M165.656 406.022l-14.979-10.417-7.87-5.59 43.54-61.996 22.85 16.134-43.541 61.869z" fill="#164072"/><path d="M199.295 337.166l-43.413 61.869-13.075-9.147v.127l7.87 5.59 14.979 10.417 43.541-61.868-9.902-6.988z" fill="#11385E"/><path d="M184.405 330.618l-2.555 3.638 22.85 16.068 2.554-3.638-22.849-16.068z" fill="#0F2C49"/><path d="M204.119 340.596s11.171 4.32 3.174 17.151c-7.998 12.704-27.546 33.412-29.45 41.415-1.905 8.004-9.521 7.115-9.775 1.398-.254-5.844 6.855-12.069 13.329-20.708 6.474-8.639 26.403-33.031 18.914-41.796a148.716 148.716 0 013.808 2.54z" fill="#227CC6"/><path d="M389.832 0l-87.335 34.301 37.574 4.446L389.832 0z" fill="#fff"/><path d="M339.564 38.62l5.839 16.389L389.832 0l-50.268 38.62z" fill="#97DFFF"/><path d="M352.004 42.432l-6.601 12.577L389.832 0l-37.828 42.432z" fill="#55C3FE"/><path d="M389.832 0l-11.679 57.676-26.149-15.244L389.832 0z" fill="#fff"/><path d="M337.152 55.517l-1.904-1.652c2.158-2.54 3.3-3.938 3.3-3.938l1.904 1.651c0 .128-1.142 1.525-3.3 3.939zm29.069 276.695h-3.935v-2.541h10.028l.127 2.541h-6.22zm-14.09-.381c-2.92-.127-5.966-.382-9.013-.636l-1.142-.127.253-2.541 1.143.128c3.046.254 6.093.508 9.013.635l-.254 2.541zm30.592-.255l-.254-2.54c3.428-.254 6.728-.636 10.029-1.017l.38 2.541c-3.3.508-6.727.762-10.155 1.016zm-50.903-1.778c-3.427-.508-6.727-1.016-10.028-1.652l.508-2.54c3.173.635 6.601 1.143 9.901 1.651l-.381 2.541zm71.087-.762l-.508-2.541c3.3-.635 6.601-1.398 9.901-2.16l.635 2.414a128.428 128.428 0 01-10.028 2.287zm-91.143-3.049c-3.3-.763-6.728-1.779-9.901-2.668l.761-2.414a119.912 119.912 0 009.648 2.668l-.508 2.414zm111.072-1.906l-.761-2.414c3.173-1.016 6.473-2.159 9.52-3.43l.889 2.414c-3.174 1.143-6.474 2.287-9.648 3.43zm-130.494-4.192c-3.173-1.271-6.347-2.541-9.393-4.066l1.142-2.286c2.92 1.397 6.093 2.795 9.267 3.938l-1.016 2.414zm149.408-3.43l-1.142-2.287c3.046-1.525 5.966-3.176 8.759-4.828l1.269 2.16a84.751 84.751 0 01-8.886 4.955zm-167.941-5.336c-3.047-1.779-5.839-3.684-8.632-5.59l1.523-2.033c2.666 1.906 5.459 3.812 8.378 5.463l-1.269 2.16zm185.459-5.336l-1.523-2.032c2.665-2.033 5.331-4.193 7.743-6.353l1.65 1.906c-2.412 2.287-5.077 4.447-7.87 6.479zm-201.961-6.733c-2.539-2.287-4.951-4.828-7.236-7.368l1.904-1.652c2.158 2.541 4.443 4.828 6.982 7.114l-1.65 1.906zm217.194-6.987l-1.904-1.652a69.23 69.23 0 006.093-7.876l2.158 1.397c-1.904 2.795-4.062 5.463-6.347 8.131zm-230.65-8.639a77.503 77.503 0 01-5.204-8.893l2.285-1.143c1.523 2.922 3.173 5.844 5.077 8.639l-2.158 1.397zm242.201-8.385l-2.285-1.143a69.71 69.71 0 003.808-9.147l2.412.762c-1.015 3.176-2.412 6.352-3.935 9.528zm-251.467-9.909c-1.143-3.176-2.158-6.479-2.92-9.909l2.412-.635c.761 3.303 1.777 6.479 2.793 9.528l-2.285 1.016zm257.814-9.655l-2.539-.381c.508-3.049.762-6.098.762-9.02v-.889h2.539v.889c0 3.049-.254 6.225-.762 9.401zm-262.511-10.29a130.444 130.444 0 01-.762-10.291h2.539c.127 3.43.254 6.734.762 10.037l-2.539.254zm259.718-9.909c-.634-3.176-1.523-6.48-2.665-9.529l2.412-.889c1.269 3.303 2.158 6.606 2.792 9.909l-2.539.509zm-257.687-10.418l-2.539-.127c.254-3.303.635-6.733 1.143-10.163l2.538.381c-.507 3.176-.888 6.606-1.142 9.909zm250.706-8.13c-1.65-2.795-3.555-5.59-5.586-8.258l2.031-1.525c2.158 2.668 4.189 5.59 5.84 8.512l-2.285 1.271zm-247.533-11.688l-2.411-.635c.761-3.303 1.777-6.607 2.792-9.91l2.412.763a94.47 94.47 0 00-2.793 9.782zm6.347-19.056l-2.285-1.017c1.397-3.176 2.793-6.352 4.443-9.274l2.285 1.144c-1.65 2.922-3.173 5.971-4.443 9.147zm9.394-17.786l-2.158-1.397c1.777-2.668 3.681-5.59 5.585-8.512l2.158 1.397c-2.031 3.049-3.808 5.844-5.585 8.512zm11.298-16.769l-2.032-1.398c1.905-2.795 3.936-5.463 5.967-8.258l2.031 1.525c-2.031 2.668-3.935 5.463-5.966 8.131zm11.932-16.389l-2.031-1.524c2.031-2.668 4.062-5.463 6.093-8.131l2.031 1.525c-2.031 2.668-4.062 5.335-6.093 8.13zm12.186-16.261l-2.031-1.524c2.031-2.668 4.189-5.336 6.22-8.004l2.031 1.525c-2.031 2.667-4.189 5.335-6.22 8.003zm12.44-16.007l-2.031-1.525c2.158-2.667 4.189-5.335 6.347-8.003l2.031 1.524c-2.031 2.668-4.189 5.336-6.347 8.004zm12.694-15.88l-2.031-1.652c2.158-2.795 4.316-5.335 6.347-7.876l1.904 1.651c-1.904 2.541-4.062 5.082-6.22 7.877zm12.821-15.753L322.3 69.49c2.412-2.922 4.57-5.463 6.474-7.876l1.904 1.651c-1.904 2.414-4.062 4.955-6.474 7.877zm145.981 129.963a45.321 45.321 0 00-3.682-3.303l1.651-1.906c1.269 1.143 2.665 2.287 3.808 3.43l-1.777 1.779z" fill="#35AFE5"/><path d="M77.306 254.971l-2.412-.889c1.27-2.922 3.174-6.353 3.3-6.353v5.209c-.253.508 0 0-.888 2.033zm41.89 83.466c-1.523 0-3.173 0-4.823-.127l.127-2.541c3.554.254 6.981.127 10.028 0l.127 2.541c-1.777 0-3.681.127-5.459.127zm-15.232-1.398c-3.682-.635-6.982-1.397-10.156-2.541l.762-2.413c3.047 1.016 6.22 1.778 9.774 2.413l-.38 2.541zm31.1-.381l-.635-2.414a45.634 45.634 0 009.394-3.303l1.142 2.287a65.091 65.091 0 01-9.901 3.43zm-50.903-6.352c-3.174-1.906-5.966-4.065-8.251-6.606l1.904-1.779c2.158 2.287 4.824 4.447 7.743 6.225l-1.396 2.16zm69.69-2.795l-1.523-2.033c2.538-2.032 4.95-4.446 6.981-7.114l2.031 1.525a47.365 47.365 0 01-7.489 7.622zm-83.907-12.704c-1.523-3.049-2.539-6.479-3.3-10.036l2.538-.508c.635 3.43 1.65 6.606 3.047 9.401l-2.285 1.143zm96.982-3.557l-2.285-1.144a54.652 54.652 0 003.808-9.273l2.412.762c-1.143 3.303-2.412 6.606-3.935 9.655zM65.755 294.353v-.254c0-3.176.254-6.606.761-10.163l2.54.381c-.508 3.43-.635 6.733-.635 9.782v.254h-2.666zm107.645-2.922l-2.539-.508c.635-3.176 1.015-6.606 1.269-10.036l2.539.127c-.254 3.557-.762 7.114-1.269 10.417zm-102.568-17.15l-2.411-.635c.761-3.303 1.777-6.606 2.92-10.036l2.411.762c-1.142 3.43-2.158 6.733-2.92 9.909zm101.552-3.557c0-3.303-.254-6.733-.508-10.163l2.539-.255c.381 3.558.508 6.988.508 10.418h-2.539zm-1.777-20.327a154.005 154.005 0 00-1.904-10.036l2.539-.508c.761 3.43 1.396 6.86 1.904 10.163l-2.539.381zm-4.316-19.945c-.889-3.176-1.904-6.479-2.92-9.782l2.412-.762c1.016 3.303 2.031 6.606 2.92 9.909l-2.412.635zm-6.22-19.564c-1.016-3.303-2.031-6.607-2.92-9.91l2.412-.635c.889 3.303 1.777 6.606 2.793 9.782l-2.285.763zm-5.205-19.946c-.634-3.43-1.269-6.86-1.777-10.163l2.539-.381c.508 3.303 1.143 6.733 1.777 10.036l-2.539.508zm-2.919-20.453c-.254-3.43-.508-6.988-.635-10.291l2.539-.127c.127 3.303.381 6.733.635 10.164l-2.539.254zm1.777-20.708l-2.539-.127c.127-3.43.254-6.987.635-10.29l2.539.254c-.381 3.303-.508 6.733-.635 10.163zm1.904-20.2l-2.539-.381c.635-3.43 1.27-6.86 2.158-10.163l2.412.635c-.762 3.049-1.396 6.479-2.031 9.909zm5.078-19.691l-2.412-.889c1.269-3.43 2.666-6.606 4.062-9.528l2.285 1.143c-1.397 2.922-2.793 5.971-3.935 9.274zm9.139-17.913l-2.031-1.524c2.031-2.922 4.443-5.59 6.855-8.004l1.777 1.779c-2.412 2.287-4.57 4.828-6.601 7.75zm62.328-12.196a80.99 80.99 0 00-9.394-3.81l.762-2.415c3.173 1.017 6.347 2.414 9.647 3.939l-1.015 2.286zm-47.857-1.524l-1.269-2.16c3.047-1.778 6.347-3.303 9.647-4.192l.762 2.414c-3.3.889-6.347 2.16-9.14 3.938zm28.816-4.828c-3.428-.635-6.728-.762-10.028-.635l-.127-2.54c3.427-.128 6.854.126 10.536.762l-.381 2.413zm32.369 14.101c-1.396-.888-2.792-1.905-4.189-2.667l1.27-2.16c1.396.89 2.919 1.779 4.316 2.795l-1.397 2.033z" fill="#1D6BAA"/><path d="M469.55 365.242l-6.982 3.811-4.95-2.667-47.095 25.535c-6.728 3.684-6.728 9.528 0 13.212l.635.381c6.728 3.684 17.644 3.684 24.372 0l34.147-18.548v-21.724h-.127z" fill="#000" fill-opacity=".05"/><path d="M477.42 378.073l21.58-12.45v-5.717l-38.59 8.385 17.01 9.782z" fill="#AAA"/><path d="M477.42 372.357L499 359.906l-17.01-9.909-21.58 12.45 17.01 9.91z" fill="#FCFCFC"/><path d="M491.257 361.939l3.3-1.905-4.824-2.668-3.3 1.778 4.824 2.795z" fill="#AAA"/><path d="M489.733 357.747l-2.792 1.651-.508-.254 3.3-1.778 4.824 2.668-.508.254-4.316-2.541z" fill="#4F4F4F"/><path d="M483.006 357.239l3.3-1.906-4.824-2.795-3.3 1.906 4.824 2.795z" fill="#AAA"/><path d="M481.482 353.046l-2.792 1.652-.508-.254 3.3-1.906 4.824 2.795-.508.254-4.316-2.541z" fill="#4F4F4F"/><path d="M415.347 387.347l4.062 3.812.761-.381 67.659-22.233v10.164l-44.302 25.535c-6.347 3.684-16.502 3.684-22.849 0l-.508-.381c-3.3-1.906-4.823-4.32-4.696-6.86v-9.656h-.127z" fill="#EA4266"/><path d="M420.17 380.487l44.302-25.535 23.484 13.593-44.302 25.535c-6.347 3.685-16.502 3.685-22.849 0l-.508-.381c-6.473-3.684-6.474-9.655-.127-13.212z" fill="#FE7386"/><path d="M424.233 390.65c3.808 2.287 10.155 2.287 13.963 0 3.808-2.286 3.808-5.844 0-8.13-3.808-2.287-10.155-2.287-13.963 0-3.809 2.286-3.809 5.971 0 8.13z" fill="#FFB6C2"/><path d="M85.43 75.97s-.127 9.147 4.57 11.053c3.808-.762-.507-10.544-.507-10.544l-4.063-.508z" fill="#112F5B"/><path d="M143.569 149.273c.635-.381 1.142-1.016 1.523-1.652l-3.173 1.779c1.015 0 1.65 0 1.65-.127z" fill="#E2E2E2"/><path d="M155.628 235.915c-.127-.254-.127-.381-.254-.635-1.396-2.033-7.108-6.479-8.759-7.75.127-.127.127-.254.127-.254s1.143-30.744-2.031-44.083c-1.142-4.828-5.585-10.036-10.663-14.61l-.38-9.02.761-5.717-42.27 23.757c7.869 3.557 17.136 7.75 17.136 7.75s5.839 57.803 6.093 58.057c-.127.127-.254.254-.254.508-.127.763-.127 1.271-.127 1.779v.127c0 .254 0 .381.127.508 0 .127.127.254.254.508l.127.127c.127.127.254.254.508.381 1.142.636 2.412 1.525 8.505 4.701.381.254.762.381 1.015.508.127 0 .254.127.381.127.254.127.508.127.635.254.127 0 .254.127.381.127.254 0 .381.127.634.127.127 0 .254 0 .381.127.127 0 .381.127.508.127h2.539c.127 0 .127 0 .254-.127.127 0 .254 0 .254-.127 0 0 .126 0 .126-.127.127 0 .254-.127.254-.127.762-.508 1.143-1.27.889-2.032-.127-.254-.127-.381-.254-.636-1.269-1.905-6.474-5.97-8.378-7.495l.254-.254s0-29.474-1.904-43.067c-.635-5.082 4.316-.381.508-5.082 5.966 2.414 10.028-9.655 10.028-9.655l5.077 45.1s.127 0 .254.127v.889c0 .254 0 .381.127.508 0 .127.127.254.254.509 0 0 0 .127.127.127.127.127.254.254.508.381 1.142.635 2.412 1.524 8.505 4.7.381.254.761.381 1.015.508.127 0 .254.127.381.127.254.127.508.127.635.254.127 0 .254.128.381.128.254 0 .38.127.634.127.127 0 .254 0 .381.127.127 0 .381.127.508.127h2.539c.127 0 .127 0 .254-.127.127 0 .253 0 .253-.127 0 0 .127 0 .127-.127.127 0 .254-.128.254-.128.254-.508.635-1.27.381-2.032z" fill="#000" fill-opacity=".05"/><path d="M145.727 160.707s-7.236.635-8.759 6.606c-1.269 5.081-3.3 2.032-2.92 2.922.381.889 4.062 8.13 7.617 4.954 3.554-3.176 8.632-6.479 6.601-13.212-1.397-1.143-2.539-1.27-2.539-1.27z" fill="#0B223D"/><path d="M126.051 173.284s-7.235.635-8.759 6.606c-1.269 5.081-1.269 5.336-.888 6.352.381.889 2.031 4.827 5.585 1.651s10.536-4.192 8.632-10.798c-1.396-1.525-4.57-3.811-4.57-3.811z" fill="#112F5B"/><path d="M113.484 87.15s-.127-1.27-3.554 6.479c-3.428 7.75 4.824 32.395 6.855 35.063 2.031 2.668 26.784 10.291 32.242 1.906-3.427-1.779-.127-4.319-.761-8.258-10.156 3.557-24.754-2.541-27.927-5.081-5.078-4.32 2.539-19.438-6.855-30.109z" fill="url(#paint3_linear)"/><path d="M152.074 212.666s8.505 5.717 10.155 8.004c1.65 2.286-1.904 4.827-7.997 1.651s-7.363-4.065-8.505-4.7c-1.143-.635-1.143-3.939 0-5.844.888-1.525 6.347.889 6.347.889z" fill="#FE7386"/><path d="M145.727 216.604c1.142.636 2.412 1.525 8.505 4.701 4.57 2.414 7.616 1.524 8.251 0 .635 2.16-2.666 3.938-8.251 1.016-6.093-3.176-7.363-4.065-8.505-4.7-.889-.508-1.016-1.144-.889-2.287.127.508.381.889.889 1.27z" fill="#4C4C4C"/><path d="M88.477 139.999s.254 17.023 15.36 20.835c15.106 3.684 34.781 9.528 34.781 9.528l7.49 43.194s2.538 2.54 4.569 1.778c1.778-.762 1.397-2.541 1.397-2.541s1.015-32.014-1.777-45.353c-2.031-9.909-37.067-24.773-37.067-24.773l-24.753-2.668z" fill="url(#paint4_linear)"/><path d="M148.266 162.104c-8.125-11.434-27.165-22.359-27.165-22.359l-32.75.381s.253 17.023 15.359 20.835c12.694 3.176 28.561 11.052 32.369 12.831.127-7.242 5.459-14.737 12.187-11.688z" fill="#112F5B"/><path d="M129.986 227.53s7.49 5.717 9.14 8.004c1.65 2.286-1.904 4.827-7.997 1.651s-7.363-4.065-8.505-4.7c-1.143-.636-1.143-4.193.127-6.48.888-1.524 7.235 1.525 7.235 1.525z" fill="#FE7386"/><path d="M122.751 231.468c1.142.635 2.412 1.525 8.505 4.701 4.57 2.413 7.616 1.524 8.251 0 .634 2.159-2.666 3.938-8.251 1.016-6.093-3.176-7.363-4.065-8.505-4.701-.889-.508-1.016-1.143-.889-2.286.127.508.254.889.889 1.27z" fill="#4C4C4C"/><path d="M73.498 150.162s-1.396 17.024 13.202 22.232c14.598 5.209 32.623 11.815 32.623 11.815l3.555 42.813s1.269 1.905 4.189 1.905c3.046 0 2.919-1.524 2.919-1.524s3.174-30.998 1.27-44.591c-1.904-13.594-21.199-29.474-21.199-29.474l-36.559-3.176z" fill="url(#paint5_linear)"/><path d="M130.621 176.841c-5.585-11.815-20.564-23.503-20.564-23.503l-36.559-3.303s-1.396 17.024 13.202 22.232c12.82 4.574 27.673 13.721 30.592 15.499 1.904-6.352 4.951-12.831 13.329-10.925z" fill="#164072"/><path d="M123.258 141.142s1.651-50.943-13.963-56.914c-15.487-5.97-29.83 8.258-35.924 21.978-6.093 13.72-4.443 37.604 0 46.497 21.453 14.61 50.522-4.573 49.887-11.561z" fill="#FFA9B8"/><path d="M73.498 106.079c6.093-13.72 20.31-27.949 35.924-21.978l1.523.762c-11.424 1.398-21.199 12.45-25.895 23.249-6.093 13.72-4.443 37.604 0 46.497 2.158 1.524 4.316 2.54 6.6 3.43-6.093 0-12.313-1.525-18.025-5.336-4.57-9.02-6.22-32.904-.127-46.624z" fill="#FFC0CF"/><path d="M113.738 61.36s3.935 6.226.381 19.692c-2.793 10.925-3.301 17.023-7.743 17.405-4.57.508-18.153-2.922-16.757-14.229-1.396-.254-4.189-5.463-1.904-9.655 2.158-4.192 3.682.381 3.682.381s-.127-9.02 6.347-12.323c6.347-3.176 15.994-1.27 15.994-1.27z" fill="url(#paint6_linear)"/><path d="M98.76 72.286c0-.508 4.823 6.352 12.693 4.192-2.666-.762-3.3-2.667-3.3-2.667s2.665 3.43 7.108 2.286c-1.904-.762-2.792-1.651-2.792-1.651s2.919 1.524 5.839.381c-1.777-.762-1.523-1.906-1.523-1.906s1.523 1.525 4.696-1.143c-1.269-.127-1.142-5.97-5.712-10.036-4.57-4.193-8.251-5.082-14.217-4.066 1.523-1.524 3.046-2.413 5.204-2.032-2.412-1.398-7.49 1.016-9.012 3.303-4.697-1.779-13.583 1.27-10.663 18.42 0-.38.507-3.175 2.158-3.81 1.65-.509 3.046 2.794 2.665 3.557-.38.889-.507 5.716-.507 5.716l2.158 1.144s-.635-4.192.888-5.59c1.27-1.143 4.062.381 4.316-6.098z" fill="#112F5B"/><path d="M150.804 110.653l-9.266 12.45-29.704-6.988 1.65 38.494 27.165-.381 8.886-10.799 1.269-32.776z" fill="#fff"/><path d="M150.804 105.444l-9.266 17.659-.889 31.125 8.886-10.799 1.269-37.985z" fill="#E6F7FF"/><path d="M150.17 124.754s-2.031 4.193-3.301 4.701c-1.269.508-.254 7.495 3.555 5.208 3.935-2.159 2.158-9.655-.254-9.909z" fill="url(#paint7_linear)"/><path d="M124.655 136.95c-2.158-.127-4.57.381-8.378.381-3.808.127-3.681-2.032-3.808-5.208-1.143.889-1.905 3.303-3.809 4.7-1.904 1.397-2.919 0-2.919 0l-.381.254c-13.71-2.414-23.484-5.844-25.642-9.147-2.285-3.176 3.808-13.339 4.316-22.486 0 0 1.27-11.434-6.093-7.368-7.362 4.192-9.774 33.665-9.774 36.968 0 3.304 24.753 8.004 37.574 9.147 2.158 1.271 4.823 2.414 7.489 2.541 11.044 0 13.583-9.655 11.425-9.782z" fill="url(#paint8_linear)"/><path d="M85.938 104.428s-.635-10.545-7.997-6.352c-3.808 2.159-7.616 13.466-10.536 20.707 4.316 3.303 8.886 4.955 13.836 5.844 1.778-2.795 5.586-10.417 4.697-20.199zm32.751-38.621s-.508 7.496-31.99 10.545c-1.015-1.144-1.65-2.795-1.903-4.828-.635-4.065.127-8.893 1.142-10.798 1.523-2.922 1.143-6.734-.635-8.64-1.777-1.778-1.396-5.716 4.697-2.921 6.347 2.922 22.215.762 28.689 16.642z" fill="#FC88A1"/><path d="M84.923 71.778s5.839 1.652 17.644-.508c11.806-2.16 14.725-6.225 14.852-8.258 3.428.127 2.92 4.828 2.412 5.717-1.65 3.176-19.676 10.926-33.004 8.385-2.666-1.398-2.666-4.32-1.904-5.336zm-.889-18.675a4.445 4.445 0 004.443-4.446 4.445 4.445 0 00-4.443-4.447 4.445 4.445 0 00-4.443 4.447 4.445 4.445 0 004.443 4.446z" fill="#fff"/></g><defs><linearGradient id="paint0_linear" x1="409.919" y1="87.119" x2="382.487" y2="91.397" gradientUnits="userSpaceOnUse"><stop stop-color="#FFE2C4"/><stop offset="1" stop-color="#FFB870"/></linearGradient><linearGradient id="paint1_linear" x1="391.789" y1="149.005" x2="372.02" y2="152.088" gradientUnits="userSpaceOnUse"><stop stop-color="#FFB870"/><stop offset="1" stop-color="#FFE2C4"/></linearGradient><linearGradient id="paint2_linear" x1="350.357" y1="140.083" x2="344.129" y2="141.054" gradientUnits="userSpaceOnUse"><stop stop-color="#FFB870"/><stop offset="1" stop-color="#FFE2C4"/></linearGradient><linearGradient id="paint3_linear" x1="109.046" y1="110.73" x2="149.048" y2="110.73" gradientUnits="userSpaceOnUse"><stop stop-color="#FFB870"/><stop offset="1" stop-color="#FFE2C4"/></linearGradient><linearGradient id="paint4_linear" x1="88.431" y1="177.706" x2="152.313" y2="177.706" gradientUnits="userSpaceOnUse"><stop stop-color="#FFE2C4"/><stop offset="1" stop-color="#FFB870"/></linearGradient><linearGradient id="paint5_linear" x1="73.47" y1="189.557" x2="131.889" y2="189.557" gradientUnits="userSpaceOnUse"><stop stop-color="#FFE2C4"/><stop offset="1" stop-color="#FFB870"/></linearGradient><linearGradient id="paint6_linear" x1="87.016" y1="76.538" x2="114.448" y2="80.817" gradientUnits="userSpaceOnUse"><stop stop-color="#FFE2C4"/><stop offset="1" stop-color="#FFB870"/></linearGradient><linearGradient id="paint7_linear" x1="146.577" y1="129.502" x2="152.805" y2="130.473" gradientUnits="userSpaceOnUse"><stop stop-color="#FFB870"/><stop offset="1" stop-color="#FFE2C4"/></linearGradient><linearGradient id="paint8_linear" x1="68.103" y1="122.079" x2="125.398" y2="122.079" gradientUnits="userSpaceOnUse"><stop stop-color="#FFB870"/><stop offset="1" stop-color="#FFE2C4"/></linearGradient><clipPath id="clip0"><path fill="#fff" d="M0 0h499v498H0z"/></clipPath></defs></svg>