<svg width="31" height="25" fill="none" xmlns="http://www.w3.org/2000/svg"><path d="M22.863 0a3.488 3.488 0 013.479 3.249l.008.238v17.438a.775.775 0 001.537.14l.013-.14V4.671a3.488 3.488 0 013.09 3.212l.01.254v11.625a5.038 5.038 0 01-4.752 5.03l-.286.008H5.038a5.038 5.038 0 01-5.03-4.752L0 19.763V3.486A3.488 3.488 0 013.249.009L3.487 0h19.375zM11.234 10.85H5.809c-.642 0-1.162.52-1.162 1.162v5.425c0 .642.52 1.163 1.162 1.163h5.425c.642 0 1.162-.52 1.162-1.163v-5.425c0-.642-.52-1.162-1.162-1.162zm9.307 5.425h-3.872l-.158.01a1.163 1.163 0 00.158 2.315h3.872l.158-.01a1.163 1.163 0 00-.158-2.315zm-10.47-3.1v3.1h-3.1v-3.1h3.1zM20.54 10.85l-3.873.007-.157.01a1.163 1.163 0 00.162 2.315l3.872-.007.158-.01a1.163 1.163 0 00-.162-2.315zm.002-5.418H5.809l-.158.01a1.163 1.163 0 00.158 2.315h14.732l.158-.01a1.163 1.163 0 00-.158-2.315z" fill="#A40E02"/></svg>