<svg width="618" height="601" fill="none" xmlns="http://www.w3.org/2000/svg"><g clip-path="url(#clip0)"><path d="M360.344 188.23s-1.089-4.501-1.244-5.121c-.156-.621.466-3.259-.623-4.035-1.089-.776-1.711 3.569-1.711 3.569s-5.601-4.81-6.846-4.5c-1.4.31-.311 4.19 1.089 6.052 1.4 1.862 3.579 3.724 3.579 3.724l1.089 1.707 4.667-1.396z" fill="#FF9D6F"/><path d="M393.952 200.644s-15.093 8.69-21.005 6.827c-5.912-1.862-12.758-21.104-12.758-21.104s-4.201-.155-5.601 3.88c0 0 7.157 21.414 12.758 26.069 5.446 4.656 26.294.466 30.495-2.793 4.046-3.258 3.735-9 1.401-10.552-2.179-1.707-5.29-2.327-5.29-2.327z" fill="#5C6BC0"/><path opacity=".38" d="M393.64 261.318l-68.77 39.881c-2.956 1.706-6.379 1.706-9.335 0l-69.237-39.881c-2.645-1.552-2.645-5.431 0-6.983l69.081-40.036a8.452 8.452 0 018.558 0l69.548 40.036c2.8 1.552 2.8 5.431.155 6.983z" fill="url(#paint0_linear)"/><path d="M147.965 297.009v5.431-5.276c.156 0 0-.155 0-.155z" fill="#9B9FA2"/><path d="M148.121 297.164v5.276s0 .155.155.155v-5.276c-.155 0-.155-.155-.155-.155z" fill="#A0A4A7"/><path d="M148.276 297.319v5.276l.156.155v-5.276c-.156 0-.156 0-.156-.155z" fill="#A5A9AC"/><path d="M148.432 297.474v5.276l.311.311v-5.276c-.155 0-.311-.156-.311-.311z" fill="#A9AEB1"/><path d="M297.175 268.301c.623-.31.778-.776.778-1.241v5.276c0 .465-.311.931-.778 1.241l-98.021 56.484v-5.276l98.021-56.484zm-148.432 29.483l46.21 26.846c.311.155.623.31.934.31h.155c.311 0 .623.156.934.156.311 0 .778 0 1.089-.156.311-.155.622-.155.933-.31v5.276c-.155 0-.311.155-.466.155-.156 0-.311.155-.311.155h-2.801c-.156 0-.467-.155-.622-.31l-46.21-26.845c-.623-.311-.778-.776-.778-1.242v-5.276c.155.466.466.931.933 1.241z" fill="#2689FD"/><path d="M148.743 295.457c-1.089.621-1.089 1.707 0 2.328l46.21 26.845c1.089.621 2.956.621 4.046 0l98.021-56.484c1.089-.621 1.089-1.707 0-2.328l-46.21-26.846c-1.089-.62-2.957-.62-4.046 0l-98.021 56.485z" fill="#F2F8FD"/><path opacity=".32" d="M148.743 364.2c-1.089.621-1.089 1.707 0 2.328l46.21 26.845c1.089.621 2.956.621 4.046 0l98.021-56.484c1.089-.621 1.089-1.707 0-2.328l-46.21-26.845c-1.089-.621-2.957-.621-4.046 0L148.743 364.2z" fill="url(#paint1_linear)"/><path d="M240.696 249.835v1.707l.156.155-.156-1.862z" fill="#038BAD"/><path d="M240.696 249.835v1.707l.156.155v-1.707l-.156-.155z" fill="#038FB3"/><path d="M257.033 249.99v1.707c.311-.155.467-.465.467-.621v-1.707c-.156.311-.156.466-.467.621z" fill="#036A85"/><path d="M241.008 249.99v1.707l6.845 4.035v-1.707l-6.845-4.035z" fill="#049DC5"/><path d="M250.032 254.025v1.707l7.001-4.035v-1.707l-7.001 4.035z" fill="#036D89"/><path d="M247.853 254.025v1.707c.156 0 .156.155.312.155v-1.707s-.156-.155-.312-.155z" fill="#0493B8"/><path d="M248.165 254.18v1.707h.311v-1.707h-.311z" fill="#038FB3"/><path d="M248.476 254.18v1.707h.155v-1.707c0 .155 0 0-.155 0z" fill="#038BAD"/><path d="M248.631 254.335v1.707h.156v-1.707h-.156z" fill="#0387A8"/><path d="M248.787 254.335v1.707h.156v-1.707h-.156z" fill="#0383A3"/><path d="M248.943 254.335v1.707h.155l-.155-1.707c.155 0 .155 0 0 0z" fill="#037E9E"/><path d="M249.098 254.335v1.707h.156l-.156-1.707c.156 0 .156 0 0 0z" fill="#037A99"/><path d="M249.254 254.335v1.707h.155l-.155-1.707c.155-.155.155-.155 0 0z" fill="#037694"/><path d="M249.409 254.18v1.707h.156v-1.707h-.156z" fill="#03728F"/><path d="M249.565 254.18v1.707h.156v-1.707h-.156z" fill="#036E8A"/><path d="M249.876 254.18v1.707s.156 0 .156-.155v-1.707s-.156 0-.156.155z" fill="#036A85"/><path d="M241.008 248.749c-.623.31-.623.931 0 1.241l6.845 4.035c.623.31 1.556.31 2.179 0l7.001-4.035c.623-.31.623-.931 0-1.241l-6.846-4.035c-.622-.31-1.556-.31-2.178 0l-7.001 4.035z" fill="url(#paint2_linear)"/><path d="M227.005 257.594v1.707l.155.155-.155-1.862c.155.155 0 .155 0 0z" fill="#038BAD"/><path d="M227.16 257.749v1.707l.156.155v-1.707l-.156-.155z" fill="#038FB3"/><path d="M243.341 257.904v1.707c.312-.155.467-.465.467-.621v-1.707c0 .156-.155.466-.467.621z" fill="#036A85"/><path d="M227.316 257.904v1.707l6.846 4.035v-1.707l-6.846-4.035z" fill="#049DC5"/><path d="M236.34 261.939v1.707l7.001-4.035v-1.707l-7.001 4.035z" fill="#036D89"/><path d="M234.162 261.939v1.707c.155 0 .155.155.311.155v-1.707c0-.155-.156-.155-.311-.155z" fill="#0493B8"/><path d="M234.628 262.094v1.707h.312v-1.707h-.312z" fill="#038FB3"/><path d="M234.784 262.094v1.707h.156v-1.707h-.156z" fill="#038BAD"/><path d="M235.095 262.094v1.707h.156v-1.707h-.156z" fill="#0387A8"/><path d="M235.251 262.094v1.707h.155v-1.707h-.155z" fill="#0383A3"/><path d="M235.406 262.094v1.707h.156l-.156-1.707z" fill="#037E9E"/><path d="M235.562 262.094v1.707h.155l-.155-1.707z" fill="#037A99"/><path d="M235.717 262.094v1.707h.156l-.156-1.707z" fill="#037694"/><path d="M235.873 262.094v1.707h.156v-1.707h-.156z" fill="#03728F"/><path d="M236.029 262.094v1.707h.155v-1.707c-.155-.155-.155 0-.155 0z" fill="#036E8A"/><path d="M236.184 261.939v1.707s.156 0 .156-.156v-1.707c0 .156-.156.156-.156.156z" fill="#036A85"/><path d="M227.316 256.663c-.623.31-.623.931 0 1.241l6.846 4.035c.622.31 1.556.31 2.178 0l7.001-4.035c.623-.31.623-.931 0-1.241l-6.846-4.035c-.622-.31-1.555-.31-2.178 0l-7.001 4.035z" fill="url(#paint3_linear)"/><path d="M213.313 265.508v1.707l.155.155-.155-1.862c.155 0 .155 0 0 0z" fill="#038BAD"/><path d="M213.468 265.663v1.707l.156.155v-1.707c0-.155-.156-.155-.156-.155z" fill="#038FB3"/><path d="M229.65 265.818v1.707c.311-.155.466-.465.466-.621v-1.707c0 .156-.155.311-.466.621z" fill="#036A85"/><path d="M213.624 265.818v1.707l7.001 3.879v-1.706l-7.001-3.88z" fill="#049DC5"/><path d="M222.804 269.698v1.706l6.846-3.879v-1.707l-6.846 3.88z" fill="#036D89"/><path d="M220.625 269.698v1.706c.156 0 .156.156.312.156v-1.707c-.156 0-.312 0-.312-.155z" fill="#0493B8"/><path d="M220.937 269.853v1.707h.311v-1.707c-.156.155-.311 0-.311 0z" fill="#038FB3"/><path d="M221.248 270.008v1.707h.155v-1.707h-.155z" fill="#038BAD"/><path d="M221.403 270.008v1.707h.156v-1.707h-.156z" fill="#0387A8"/><path d="M221.559 270.008v1.707h.155v-1.707h-.155z" fill="#0383A3"/><path d="M221.714 270.008v1.707h.156l-.156-1.707c.156 0 0 0 0 0z" fill="#037E9E"/><path d="M221.87 270.008v1.707h.156l-.156-1.707c.156 0 0 0 0 0z" fill="#037A99"/><path d="M222.026 270.008v1.707h.155l-.155-1.707c.155 0 0 0 0 0z" fill="#037694"/><path d="M222.181 270.008v1.707h.156v-1.707c0-.155-.156 0-.156 0z" fill="#03728F"/><path d="M222.337 269.853v1.707h.155v-1.707h-.155z" fill="#036E8A"/><path d="M222.492 269.853v1.707s.156 0 .156-.156v-1.706c0 .155 0 .155-.156.155z" fill="#036A85"/><path d="M213.779 264.577c-.622.31-.622.931 0 1.241l6.846 4.035c.623.31 1.556.31 2.179 0l7.001-4.035c.622-.31.622-.931 0-1.241l-6.846-4.035c-.622-.31-1.556-.31-2.178 0l-7.002 4.035z" fill="url(#paint4_linear)"/><path d="M199.621 273.267v1.862-1.862c.155 0 .155 0 0 0z" fill="#0387A8"/><path d="M199.776 273.422v1.707l.156.155-.156-1.862z" fill="#038BAD"/><path d="M199.776 273.422v1.707l.156.155v-1.707l-.156-.155z" fill="#038FB3"/><path d="M215.958 273.577v1.707c.311-.155.466-.466.466-.621v-1.707c0 .311-.155.466-.466.621z" fill="#036A85"/><path d="M200.088 273.577v1.707l6.846 4.034v-1.707l-6.846-4.034z" fill="#049DC5"/><path d="M209.112 277.611v1.707l7.001-4.034-.155-1.707-6.846 4.034z" fill="#036D89"/><path d="M206.934 277.612v1.707c.155 0 .155.155.311.155v-1.707c-.156 0-.156-.155-.311-.155z" fill="#0493B8"/><path d="M207.245 277.767v1.707h.311v-1.707h-.311z" fill="#038FB3"/><path d="M207.556 277.767v1.707h.155v-1.707h-.155z" fill="#038BAD"/><path d="M207.711 277.767v1.707h.156v-1.707c0 .155 0 .155-.156 0z" fill="#0387A8"/><path d="M207.867 277.922v1.707h.156v-1.707h-.156z" fill="#0383A3"/><path d="M208.023 277.922v1.707h.155l-.155-1.707c.155 0 .155 0 0 0z" fill="#037E9E"/><path d="M208.178 277.922v1.707h.156l-.156-1.707c.156-.155.156-.155 0 0z" fill="#037A99"/><path d="M208.334 277.767v1.707h.155l-.155-1.707c.155 0 .155 0 0 0z" fill="#037694"/><path d="M208.489 277.767v1.707h.156v-1.707h-.156z" fill="#03728F"/><path d="M208.645 277.767v1.707h.156v-1.707h-.156z" fill="#036E8A"/><path d="M208.801 277.767v1.707s.155 0 .155-.155v-1.707l-.155.155z" fill="#036A85"/><path d="M200.088 272.336c-.623.31-.623.931 0 1.241l6.846 4.035c.622.31 1.555.31 2.178 0l7.001-4.035c.623-.31.623-.931 0-1.241l-6.846-4.035c-.622-.31-1.556-.31-2.178 0l-7.001 4.035z" fill="url(#paint5_linear)"/><path d="M185.929 281.025v1.863-1.863c.156 0 .156 0 0 0z" fill="#0383A3"/><path d="M186.085 281.181v1.706l.155.156-.155-1.862c0 .155 0 0 0 0z" fill="#038BAD"/><path d="M186.24 281.336v1.707l.156.155v-1.707l-.156-.155z" fill="#038FB3"/><path d="M202.421 281.491v1.707c.312-.155.467-.466.467-.621v-1.707c0 .155-.155.466-.467.621z" fill="#036A85"/><path d="M186.396 281.491v1.707l6.846 4.035v-1.707l-6.846-4.035z" fill="#049DC5"/><path d="M195.42 285.526v1.707l7.001-4.035v-1.707l-7.001 4.035z" fill="#036D89"/><path d="M193.242 285.526v1.706c.155 0 .155.156.311.156v-1.707c0-.155-.156-.155-.311-.155z" fill="#0493B8"/><path d="M193.553 285.526v1.706h.311v-1.706c0 .155-.156.155-.311 0z" fill="#038FB3"/><path d="M193.864 285.681v1.707h.156v-1.707h-.156z" fill="#038BAD"/><path d="M194.175 285.681v1.707h.156v-1.707h-.156z" fill="#0387A8"/><path d="M194.331 285.681v1.707h.155v-1.707h-.155z" fill="#0383A3"/><path d="M194.486 285.681v1.707h.156l-.156-1.707z" fill="#037E9E"/><path d="M194.642 285.681v1.707h.156l-.156-1.707z" fill="#037A99"/><path d="M194.798 285.681v1.707h.155l-.155-1.707z" fill="#037694"/><path d="M194.953 285.681v1.707h.156v-1.707h-.156z" fill="#03728F"/><path d="M195.109 285.681v1.707h.155v-1.707c-.155-.156-.155 0-.155 0z" fill="#036E8A"/><path d="M195.264 285.526v1.707s.156 0 .156-.156v-1.707c0 .156-.156.156-.156.156z" fill="#036A85"/><path d="M186.396 280.25c-.623.31-.623.931 0 1.241l6.846 4.035c.622.31 1.556.31 2.178 0l7.001-4.035c.623-.31.623-.931 0-1.241l-6.845-4.035c-.623-.31-1.556-.31-2.179 0l-7.001 4.035z" fill="url(#paint6_linear)"/><path d="M172.393 289.095v1.707l.155.155-.155-1.862c.155 0 .155 0 0 0z" fill="#038BAD"/><path d="M172.548 289.095v1.707l.156.155v-1.707s-.156 0-.156-.155z" fill="#038FB3"/><path d="M188.73 289.25v1.707c.311-.155.466-.466.466-.621v-1.707c0 .311-.155.466-.466.621z" fill="#036A85"/><path d="M172.704 289.25v1.862l7.001 3.879v-1.707l-7.001-4.034z" fill="#049DC5"/><path d="M181.728 293.284v1.707l7.002-3.879v-1.862l-7.002 4.034z" fill="#036D89"/><path d="M179.705 293.284v1.707c.156 0 .156.156.312.156v-1.707c-.156 0-.312 0-.312-.156z" fill="#0493B8"/><path d="M180.017 293.44v1.707h.311v-1.707h-.311z" fill="#038FB3"/><path d="M180.328 293.595v1.707h.155v-1.707h-.155z" fill="#038BAD"/><path d="M180.483 293.595v1.707h.156v-1.707h-.156z" fill="#0387A8"/><path d="M180.639 293.595v1.707h.156v-1.707h-.156z" fill="#0383A3"/><path d="M180.795 293.595v1.707h.155l-.155-1.707c.155 0 0 0 0 0z" fill="#037E9E"/><path d="M180.95 293.595v1.707h.156l-.156-1.707c.156 0 0 0 0 0z" fill="#037A99"/><path d="M181.106 293.595v1.707h.155l-.155-1.707c.155 0 0 0 0 0z" fill="#037694"/><path d="M181.261 293.595v1.707h.156v-1.707c0-.155-.156-.155-.156 0z" fill="#03728F"/><path d="M181.417 293.44v1.707h.156v-1.707h-.156z" fill="#036E8A"/><path d="M181.573 293.44v1.707s.155 0 .155-.156v-1.707s0 .156-.155.156z" fill="#036A85"/><path d="M172.704 288.008c-.622.311-.622.931 0 1.242l6.846 4.034c.622.311 1.556.311 2.178 0l7.002-4.034c.622-.311.622-.931 0-1.242l-6.846-4.034c-.623-.31-1.556-.31-2.179 0l-7.001 4.034z" fill="url(#paint7_linear)"/><path d="M253.921 257.438v1.707l.156.156-.156-1.863c.156.156.156.156 0 0z" fill="#038BAD"/><path d="M254.077 257.594v1.707l.156.155v-1.707l-.156-.155z" fill="#038FB3"/><path d="M270.258 257.749v1.707c.311-.155.467-.466.467-.621v-1.707c0 .155-.156.466-.467.621z" fill="#036A85"/><path d="M254.233 257.749v1.707l7.001 4.034v-1.707l-7.001-4.034z" fill="#049DC5"/><path d="M263.412 261.783v1.707l6.846-4.034v-1.707l-6.846 4.034z" fill="#036D89"/><path d="M261.234 261.783v1.707c.156 0 .156.156.311.156v-1.707c-.155-.156-.311-.156-.311-.156z" fill="#0493B8"/><path d="M261.545 261.939v1.707h.312v-1.707h-.312z" fill="#038FB3"/><path d="M261.857 261.939v1.707h.155v-1.707h-.155z" fill="#038BAD"/><path d="M262.012 261.939v1.707h.156v-1.707h-.156z" fill="#0387A8"/><path d="M262.168 261.939v1.707h.155v-1.707h-.155z" fill="#0383A3"/><path d="M262.323 261.939v1.707h.156l-.156-1.707c.156 0 0 0 0 0z" fill="#037E9E"/><path d="M262.479 261.939v1.707h.155l-.155-1.707c.155 0 0 0 0 0z" fill="#037A99"/><path d="M262.634 261.939v1.707h.156l-.156-1.707c.156 0 0 0 0 0z" fill="#037694"/><path d="M262.79 261.939v1.707h.156v-1.707h-.156z" fill="#03728F"/><path d="M262.946 261.939v1.707h.155v-1.707h-.155z" fill="#036E8A"/><path d="M263.101 261.783v1.707s.156 0 .156-.155v-1.707c0 .155 0 .155-.156.155z" fill="#036A85"/><path d="M254.233 256.507c-.623.311-.623.932 0 1.242l6.846 4.035c.622.31 1.555.31 2.178 0l7.001-4.035c.623-.31.623-.931 0-1.242l-6.846-4.034c-.622-.31-1.556-.31-2.178 0l-7.001 4.034z" fill="url(#paint8_linear)"/><path d="M267.769 265.508v1.707l.155.155-.155-1.862c.155 0 0 0 0 0z" fill="#038BAD"/><path d="M267.924 265.663v1.707l.156.155v-1.707l-.156-.155z" fill="#038FB3"/><path d="M284.106 265.818v1.707c.311-.155.466-.465.466-.621v-1.707c0 .156-.155.311-.466.621z" fill="#036A85"/><path d="M268.08 265.818v1.707l6.846 3.879v-1.706l-6.846-3.88z" fill="#049DC5"/><path d="M277.104 269.698v1.706l7.002-3.879v-1.707l-7.002 3.88z" fill="#036D89"/><path d="M274.926 269.698v1.706c.156 0 .156.156.311.156v-1.707s-.155 0-.311-.155z" fill="#0493B8"/><path d="M275.393 269.853v1.707h.311v-1.707c-.156.155-.311 0-.311 0z" fill="#038FB3"/><path d="M275.548 270.008v1.707h.156v-1.707h-.156z" fill="#038BAD"/><path d="M275.86 270.008v1.707h.155v-1.707h-.155z" fill="#0387A8"/><path d="M276.015 270.008v1.707h.156v-1.707h-.156z" fill="#0383A3"/><path d="M276.171 270.008v1.707h.155l-.155-1.707z" fill="#037E9E"/><path d="M276.326 270.008v1.707h.156l-.156-1.707z" fill="#037A99"/><path d="M276.482 270.008v1.707h.155l-.155-1.707z" fill="#037694"/><path d="M276.637 270.008v1.707h.156v-1.707c-.156-.155-.156 0-.156 0z" fill="#03728F"/><path d="M276.793 269.853v1.707h.156v-1.707h-.156z" fill="#036E8A"/><path d="M276.949 269.853v1.707s.155 0 .155-.156v-1.706c0 .155-.155.155-.155.155z" fill="#036A85"/><path d="M268.08 264.577c-.622.31-.622.931 0 1.241l6.846 4.035c.622.31 1.556.31 2.178 0l7.002-4.035c.622-.31.622-.931 0-1.241l-6.846-4.035c-.623-.31-1.556-.31-2.178 0l-7.002 4.035z" fill="url(#paint9_linear)"/><path d="M240.23 265.197v1.863-1.863c.155.156 0 .156 0 0z" fill="#0387A8"/><path d="M240.385 265.353v1.707l.156.155-.156-1.862z" fill="#038BAD"/><path d="M240.385 265.508v1.707l.156.155v-1.707c0-.155 0-.155-.156-.155z" fill="#038FB3"/><path d="M256.566 265.663v1.707c.312-.155.467-.466.467-.621v-1.707c0 .155-.155.311-.467.621z" fill="#036A85"/><path d="M240.696 265.663v1.707l6.846 4.034v-1.862l-6.846-3.879z" fill="#049DC5"/><path d="M249.721 269.542v1.862l6.845-4.034v-1.707l-6.845 3.879z" fill="#036D89"/><path d="M247.542 269.542v1.707c.156 0 .156.155.311.155v-1.707c-.155 0-.155 0-.311-.155z" fill="#0493B8"/><path d="M247.853 269.697v1.707h.312v-1.707c-.156.156-.156 0-.312 0z" fill="#038FB3"/><path d="M248.165 269.853v1.707h.155v-1.707h-.155z" fill="#038BAD"/><path d="M248.32 269.853v1.707h.156v-1.707h-.156z" fill="#0387A8"/><path d="M248.476 269.853v1.707h.155v-1.707h-.155z" fill="#0383A3"/><path d="M248.631 269.853v1.707h.156l-.156-1.707c.156 0 .156 0 0 0z" fill="#037E9E"/><path d="M248.787 269.853v1.707h.156l-.156-1.707c.156 0 .156 0 0 0z" fill="#037A99"/><path d="M248.943 269.853v1.707h.155l-.155-1.707c.155 0 .155 0 0 0z" fill="#037694"/><path d="M249.098 269.853v1.707h.156v-1.707h-.156z" fill="#03728F"/><path d="M249.254 269.697v1.707h.155v-1.707h-.155z" fill="#036E8A"/><path d="M249.409 269.697v1.707s.156 0 .156-.155v-1.707c0 .155 0 .155-.156.155z" fill="#036A85"/><path d="M240.696 264.422c-.622.31-.622.931 0 1.241l6.846 4.035c.623.31 1.556.31 2.179 0l7.001-4.035c.622-.31.622-.931 0-1.241l-6.846-4.035c-.622-.31-1.556-.31-2.178 0l-7.002 4.035z" fill="url(#paint10_linear)"/><path d="M226.538 272.956v1.862-1.862c.155.155 0 .155 0 0z" fill="#0383A3"/><path d="M226.693 273.267v1.707l.156.155-.156-1.862z" fill="#038BAD"/><path d="M226.849 273.267v1.707l.156.155v-1.707c-.156 0-.156 0-.156-.155z" fill="#038FB3"/><path d="M243.03 273.422v1.707c.311-.155.467-.466.467-.621v-1.707c0 .31-.156.466-.467.621z" fill="#036A85"/><path d="M227.005 273.422v1.707l6.845 4.034v-1.707l-6.845-4.034z" fill="#049DC5"/><path d="M236.029 277.456v1.707l7.001-4.034v-1.707l-7.001 4.034z" fill="#036D89"/><path d="M233.85 277.456v1.707c.156 0 .156.155.312.155v-1.707s-.156-.155-.312-.155z" fill="#0493B8"/><path d="M234.162 277.611v1.707h.311v-1.707h-.311z" fill="#038FB3"/><path d="M234.473 277.611v1.707h.155v-1.707c0 .156 0 0-.155 0z" fill="#038BAD"/><path d="M234.628 277.767v1.707h.156v-1.707h-.156z" fill="#0387A8"/><path d="M234.94 277.767v1.707h.155v-1.707h-.155z" fill="#0383A3"/><path d="M235.095 277.767v1.707h.156l-.156-1.707z" fill="#037E9E"/><path d="M235.251 277.767v1.707h.155l-.155-1.707z" fill="#037A99"/><path d="M235.406 277.611v1.707h.156l-.156-1.707z" fill="#037694"/><path d="M235.562 277.611v1.707h.155v-1.707h-.155z" fill="#03728F"/><path d="M235.717 277.611v1.707h.156v-1.707h-.156z" fill="#036E8A"/><path d="M235.873 277.611v1.707s.156 0 .156-.155v-1.707s-.156 0-.156.155z" fill="#036A85"/><path d="M227.005 272.18c-.623.311-.623.931 0 1.242l6.845 4.034c.623.311 1.556.311 2.179 0l7.001-4.034c.623-.311.623-.931 0-1.242l-6.846-4.034c-.622-.311-1.556-.311-2.178 0l-7.001 4.034z" fill="url(#paint11_linear)"/><path d="M212.846 280.87v1.862-1.862c.156 0 .156 0 0 0z" fill="#037E9E"/><path d="M213.001 281.025v1.707l.156.156-.156-1.863c.156.156 0 0 0 0z" fill="#038BAD"/><path d="M213.157 281.181v1.707l.156.155v-1.707l-.156-.155z" fill="#038FB3"/><path d="M229.338 281.336v1.707c.312-.155.467-.466.467-.621v-1.707c0 .155-.155.466-.467.621z" fill="#036A85"/><path d="M213.313 281.336v1.707l7.001 4.034v-1.707l-7.001-4.034z" fill="#049DC5"/><path d="M222.337 285.37v1.707l7.001-4.034v-1.707l-7.001 4.034z" fill="#036D89"/><path d="M220.314 285.37v1.707c.156 0 .156.156.311.156v-1.707c-.155-.156-.311-.156-.311-.156z" fill="#0493B8"/><path d="M220.625 285.526v1.706h.312v-1.706h-.312z" fill="#038FB3"/><path d="M220.937 285.526v1.706h.155v-1.706h-.155z" fill="#038BAD"/><path d="M221.092 285.526v1.706h.156v-1.706h-.156z" fill="#0387A8"/><path d="M221.248 285.526v1.706h.155v-1.706h-.155z" fill="#0383A3"/><path d="M221.403 285.526v1.706h.156l-.156-1.706c.156 0 0 0 0 0z" fill="#037E9E"/><path d="M221.559 285.526v1.706h.156l-.156-1.706c.155 0 0 0 0 0z" fill="#037A99"/><path d="M221.715 285.526v1.706h.155l-.155-1.706c.155 0 0 0 0 0z" fill="#037694"/><path d="M221.87 285.526v1.706h.156v-1.706h-.156z" fill="#03728F"/><path d="M222.026 285.526v1.706h.155v-1.706c0-.156-.155 0-.155 0z" fill="#036E8A"/><path d="M222.181 285.37v1.707s.156 0 .156-.155v-1.707c0 .155 0 .155-.156.155z" fill="#036A85"/><path d="M213.313 280.094c-.623.311-.623.931 0 1.242l6.846 4.034c.622.311 1.555.311 2.178 0l7.001-4.034c.623-.311.623-.931 0-1.242l-6.846-4.034c-.622-.311-1.555-.311-2.178 0l-7.001 4.034z" fill="url(#paint12_linear)"/><path d="M199.465 288.939v1.707l.156.156-.156-1.863z" fill="#038BAD"/><path d="M199.465 289.095v1.707l.156.155v-1.707c0-.155 0-.155-.156-.155z" fill="#038FB3"/><path d="M199.621 289.095v1.707-1.707c.155 0 0 0 0 0z" fill="#0493B8"/><path d="M215.647 289.25v1.707c.311-.155.466-.466.466-.621v-1.707c0 .155-.155.31-.466.621z" fill="#036A85"/><path d="M199.776 289.25v1.707l6.846 3.879v-1.707l-6.846-3.879z" fill="#049DC5"/><path d="M208.801 293.129v1.707l6.846-3.879v-1.707l-6.846 3.879z" fill="#036D89"/><path d="M206.622 293.129v1.707c.156 0 .156.155.312.155v-1.707c-.156 0-.156 0-.312-.155z" fill="#0493B8"/><path d="M206.934 293.284v1.707h.311v-1.707c-.156.156-.156 0-.311 0z" fill="#038FB3"/><path d="M207.245 293.44v1.706h.155v-1.706h-.155z" fill="#038BAD"/><path d="M207.4 293.44v1.706h.156v-1.706h-.156z" fill="#0387A8"/><path d="M207.556 293.44v1.706h.155v-1.706h-.155z" fill="#0383A3"/><path d="M207.711 293.44v1.706h.156l-.156-1.706c.156 0 .156 0 0 0z" fill="#037E9E"/><path d="M207.867 293.44v1.706h.156l-.156-1.706c.156 0 .156 0 0 0z" fill="#037A99"/><path d="M208.023 293.44v1.706h.155l-.155-1.706c.155 0 .155 0 0 0z" fill="#037694"/><path d="M208.178 293.44v1.707h.156v-1.707c0-.155 0 0-.156 0z" fill="#03728F"/><path d="M208.334 293.284v1.707h.155v-1.707h-.155z" fill="#036E8A"/><path d="M208.489 293.284v1.707s.156 0 .156-.155v-1.707c0 .155 0 .155-.156.155z" fill="#036A85"/><path d="M199.776 288.008c-.622.311-.622.931 0 1.242l6.846 4.034c.623.311 1.556.311 2.179 0l7.001-4.034c.622-.311.622-.931 0-1.242l-6.846-4.034c-.622-.31-1.556-.31-2.178 0l-7.002 4.034z" fill="url(#paint13_linear)"/><path d="M270.725 273.422v1.707c.311-.155.467-.466.467-.621v-1.707c0 .31-.156.466-.467.621z" fill="#036A85"/><path d="M213.313 296.543v1.862-1.862c.155.155 0 .155 0 0z" fill="#0383A3"/><path d="M213.468 296.698v1.707l.156.155-.156-1.862c0 .155 0 .155 0 0z" fill="#038BAD"/><path d="M213.624 296.854v1.706l.155.156v-1.707c-.155 0-.155-.155-.155-.155z" fill="#038FB3"/><path d="M213.779 297.009v1.707l6.846 4.034v-1.707l-6.846-4.034z" fill="#049DC5"/><path d="M222.804 301.043v1.707l47.921-27.621v-1.707l-47.921 27.621z" fill="#036D89"/><path d="M220.625 301.043v1.707c.156 0 .156.155.312.155v-1.707s-.156-.155-.312-.155z" fill="#0493B8"/><path d="M220.937 301.198v1.707h.311v-1.707h-.311z" fill="#038FB3"/><path d="M221.248 301.198v1.707h.155v-1.707h-.155z" fill="#038BAD"/><path d="M221.559 301.198v1.707h.155v-1.707c-.155.156-.155 0-.155 0z" fill="#0387A8"/><path d="M221.714 301.354v1.707h.156l-.156-1.707z" fill="#0383A3"/><path d="M221.87 301.354v1.707h.156l-.156-1.707z" fill="#037E9E"/><path d="M222.026 301.198v1.707h.155l-.155-1.707z" fill="#037A99"/><path d="M222.026 301.198v1.707h.155l-.155-1.707c.155 0 .155 0 0 0z" fill="#037694"/><path d="M222.181 301.198v1.707h.156v-1.707h-.156z" fill="#03728F"/><path d="M222.337 301.198v1.707h.155v-1.707h-.155z" fill="#036E8A"/><path d="M222.648 301.198v1.707c.156 0 .156 0 .156-.155v-1.707s-.156 0-.156.155z" fill="#036A85"/><path d="M213.779 295.767c-.622.311-.622.931 0 1.242l6.846 4.034c.623.311 1.556.311 2.179 0l47.921-27.621c.622-.311.622-.931 0-1.242l-6.846-4.034c-.622-.311-1.556-.311-2.178 0l-47.922 27.621z" fill="url(#paint14_linear)"/><path d="M185.773 296.854v1.707l.156.155-.156-1.862z" fill="#038BAD"/><path d="M185.773 296.854v1.707l.156.155v-1.707s0-.155-.156-.155z" fill="#038FB3"/><path d="M202.11 297.009v1.707c.311-.155.467-.466.467-.621v-1.707c0 .31-.156.466-.467.621z" fill="#036A85"/><path d="M186.085 297.009v1.707l6.846 4.034v-1.707l-6.846-4.034z" fill="#049DC5"/><path d="M195.109 301.043v1.707l7.001-4.034v-1.707l-7.001 4.034z" fill="#036D89"/><path d="M192.931 301.043v1.707c.155 0 .155.156.311.156v-1.707s-.156-.156-.311-.156z" fill="#0493B8"/><path d="M193.242 301.198v1.707h.311v-1.707h-.311z" fill="#038FB3"/><path d="M193.553 301.198v1.707h.155v-1.707h-.155z" fill="#038BAD"/><path d="M193.708 301.198v1.707h.156v-1.707c0 .156 0 .156-.156 0z" fill="#0387A8"/><path d="M194.02 301.354v1.707h.155v-1.707h-.155z" fill="#0383A3"/><path d="M194.175 301.354v1.707h.156l-.156-1.707z" fill="#037E9E"/><path d="M194.331 301.198v1.707h.155l-.155-1.707z" fill="#037A99"/><path d="M194.331 301.198v1.707h.155l-.155-1.707c.155 0 .155 0 0 0z" fill="#037694"/><path d="M194.486 301.198v1.707h.156v-1.707h-.156z" fill="#03728F"/><path d="M194.642 301.198v1.707h.156v-1.707h-.156z" fill="#036E8A"/><path d="M194.953 301.199v1.707s.156 0 .156-.156v-1.707s-.156 0-.156.156z" fill="#036A85"/><path d="M186.085 295.767c-.623.311-.623.931 0 1.242l6.846 4.034c.622.311 1.555.311 2.178 0l7.001-4.034c.623-.311.623-.931 0-1.242l-6.846-4.034c-.622-.311-1.556-.311-2.178 0l-7.001 4.034z" fill="url(#paint15_linear)"/><path d="M199.621 304.612v1.862-1.862c.155.155 0 .155 0 0z" fill="#037E9E"/><path d="M199.776 304.923v1.707l.156.155-.156-1.862c.156 0 0 0 0 0z" fill="#038BAD"/><path d="M199.932 305.078v1.707l.156.155v-1.707c0-.155-.156-.155-.156-.155z" fill="#038FB3"/><path d="M216.113 305.233v1.707c.311-.155.467-.466.467-.621v-1.707c0 .155-.156.466-.467.621z" fill="#036A85"/><path d="M200.088 305.233v1.707l7.001 4.034v-1.862l-7.001-3.879z" fill="#049DC5"/><path d="M209.112 309.112v1.862l7.001-4.034v-1.707l-7.001 3.879z" fill="#036D89"/><path d="M207.089 309.112v1.707c.156 0 .156.156.311.156v-1.707c-.155 0-.311 0-.311-.156z" fill="#0493B8"/><path d="M207.4 309.268v1.707h.311v-1.707c-.155.155-.311.155-.311 0z" fill="#038FB3"/><path d="M207.711 309.423v1.707h.156v-1.707h-.156z" fill="#038BAD"/><path d="M207.867 309.423v1.707h.156v-1.707h-.156z" fill="#0387A8"/><path d="M208.023 309.423v1.707h.155v-1.707h-.155z" fill="#0383A3"/><path d="M208.178 309.423v1.707h.156l-.156-1.707c.156 0 0 0 0 0z" fill="#037E9E"/><path d="M208.334 309.423v1.707h.155l-.155-1.707z" fill="#037A99"/><path d="M208.489 309.423v1.707h.156l-.156-1.707z" fill="#037694"/><path d="M208.645 309.423v1.707h.156v-1.707h-.156z" fill="#03728F"/><path d="M208.801 309.268v1.707h.155v-1.707h-.155z" fill="#036E8A"/><path d="M208.956 309.268v1.707s.156 0 .156-.156v-1.707c0 .156-.156.156-.156.156z" fill="#036A85"/><path d="M200.088 303.992c-.623.31-.623.931 0 1.241l6.846 4.035c.622.31 1.555.31 2.178 0l7.001-4.035c.623-.31.623-.931 0-1.241l-6.846-4.035c-.622-.31-1.556-.31-2.178 0l-7.001 4.035z" fill="url(#paint16_linear)"/><path d="M158.701 296.854v1.862-1.862c.155 0 0 0 0 0z" fill="#0387A8"/><path d="M158.857 296.854v1.706l.155.156-.155-1.862c0 .155 0 .155 0 0z" fill="#038BAD"/><path d="M158.857 297.009v1.707l.155.155v-1.707s0-.155-.155-.155z" fill="#038FB3"/><path d="M159.012 297.164l.156 1.707v-1.707h-.156z" fill="#0493B8"/><path d="M197.131 310.043v1.707c.312-.155.467-.465.467-.62v-1.707c0 .155-.155.31-.467.62z" fill="#036A85"/><path d="M159.168 297.164v1.707l28.939 16.914v-1.862l-28.939-16.759z" fill="#049DC5"/><path d="M190.286 313.923v1.862l6.845-4.035v-1.707l-6.845 3.88z" fill="#036D89"/><path d="M188.107 313.923v1.707c.156 0 .156.155.311.155v-1.707c-.155 0-.155 0-.311-.155z" fill="#0493B8"/><path d="M188.418 314.078v1.707h.312v-1.707c-.156.155-.156 0-.312 0z" fill="#038FB3"/><path d="M188.73 314.233v1.707h.155v-1.707h-.155z" fill="#038BAD"/><path d="M188.885 314.233v1.707h.156v-1.707h-.156z" fill="#0387A8"/><path d="M189.041 314.233v1.707h.155v-1.707h-.155z" fill="#0383A3"/><path d="M189.196 314.233v1.707h.156l-.156-1.707c.156 0 .156 0 0 0z" fill="#037E9E"/><path d="M189.352 314.233v1.707h.156l-.156-1.707c.156 0 .156 0 0 0z" fill="#037A99"/><path d="M189.508 314.233v1.707h.155l-.155-1.707c.155 0 .155 0 0 0z" fill="#037694"/><path d="M189.663 314.233v1.707h.156v-1.707h-.156z" fill="#03728F"/><path d="M189.819 314.078v1.707h.155v-1.707h-.155z" fill="#036E8A"/><path d="M189.974 314.078v1.707s.156 0 .156-.155v-1.707c0 .155 0 .155-.156.155z" fill="#036A85"/><path d="M159.168 295.922c-.623.311-.623.931 0 1.242l28.939 16.759c.623.31 1.556.31 2.178 0l7.002-4.035c.622-.31.622-.931 0-1.241l-28.94-16.759c-.622-.311-1.555-.311-2.178 0l-7.001 4.034z" fill="url(#paint17_linear)"/><path d="M446.074 513.946s0 .155 0 0l-.467.931s0 .155-.155.155c-.156.31-.467.466-.778.776-.156.155-.467.31-.623.466-.155.155-.311.31-.622.465L309 594.638c-.467.31-1.089.621-1.711.776-.156 0-.467.155-.623.155-.311.155-.622.155-.933.155-.312 0-.778.155-1.089.155h-.312c-.466 0-.933.156-1.556.156h-.311c-.467 0-.933 0-1.556-.156h-.155c-.467 0-.934-.155-1.401-.31h-.311c-.466-.155-.778-.31-1.244-.31h-.156c-.467-.156-.934-.466-1.4-.621L59.746 458.548c-1.711-1.087-2.645-2.328-2.645-3.725v4.966c0 1.397.934 2.638 2.645 3.724l236.496 136.091c.466.31.778.465 1.244.62h.156c.311.155.467.155.778.311.156 0 .311 0 .467.155h.622c.311 0 .622.155.934.155h4.201c.311 0 .466 0 .777-.155.156 0 .156 0 .312-.155.311 0 .622-.156.933-.156.156 0 .311 0 .467-.155 0 0 .156 0 .156-.155a5.742 5.742 0 001.711-.776l134.429-77.899h.156c.155-.155.311-.155.466-.31.156-.155.467-.31.623-.466l.622-.62s0-.155.156-.155c0 0 0-.156.155-.156 0-.155.156-.155.156-.31.155-.155.155-.31.311-.465v-.311c0-.155 0-.155.156-.31v-5.587c0 .621 0 .932-.156 1.242z" fill="#58AFFB"/><path d="M443.585 509.291c3.578 2.017 3.578 5.276 0 7.448l-134.429 77.899c-3.579 2.017-9.18 2.017-12.759 0L59.902 458.548c-3.579-2.018-3.579-5.276 0-7.449L194.33 373.2c3.578-2.017 9.18-2.017 12.758 0l236.496 136.091z" fill="#1AE5FF"/><path d="M298.42 436.047c3.112 1.862 3.112 4.656 0 6.518l-118.715 68.743c-3.111 1.862-8.09 1.862-11.358 0l-92.42-53.381c-3.111-1.862-3.111-4.655 0-6.517l118.715-68.744c3.112-1.862 8.091-1.862 11.202 0l92.576 53.381z" fill="url(#paint18_linear)"/><path d="M179.705 511.463s-.778 2.948 5.29 6.673c6.068 3.724 114.514 66.881 114.514 66.881l115.136-71.381-5.29-5.276-110.002-58.502-97.865 54.002-21.783 7.603z" fill="#58AFFB"/><path d="M179.705 511.463s30.185-10.552 48.233 2.173c18.048 12.724 60.991 60.053 72.971 66.105l114.514-71.382s-52.745-52.604-78.261-63.001c-25.673-10.552-38.742-2.638-38.742-2.638l-118.715 68.743z" fill="url(#paint19_linear)"/><path d="M216.113 470.652c1.712.931 1.712 2.482 0 3.413-1.711.932-4.356.932-5.912 0l-71.727-41.277c-1.711-.931-1.711-2.482 0-3.413 1.712-.931 4.357-.931 5.913 0l71.726 41.277zm-51.5-16.76c1.712.931 1.712 2.483 0 3.414-1.711.931-4.356.931-5.912 0l-31.429-18c-1.712-.931-1.712-2.483 0-3.414 1.711-.931 4.356-.931 5.912 0l31.429 18zm59.747-5.12c1.711.931 1.555 2.482 0 3.414-1.712.931-4.357.931-5.913 0l-56.945-32.743c-1.712-.931-1.712-2.483 0-3.414 1.711-.931 4.356-.931 5.912 0l56.946 32.743zm-14.159-21.26c1.711.931 1.711 2.483 0 3.414-1.712.931-4.357.931-5.912 0l-31.429-18c-1.712-.931-1.712-2.483 0-3.414 1.711-.931 4.356-.931 5.912 0l31.429 18zm17.581 36.312c1.712.931 1.712 2.483 0 3.414-1.711.931-4.356.931-5.912 0l-71.726-41.277c-1.712-.931-1.712-2.483 0-3.414 1.711-.931 4.356-.931 5.912 0l71.726 41.277zm33.763-19.553c1.712.932 1.712 2.483 0 3.414-1.711.931-4.356.931-5.912 0l-71.727-41.277c-1.711-.931-1.711-2.482 0-3.414 1.712-.931 4.357-.931 5.913 0l71.726 41.277z" fill="#ECEFF1"/><path d="M529.314 200.489c-.155-.156-.155-.156-.311-.156h-1.867c-.156 0-.156 0-.311.156l-2.178 1.241c.155-.155.311-.155.466-.155h.623c.155 0 .466 0 .622.155.156 0 .467.155.622.31l60.525 34.76 2.178-1.241-60.369-35.07zm63.792 40.346v-2.328s0-.155-.156-.155c0 0 0-.155-.155-.155 0 0 0-.156-.156-.156 0-.155-.156-.31-.311-.31 0-.155-.156-.155-.156-.31l-.155-.155-.156-.156-.156-.155-.155-.155-.156-.155-.155-.155-.156-.156-.156-.155s-.155 0-.155-.155c0 0-.156 0-.156-.155 0 0-.155 0-.155-.155 0 0-.156 0-.156-.155l-2.178 1.241c.155.155.467.31.622.466.156.155.467.31.623.62.311.466.777.931 1.089 1.397.155.31.311.465.311.776.155.31.155.465.311.776.156.31.156.465.156.775v.776l-.156 41.122v.776c0 .155-.156.466-.156.621 0 .155-.155.31-.311.31 0 0 0 .155-.155.155l-.312.311 2.179-1.242c.155 0 .311-.155.311-.31l.156-.155.155-.155.156-.156v-42.828z" fill="#58AFFB"/><path d="M587.66 236.49c1.867 1.086 3.267 3.569 3.267 5.586l-.155 41.122c0 2.017-1.4 2.948-3.267 1.862L526.98 250.3c-1.867-1.086-3.267-3.569-3.267-5.586l.156-41.122c0-2.017 1.4-2.948 3.267-1.862l60.524 34.76z" fill="#1AE5FF"/><path d="M584.704 237.266c1.556.931 2.956 3.258 2.956 5.12l-.155 37.243c0 1.862-1.401 2.638-2.957 1.707l-54.611-31.501c-1.556-.931-2.957-3.259-2.957-5.121l.156-37.242c0-1.863 1.4-2.638 2.956-1.707l54.612 31.501z" fill="#fff"/><path d="M545.651 221.438v1.862c0 1.086-1.089 1.707-2.023 1.241l-8.557-4.81c-.467-.311-.622-.776-.622-1.242v-1.862c0-1.086 1.089-1.707 2.022-1.241l8.558 4.81c.311.155.622.621.622 1.242zm26.917 24.207v1.862c0 1.087-1.089 1.707-2.023 1.242l-35.318-20.173c-.467-.311-.623-.776-.623-1.242v-1.862c0-1.086 1.089-1.707 2.023-1.241l35.319 20.173c.311.31.622.776.622 1.241z" fill="#1CE5FF"/><path opacity=".53" d="M557.943 255.111v1.862c0 1.086-1.09 1.707-2.023 1.241l-20.849-11.948c-.467-.311-.622-.776-.622-1.242v-1.862c0-1.086 1.089-1.707 2.022-1.241l20.849 11.948c.467.311.623.776.623 1.242z" fill="#1CE5FF"/><path opacity=".3" d="M567.122 251.387v1.862c0 1.086-1.089 1.707-2.022 1.241l-29.873-17.069c-.467-.311-.623-.776-.623-1.242v-1.862c0-1.086 1.089-1.707 2.023-1.241l29.873 17.069c.311.311.622.776.622 1.242z" fill="#1CE5FF"/><path d="M366.257 89.692l-2.023 64.709-44.81-25.759.156-65.485 46.677 26.535z" fill="#689F38"/><path d="M309 71.847l11.514-6.517 45.743 26.07-8.402 11.017-47.766-10.397L309 71.847z" fill="#fff"/><path d="M351.32 97.917l-.155 65.64-46.21-26.691.311-65.484 46.054 26.535z" fill="#689F38"/><path d="M359.722 97.917c-.311.155-.467.31-.778.465 0 0-.155 0-.155.155-.156 0-.312.156-.623.156-.155 0-.467.155-.622.155-.311 0-.467.155-.778.155h-2.334c-.311 0-.622-.155-.934-.155h-.155c-.311 0-.622-.155-.778-.31h-.156l-.933-.466-.156 65.485c.311.155.623.31.778.465h.156c.155 0 .311.155.467.155h.622c.155 0 .311 0 .622.156h3.112c.156 0 .467-.156.622-.156.156 0 .156 0 .312-.155.155 0 .155 0 .311-.155 0 0 .155 0 .155-.155.311-.155.623-.311.778-.466l9.18-5.431s.156 0 .156-.155l.155-.155.156-.155.155-.156.312-.31.155-.155v-.155s0-.156.156-.156v-.775l.155-65.485v.776s0 .155-.155.155c0 0 0 .155-.156.155l-.155.155s0 .156-.156.156c0 .155-.156.155-.311.31l-.156.155-.155.155-.156.155-.156.156-.155.155" fill="#558B2F"/><path d="M368.902 87.83c2.334 1.397 2.334 3.57 0 4.81l-9.18 5.432c-2.334 1.397-6.068 1.397-8.402 0l-46.054-26.69 3.267-1.863 44.81 25.915c1.4.776 3.89.776 5.29 0l5.757-3.414c1.4-.776 1.4-2.172 0-3.103l-44.81-25.915 3.267-1.862 46.055 26.69zm-10.113 17.38l.155 49.502 7.78-4.501-.156-49.346-7.779 4.345z" fill="#9CCC65"/><path d="M361.122 111.262l-2.022 64.864-44.966-25.915.312-65.484 46.676 26.535z" fill="#5155D4"/><path d="M303.866 93.417l11.513-6.363 45.743 26.07-8.557 10.863-47.61-10.242-1.089-20.328z" fill="#fff"/><path d="M346.186 119.642l-.156 65.484-46.21-26.535.156-65.485 46.21 26.536z" fill="#7986CB"/><path d="M354.588 119.642c-.312.155-.467.31-.778.465 0 0-.156 0-.156.155-.156 0-.311.156-.622.156-.156 0-.467.155-.623.155-.311 0-.466.155-.778.155h-2.333c-.312 0-.623-.155-.934-.155h-.156c-.311 0-.622-.155-.777-.311h-.156l-.934-.465-.155 65.484c.311.156.622.311.778.466h.155c.156 0 .311.155.467.155h.622c.156 0 .312 0 .623.155h3.112c.155 0 .466-.155.622-.155.156 0 .156 0 .311-.155.156 0 .156 0 .311-.155 0 0 .156 0 .156-.155.311-.156.622-.311.778-.466l9.18-5.431s.155 0 .155-.155l.156-.155.155-.156.156-.155.311-.31.156-.155v-.155s0-.156.155-.156v-.776l.156-65.484v.776s0 .155-.156.155c0 0 0 .155-.155.155l-.156.155s0 .155-.155.155c0 .156-.156.156-.312.311l-.155.155-.156.155-.155.155-.156.155-.156.156" fill="#5155D4"/><path d="M363.767 109.4c2.334 1.397 2.334 3.569 0 4.81l-9.179 5.432c-2.334 1.396-6.068 1.396-8.402 0l-46.21-26.536 3.267-1.862 44.81 25.915c1.4.776 3.89.776 5.29 0l5.757-3.414c1.4-.776 1.4-2.173 0-3.104l-44.81-25.914 3.267-1.862 46.21 26.535z" fill="#00CFFF"/><path d="M353.654 126.935l.156 49.501 7.779-4.5-.155-49.501-7.78 4.5z" fill="#7986CB"/><path d="M319.424 113.279l-2.022 64.709-44.81-25.759.156-65.485 46.676 26.535z" fill="#D23060"/><path d="M262.323 95.434l11.514-6.362 45.587 25.914-8.401 11.018-47.611-10.397-1.089-20.173z" fill="#fff"/><path d="M304.643 121.659l-.311 65.485-46.054-26.691.156-65.484 46.209 26.69z" fill="#FF4174"/><path d="M312.89 121.659c-.311.155-.467.31-.778.466 0 0-.156 0-.156.155-.155 0-.311.155-.622.155-.156 0-.467.155-.623.155-.311 0-.466.155-.777.155H307.6c-.311 0-.623-.155-.934-.155h-.155c-.312 0-.623-.155-.778-.31h-.156l-.933-.466-.156 65.485c.311.155.622.31.778.465h.155c.156 0 .312.155.467.155h.623c.155 0 .311 0 .622.156h3.112c.155 0 .466-.156.622-.156.156 0 .156 0 .311-.155.156 0 .156 0 .311-.155 0 0 .156 0 .156-.155.311-.155.622-.31.778-.466l9.18-5.431s.155 0 .155-.155l.156-.155.155-.155.156-.155.311-.311.156-.155v-.155s0-.155.155-.155v-.776l.156-65.485v.776s0 .155-.156.155c0 0 0 .155-.155.155l-.156.156s0 .155-.155.155c0 .155-.156.155-.312.31l-.155.155-.156.155-.155.156-.156.155-.155.155" fill="#D23060"/><path d="M322.225 111.417c2.334 1.397 2.334 3.569 0 4.811l-9.18 5.431c-2.334 1.397-6.068 1.397-8.402 0l-46.209-26.535 3.267-1.862 44.81 25.759c1.4.776 3.889.776 5.29 0l5.756-3.414c1.401-.776 1.401-2.172 0-3.104l-44.809-25.914 3.267-1.862 46.21 26.69z" fill="#FF77B3"/><path d="M311.956 128.797l.156 49.502 7.779-4.501-.155-49.346-7.78 4.345z" fill="#FF4174"/><path opacity=".32" d="M75.305 541.102c20.194 0 36.564-10.352 36.564-23.122 0-12.769-16.37-23.121-36.564-23.121-20.193 0-36.563 10.352-36.563 23.121 0 12.77 16.37 23.122 36.563 23.122z" fill="url(#paint20_linear)"/><path d="M82.773 508.98s1.4 2.173 4.201 3.725c2.8 1.551 4.512 2.948 4.512 4.189 0 1.242-1.711 1.707-4.356 1.552-2.49-.155-4.045-2.948-5.757-3.724-1.711-.776-3.89-.931-4.512-1.707-.622-.931 0-4.5 0-4.5l5.912.465zm-18.67 6.518s.155 2.017 1.4 2.948c1.245.931 2.023 2.328 4.045 3.104 1.867.775 3.112 2.327 3.112 3.413 0 1.087-4.2 1.707-6.535.932-2.334-.932-4.823-4.19-5.912-4.656-1.09-.465-1.712-1.552-1.867-2.327-.156-.776.467-3.569.467-3.569l5.29.155z" fill="#113C7A"/><path d="M51.656 444.271s.778 10.397 2.022 17.38c1.245 6.828 3.112 52.45 4.512 54.312 1.556 1.862 3.735 1.552 5.757-.31 2.023-2.017 3.89-58.191 3.89-58.191l6.223-12.725-22.404-.466z" fill="#113C7A"/><path d="M80.75 439.151s2.957 56.019 2.646 69.053c0 3.88-5.913 4.501-7.469.621-1.555-3.879-7.779-58.657-7.157-65.795.778-7.138 11.047-9 11.98-3.879z" fill="#113C7A"/><path d="M60.835 391.201s-11.513 8.224-12.758 11.018c-1.09 2.793-1.4 10.396.934 15.517 2.333 5.121 1.555 23.898 2.333 27.467.934 3.724 10.736 4.81 16.96 3.569 6.068-1.242 13.536-5.587 13.38-12.725-.155-7.138-.155-20.483.312-23.587.466-3.258 0-11.328-1.556-16.759-.312-1.086-4.201-2.327-4.201-2.327s-4.046-2.794-15.404-2.173z" fill="#047CFF"/><path d="M70.793 389.649v.311c.156.776.622 2.948.622 3.879s-.933 2.328-3.267 2.328c-2.334 0-6.38-1.086-7.624-3.88.156-.465 0-5.586-.467-8.224l10.736 5.586z" fill="#FF7C40"/><path d="M76.705 372.89c-1.4-7.138-7.001-11.173-13.536-9.776 0 0-7.001.621-10.113 6.828-3.112 6.052 1.4 11.172 4.356 14.431 1.245 1.397 2.179 2.328 2.801 2.949.156.31.467.465.622.775 2.023 2.018 4.201 3.104 5.913 3.57 2.8.775 6.068.31 7.935-1.552 2.022-1.707 3.423-10.087 2.022-17.225z" fill="#FF9D6F"/><path d="M76.861 368.7s-.934 6.673-12.758 8.38c-.623-.155-1.712 0-1.712 0l.623 4.5-1.712.155s.467-2.638-1.711-2.948c-2.179-.155-.623 6.052 1.4 6.517l.156 2.794s-8.713-5.742-9.958-12.259c-1.4-6.518 2.49-8.69 2.49-8.69s1.088-4.035 7.779-6.518c6.534-2.172 15.559 4.035 15.403 8.069z" fill="#FF7A00"/><path d="M80.128 395.236s11.514 16.914 12.914 21.414l10.425-9.931s2.645-.466 4.512 2.948c1.711 3.259 0 4.5 0 4.5s-12.758 13.345-15.56 13.345c-2.955 0-14.624-17.69-14.624-18.466-.156-.776 2.333-13.81 2.333-13.81z" fill="#047CFF"/><path d="M106.89 406.874l1.244-1.397.623-5.431s1.245 0 1.556.776c.466.776.311 2.638.311 2.638s6.223-5.742 6.69-5.431c.467.31.311 1.396.311 1.396l-4.512 4.5s.934 3.104.623 4.19c-.312 1.086-1.401 1.862-2.179 2.173-.622.31-2.333-.311-2.333-.311l-1.868 1.242s-1.555-1.242-2.333-2.793l1.867-1.552z" fill="#FF9D6F"/><path d="M126.338 342.475c3.438 0 6.224-2.779 6.224-6.207s-2.786-6.207-6.224-6.207c-3.437 0-6.223 2.779-6.223 6.207s2.786 6.207 6.223 6.207zM473.302 539.55c3.437 0 6.224-2.779 6.224-6.207s-2.787-6.207-6.224-6.207c-3.437 0-6.223 2.779-6.223 6.207s2.786 6.207 6.223 6.207zm125.094-240.524c0 2.793-2.334 5.121-5.135 5.121-2.8 0-5.134-2.328-5.134-5.121 0-2.793 2.334-5.121 5.134-5.121 2.801 0 5.135 2.173 5.135 5.121zM331.405 40.501a3.108 3.108 0 003.112-3.103 3.108 3.108 0 00-3.112-3.104 3.108 3.108 0 00-3.112 3.104 3.108 3.108 0 003.112 3.103zM60.99 584.551a3.107 3.107 0 003.113-3.103 3.108 3.108 0 00-3.112-3.104 3.108 3.108 0 00-3.112 3.104 3.107 3.107 0 003.112 3.103z" fill="#B84FFF"/><path d="M38.43 134.694a3.108 3.108 0 003.112-3.104 3.107 3.107 0 00-3.111-3.103 3.107 3.107 0 00-3.112 3.103 3.108 3.108 0 003.111 3.104zm431.916 12.414c3.437 0 6.223-2.779 6.223-6.207s-2.786-6.207-6.223-6.207-6.224 2.779-6.224 6.207 2.787 6.207 6.224 6.207zM323.937 359.545c3.437 0 6.223-2.779 6.223-6.207s-2.786-6.207-6.223-6.207c-3.438 0-6.224 2.779-6.224 6.207s2.786 6.207 6.224 6.207zm66.125-286.922c0 2.017-1.556 3.569-3.579 3.569-2.022 0-3.578-1.552-3.578-3.57 0-2.016 1.556-3.568 3.578-3.568 1.867 0 3.579 1.552 3.579 3.569z" fill="#1AE5FF"/><path d="M7.313 272.335c0 2.018-1.556 3.57-3.579 3.57s-3.578-1.552-3.578-3.57c0-2.017 1.555-3.569 3.578-3.569 1.867-.155 3.579 1.552 3.579 3.569z" fill="url(#paint21_linear)"/><path d="M600.885 486.79a3.574 3.574 0 003.579-3.569 3.574 3.574 0 00-3.579-3.569 3.574 3.574 0 00-3.578 3.569 3.574 3.574 0 003.578 3.569z" fill="url(#paint22_linear)"/><path d="M130.695 199.402c0 2.018-1.556 3.569-3.579 3.569-2.022 0-3.578-1.551-3.578-3.569 0-2.017 1.556-3.569 3.578-3.569 2.023-.155 3.579 1.552 3.579 3.569z" fill="url(#paint23_linear)"/><path d="M84.796 56.484l.156 64.554c0 2.638 2.8 4.19 4.978 2.948l92.109-53.07a3.326 3.326 0 001.712-2.948l-.156-64.71c0-2.637-2.8-4.189-4.979-2.948L86.508 53.536a3.325 3.325 0 00-1.712 2.948z" fill="#8AE6FF"/><path d="M98.644 62.847l.155 64.553c0 2.638 2.801 4.19 4.979 2.949l92.264-53.226a3.326 3.326 0 001.712-2.948l-.156-64.554c0-2.638-2.8-4.19-4.979-2.948l-92.264 53.225a3.325 3.325 0 00-1.712 2.949z" fill="#1AB8FF"/><path d="M160.879 44.846v17.535c0 .62.778 1.086 1.4.776l24.895-14.431a.853.853 0 00.466-.776V30.415c0-.621-.777-1.087-1.4-.776L161.346 44.07a.854.854 0 00-.467.776zm0 23.122v3.258c0 .621.778 1.087 1.4.776l24.895-14.431a.853.853 0 00.466-.776v-3.259c0-.62-.777-1.086-1.4-.776l-24.894 14.432a.853.853 0 00-.467.776zm0 9.621v3.258c0 .621.778 1.087 1.4.776l24.895-14.431a.852.852 0 00.466-.776v-3.259c0-.62-.777-1.086-1.4-.776l-24.894 14.432a.854.854 0 00-.467.776z" fill="#8AE6FF"/><path d="M126.961 69.83l9.335 18.31-4.979 2.949-1.867-4.035-9.646 5.587-1.867 6.051-4.824 2.794 9.18-29.018 4.668-2.638zm-5.601 17.69l6.534-3.724-3.267-7.139-3.267 10.863zm24.738-24.518v5.741l5.135-2.948v4.035l-5.135 2.948v5.742l-3.734 2.172-.156-5.741-4.978 2.948v-4.035l4.978-2.948v-5.742l3.89-2.172z" fill="#fff"/><path d="M260.301 59.433c.155 0 .155-.155.311-.155.155 0 .311-.155.467-.155.155 0 .311-.156.466-.156.156 0 .311-.155.467-.155.156 0 .311-.155.467-.155.155 0 .155 0 .311-.155.156 0 .311-.155.467-.155.155 0 .311 0 .467-.156h1.867c.155 0 .311 0 .622.156.156 0 .467.155.622.155.312.155.623.155.778.31l6.535 3.88c-.467-.31-.933-.466-1.4-.621-.467-.155-1.089-.155-1.712-.155-.622 0-1.244.155-1.867.465-.622.155-1.245.466-2.022.931L83.863 168.833l-6.535-3.88L260.3 59.433zM67.059 181.557v-1.862c0-.155 0-.31.156-.466 0-.155 0-.31.155-.465 0-.155.156-.31.156-.466 0-.155.155-.31.155-.465 0-.155.156-.311.156-.466v-.155c0-.155.155-.31.155-.465 0-.156.156-.311.156-.466 0-.155.156-.31.156-.465 0-.156.155-.311.155-.466 0-.155.156-.31.156-.31v-.156c0-.155.155-.31.155-.465.156-.155.156-.31.312-.466.155-.155.155-.465.31-.62.156-.156.156-.466.312-.621v-.31c.311-.466.467-.776.778-1.242.156-.31.467-.621.622-.931.156-.155.311-.31.467-.621.156-.155.311-.31.311-.465.156-.155.311-.31.311-.466.156-.155.311-.31.311-.465l.156-.155.311-.311.467-.465.467-.466c.155-.155.311-.31.467-.31l.155-.155.156-.155c.155-.156.311-.156.466-.311.156-.155.312-.155.467-.31.156-.155.311-.155.467-.311.156-.155.311-.155.467-.31h.155l6.535 3.88c-.622.465-1.4.775-2.022 1.396-.623.466-1.245 1.086-1.868 1.707-1.244 1.241-2.178 2.638-3.111 4.19v.155c-.467.776-.778 1.552-1.09 2.328-.31.776-.622 1.551-.933 2.483-.311.775-.467 1.706-.622 2.482-.156.776-.156 1.552-.156 2.328l.311 124.917c0 .776 0 1.552.156 2.173.155.621.311 1.241.622 1.707.156.465.467.776.778 1.086.156.155.156.31.311.31.311.311.623.621 1.09.931l-6.535-3.879c-.467-.155-.778-.465-1.09-.931l-.31-.31c-.156-.156-.312-.311-.312-.466-.155-.155-.311-.465-.311-.621 0-.155-.156-.31-.156-.465 0-.155-.155-.31-.155-.466 0-.155-.156-.31-.156-.465v-2.173l-.31-124.917c-.312-.466-.312-.621-.312-.776z" fill="#58AFFB"/><path d="M83.551 168.833c-5.445 3.103-9.957 10.707-9.802 17.069l.311 124.917c0 6.207 4.513 8.845 9.958 5.587l183.284-105.521c5.446-3.103 9.958-10.707 9.802-17.069l-.311-124.917c0-6.208-4.512-8.846-9.958-5.587L83.551 168.833z" fill="#7986CB"/><path d="M92.42 170.85c-4.979 2.793-8.869 9.776-8.869 15.362l.311 112.814c0 5.586 4.046 7.914 9.025 5.121l165.547-95.279c4.978-2.793 8.868-9.776 8.868-15.362l-.311-112.814c0-5.586-4.045-7.914-9.024-5.12L92.42 170.85z" fill="#fff"/><path d="M121.671 185.281v2.017c0 1.242 1.244 1.863 2.334 1.397l9.646-5.431c.467-.31.778-.776.778-1.397v-2.017c0-1.241-1.245-1.862-2.334-1.397l-9.646 5.432c-.467.31-.778.775-.778 1.396zM91.33 212.592v2.018c0 1.241 1.246 1.862 2.335 1.396l39.986-22.811c.467-.31.778-.776.778-1.396v-2.018c0-1.241-1.245-1.862-2.334-1.396l-39.986 22.811c-.467.31-.778.931-.778 1.396z" fill="#1CE5FF"/><path opacity=".53" d="M107.823 223.3v2.017c0 1.241 1.245 1.862 2.334 1.396l23.494-13.345c.467-.31.778-.776.778-1.396v-2.018c0-1.241-1.245-1.862-2.334-1.396l-23.494 13.345c-.467.31-.778.931-.778 1.397z" fill="#1CE5FF"/><path opacity=".3" d="M97.554 219.11v2.017c0 1.241 1.245 1.862 2.334 1.397l33.763-19.242c.467-.311.778-.776.778-1.397v-2.017c0-1.242-1.245-1.862-2.334-1.397l-33.763 19.242c-.466.311-.778.931-.778 1.397z" fill="#1CE5FF"/><path d="M121.671 231.524v2.017c0 1.242 1.244 1.862 2.334 1.397l9.646-5.431c.467-.311.778-.776.778-1.397v-2.017c0-1.242-1.245-1.862-2.334-1.397l-9.646 5.431c-.467.311-.778.776-.778 1.397z" fill="#1CE5FF"/><path d="M91.33 258.835v2.017c0 1.242 1.246 1.862 2.335 1.397l39.986-22.811c.467-.31.778-.776.778-1.397v-2.017c0-1.241-1.245-1.862-2.334-1.397l-39.986 22.811c-.467.311-.778.776-.778 1.397z" fill="url(#paint24_linear)"/><path opacity=".53" d="M107.823 269.542v2.018c0 1.241 1.245 1.862 2.334 1.396l23.494-13.345c.467-.31.778-.776.778-1.397v-2.017c0-1.241-1.245-1.862-2.334-1.396l-23.494 13.345c-.467.31-.778.931-.778 1.396z" fill="#1CE5FF"/><path d="M97.554 265.353v2.017c0 1.241 1.245 1.862 2.334 1.396l33.763-19.242c.467-.31.778-.775.778-1.396v-2.017c0-1.242-1.245-1.863-2.334-1.397l-33.763 19.242c-.466.31-.778.776-.778 1.397z" fill="url(#paint25_linear)"/><path d="M242.719 134.694l5.134-5.432 5.135-.465-.156-11.638-.466.62-.623.621-.467.466-.622.465-.622.466-.623.465-.622.466-.622.31-.312.155-.466.311-.311.155-.312.155-.466.155-.312.155h-.311l-.311.156-.467.155h-.311l-.311.155h-.622l-.312.155h-.622v11.949z" fill="url(#paint26_linear)"/><path d="M252.832 117.159c-1.4 1.551-3.111 2.793-4.667 3.879-2.023 1.086-3.89 1.707-5.446 1.707v12.104l5.134-5.431 5.135-.311-.156-11.948z" fill="url(#paint27_linear)"/><path d="M248.165 97.917c-4.512 2.638-8.247 9-8.247 14.276 0 2.793 1.09 4.81 2.801 5.431 1.4.621 3.423.466 5.446-.776 1.711-1.086 3.423-2.638 4.667-4.345 2.179-2.948 3.579-6.672 3.579-9.776 0-5.276-3.734-7.448-8.246-4.81z" fill="#F2F8FD"/><path d="M236.184 114.21v.155h4.201l.156-.155.155-.155.156-.155.156-.155.155-.155.156-.156.155-.155.156-.155v-1.241l.155-.156 11.825 4.656.156-.155.155-.156.156-.155.156-.155.155-.155.156-.155v-1.397c0-.465-.156-.931-.156-1.241-.155-.466-.155-.776-.311-1.087-.156-.31-.311-.775-.467-1.086l-.467-.931c-.155-.31-.311-.465-.622-.776-.155-.31-.467-.465-.622-.62-.311-.156-.467-.311-.778-.466-.311-.155-.623-.31-.778-.466l-.934-.31-.933-.155h-1.089c-.778 0-1.401.155-2.179.465-.311.156-.777.311-1.244.466-.467.155-.778.466-1.245.621-.778.465-1.556 1.086-2.334 1.707l-1.089.931-1.089 1.086c-.311.31-.778.776-1.089 1.241-.311.466-.623.776-.934 1.242-.311.465-.622.931-.933 1.241-.311.466-.623.931-.778 1.397-.311.465-.467.931-.778 1.396-.311.466-.467.931-.623 1.397-1.089 2.483-1.711 4.966-2.022 7.448 5.134-14.276 5.134-13.81 5.134-13.345zm3.734-1.086v-2.017c0-.311 0-.621.156-1.086 0-.311.156-.621.156-1.087.155-.31.155-.62.311-1.086.155-.31.155-.621.311-1.086.156-.311.311-.621.467-1.086l.466-.932.467-.931c.156-.31.311-.62.623-.931.155-.31.466-.62.622-.931.156-.31.467-.62.622-.931.311-.31.467-.62.778-.776l.778-.775.778-.621.778-.62c.311-.156.622-.311.778-.466l.778-.466.778-.31c.311-.156.467-.156.778-.156s.467-.155.778-.155h.778c.311 0 .467 0 .622.156l.622.155.623.31c.155.155.311.155.467.31l.466.466c.156.155.312.31.467.62.156.156.311.466.311.621l.311.776.156.776c0 .31.156.621.156.931v2.173c0 .465-.156.775-.156 1.241-.156.466-.155.776-.311 1.241-.156.466-.311.776-.467 1.242-.155.465-.311.776-.467 1.241l-.622 1.242-.622 1.241c-.312.466-.467.776-.778 1.086-.311.466-.623.931-1.089 1.397-1.09 1.241-2.334 2.328-3.735 3.103-2.022 1.242-4.045 1.397-5.445.776-.156-.155-.467-.155-.623-.31a2.157 2.157 0 00-.622-.466c-.155-.155-.311-.31-.467-.62-.155-.155-.311-.466-.466-.621-.156-.155-.156-.465-.312-.776-.155-.31-.155-.621-.311-.776.311-.465.311-.776.311-1.086z" fill="#1AE5FF"/><path d="M539.739 333.786s-.312 5.276.155 6.982c.467 1.863 3.268 2.173 4.823 1.552 1.556-.62 2.645-2.793 3.735-3.569 1.089-.776 5.601-3.724 6.068-5.741.311-2.018-3.735-1.707-6.224-.776-2.489.931-5.29 1.552-5.29 1.552h-3.267zm32.985-8.845s2.022 4.81 3.267 6.207c1.245 1.396 3.89.465 4.979-.621 1.089-1.241 1.089-3.569 1.711-4.811.623-1.086 3.423-5.741 2.956-7.758-.622-1.863-4.045.155-5.912 2.017-1.867 1.862-4.045 3.569-4.045 3.569l-2.956 1.397z" fill="#FF4174"/><path d="M517.645 308.492s18.982-8.535 25.205-8.845c5.29 0 2.179 34.294 1.556 35.846-.622.62-3.111 3.103-4.978.62-.934-3.414-1.868-20.793-2.801-22.035-.934-1.241-8.558 7.293-15.715 7.293-6.846 0-6.223-7.293-3.267-12.879z" fill="#5C6BC0"/><path d="M503.486 312.216s-3.423 10.086 5.602 15.983c8.868 5.897 22.093 2.483 28.628-1.862 6.379-4.345 7.624-6.983 7.624-6.983s.311-7.293-8.869-11.328c-9.18-4.034-15.714-2.172-15.714-2.172l-17.271 6.362z" fill="#5C6BC0"/><path d="M529.781 271.715c-3.579-5.742-11.358-7.449-11.358-7.449-9.647-2.017-12.603 1.552-12.603 1.552s-3.112 3.724-3.112 8.535c0 3.414 3.579 13.19 3.89 20.949-.155 5.431-3.423 14.276-3.578 15.673-.312 2.638 8.868 10.396 25.516 6.207 1.867-1.087 2.645-2.328 2.645-2.328l.156-20.018c0-1.086.155-2.328.155-3.569.778-13.19-1.711-19.552-1.711-19.552z" fill="#58AFFB"/><path d="M505.82 265.818s-7.001 4.035-8.09 22.19c.933 3.414 6.223 5.121 10.269 2.483 4.2-2.638 0-21.569-2.179-24.673z" fill="#58AFFB"/><path d="M510.955 257.283s.778 4.811 0 6.983c-.156 1.087 4.667 4.811 9.024 3.88 2.489-.621 2.334-1.862 2.334-1.862s-2.023-3.414-1.867-6.673c.311-3.259-6.535-2.948-9.491-2.328z" fill="#FF7C40"/><path d="M527.136 247.662c0 6.207-5.135 11.328-11.358 11.328-6.224 0-11.358-5.121-11.358-11.328 0-6.207 5.134-11.328 11.358-11.328 6.223 0 11.358 4.966 11.358 11.328z" fill="#FF9D6F"/><path d="M527.136 248.438s.311 10.707-2.178 13.035c-2.49 2.328-6.535-1.552-12.603-2.948-6.068-1.552 4.979-13.345 4.979-13.345l9.802 3.258z" fill="#FF9D6F"/><path d="M524.491 266.594l-2.956-1.707s-7.624-.776-10.269-2.483l-1.4 2.018s1.867 3.724 6.69 4.189c4.823.466 7.157-1.396 7.157-1.396l.778-.621z" fill="#fff"/><path d="M526.669 268.301s4.979 2.172 7.624 6.207c2.801 4.035 5.601 15.983 7.001 16.914 1.556.931 7.002 3.414 6.691 6.673-.311 3.414-4.357 5.586-9.802 3.414-5.602-2.173-12.292-7.914-14.47-10.397-2.023-2.483 2.956-22.811 2.956-22.811z" fill="#58AFFB"/><path d="M535.849 312.837s15.092-4.966 18.515-5.276c3.423-.311 21.471 13.81 23.961 17.224 1.556 1.862-.934 5.587-2.801 5.276-1.867-.31-21.471-12.259-23.027-12.569-1.556-.31-11.669 11.018-17.582 12.569-5.912 1.397-6.846-8.69.934-17.224z" fill="#5C6BC0"/><path d="M518.734 234.628s9.18 1.551 9.647 9.931c-.156 6.362-5.602 7.759-6.224 8.535-.622.62-2.334-2.328-3.89.62-1.556 2.949.623 3.725 1.556 4.811.467 1.086-1.4 2.483-3.267 2.793-1.867.155-2.49 2.328-5.446 1.086-3.112-1.086-3.423-4.345-5.757-7.603-2.333-3.259-3.267-9.932-.622-14.742 2.49-4.656 11.047-5.742 14.003-5.431z" fill="#FF7A00"/><path d="M510.177 261.628s-.156-.155-2.49 4.811c-2.334 5.121-3.423 7.603-.933 13.345 2.489 5.742 3.267 8.535 3.267 8.535s4.201-3.414 2.956-11.018c-1.089-7.603-2.645-10.862-2.022-12.879.622-2.173 2.022-2.794-.778-2.794z" fill="#FF7A00"/><path d="M13.536 353.648c-2.49 1.397-4.512 4.966-4.512 7.759v9c0 2.794 2.023 4.035 4.512 2.483l42.165-24.207 2.023 3.413 2.022-5.741 4.668-2.793c2.49-1.397 4.512-4.811 4.512-7.759v-9c0-2.793-2.023-4.035-4.512-2.638l-50.878 29.483z" fill="#58AFFB"/><path d="M188.885 459.013s.934-2.948 1.245-3.879c.311-1.086 2.801-3.414 3.734-3.414 1.089 0-.622 2.793-.622 2.793s3.267-2.638 4.201-1.552c.933 1.087-1.245 4.811-2.179 5.587-1.089.931-2.333 2.638-2.333 2.638l-4.046-2.173z" fill="#FF9D6F"/><path d="M137.541 441.013s-10.269 14.586-10.269 25.138c0 10.708 14.47 6.518 14.47 6.518s5.134-14.121 3.111-21.57c-2.178-7.448-7.312-10.086-7.312-10.086zm27.228 52.605s-.467 53.536-1.089 68.433c0 0 3.578-1.552 5.601 1.086s-9.335 5.586-11.358 5.121c-1.089-.466-3.579-57.105-6.69-61.295-3.579-3.569-5.135 1.086-5.135 1.086l-1.089 45.312s4.201-1.086 5.135 2.017c1.089 3.104-7.78 5.121-10.269 4.19-1.556-5.121-5.602-61.295-4.668-69.519 1.089-8.38 29.562 3.569 29.562 3.569z" fill="#113C7A"/><path opacity=".32" d="M153.411 582.689c21.224 0 38.43-10.213 38.43-22.811s-17.206-22.811-38.43-22.811c-21.225 0-38.431 10.213-38.431 22.811s17.206 22.811 38.431 22.811z" fill="url(#paint28_linear)"/><path d="M166.48 494.238c-.778 3.88-11.824 5.897-18.359 4.811-6.535-1.086-13.536-4.19-13.225-11.794 0 0-.934-29.949-.934-35.845 0-5.897 3.734-10.242 3.734-10.242s3.579-4.19 15.093-1.862c0 0 9.335 2.017 13.536 8.845 0 0 2.956 7.604 2.022 23.276-1.089 15.828-1.867 22.811-1.867 22.811z" fill="#58AFFB"/><path d="M143.764 430.926s.934 5.742 0 8.38c-.155 1.241 5.602 5.741 10.736 4.655 2.956-.621 2.801-2.172 2.801-2.172s-2.49-4.035-2.179-8.07c.312-3.879-7.935-3.569-11.358-2.793z" fill="#FF7C40"/><path d="M162.902 419.288c0 7.448-6.068 13.5-13.536 13.5-7.469 0-13.537-6.052-13.537-13.5s6.068-13.5 13.537-13.5c7.468 0 13.536 6.052 13.536 13.5z" fill="#FF9D6F"/><path d="M162.902 420.219s.155 13.5-2.801 16.294c-2.956 2.793-7.468-2.638-14.781-4.19-7.312-1.862 5.913-15.983 5.913-15.983l11.669 3.879z" fill="#FF9D6F"/><path d="M162.124 406.874s4.668 5.741 1.245 9.155c-3.423 3.414-12.759.621-12.759.621s2.645 3.879 2.645 6.052c0 2.172 1.089 5.897 1.089 5.897l-1.867.31s0-5.121-2.022-5.121c-2.023 0-1.712 5.121-.156 6.518 1.556 1.396 2.023 1.706 2.023 1.706l-2.801 3.414s-3.423.466-6.068-.931c0 0-4.823-4.189-7.157-8.534-2.334-4.345-3.112-10.397-.156-13.811 0 0 .623-4.035 3.268-5.742 2.645-1.707 11.202-4.034 16.648-.62 4.512 2.948 5.29 2.172 6.068 1.086zm4.045 41.277s-5.29-.776-4.667 8.224c.622 9.001 9.957 24.673 15.558 24.363 5.446-.31 16.804-14.742 16.182-20.638-1.089-3.104-5.135-2.794-6.224-1.087-1.089 1.707-6.535 9.932-7.935 11.018 0 0-6.223-9-7.624-13.035-1.245-4.035-3.423-8.069-5.29-8.845zm205.533-193.506s.467 53.536 1.09 68.433c0 0-3.579-1.551-5.602 1.087-2.022 2.638 9.336 5.586 11.358 5.12 1.089-.465 3.579-57.105 6.691-61.294 3.578-3.57 5.134 1.086 5.134 1.086l1.089 45.311s-4.201-1.086-5.134 2.018c-1.089 3.103 7.779 5.121 10.269 4.189 1.556-5.12 5.601-61.294 4.667-69.519-1.089-8.379-29.562 3.569-29.562 3.569z" fill="#113C7A"/><path opacity=".32" d="M383.06 343.717c21.225 0 38.431-10.213 38.431-22.811s-17.206-22.811-38.431-22.811c-21.224 0-38.43 10.213-38.43 22.811s17.206 22.811 38.43 22.811z" fill="url(#paint29_linear)"/><path d="M369.991 255.266c.778 3.879 11.825 5.897 18.359 4.811 6.535-1.087 13.537-4.19 13.226-11.794 0 0 .933-29.949.933-35.846 0-5.897-3.734-10.241-3.734-10.241s-3.579-4.19-15.092-1.863c0 0-9.336 2.018-13.537 8.845 0 0-2.956 7.604-2.022 23.277.933 15.673 1.867 22.811 1.867 22.811z" fill="#7986CB"/><path d="M392.707 191.954s-.934 5.741 0 8.379c.156 1.242-5.601 5.742-10.736 4.656-2.956-.621-2.8-2.173-2.8-2.173s2.489-4.034 2.178-8.069c-.311-3.879 7.935-3.569 11.358-2.793z" fill="#FF7C40"/><path d="M373.569 180.316c0 7.448 6.068 13.5 13.536 13.5 7.469 0 13.536-6.052 13.536-13.5 0-7.449-6.067-13.501-13.536-13.501-7.468 0-13.536 6.052-13.536 13.501z" fill="#FF9D6F"/><path d="M373.569 181.247s-.155 13.5 2.801 16.293c2.956 2.793 7.468-2.638 14.781-4.19 7.313-1.862-5.912-15.983-5.912-15.983l-11.67 3.88z" fill="#FF9D6F"/><path d="M48.077 402.063s-7.624 15.208-9.18 28.708c-1.556 13.501 17.115 27.156 17.115 27.156s4.823-4.19 3.579-7.293c-1.245-3.104-12.447-15.983-12.447-17.846 0-1.862 7.779-17.069 7.779-17.069s2.334-14.431-6.846-13.656z" fill="#047CFF"/><path opacity=".32" d="M276.482 414.633c17.615 0 31.896-8.476 31.896-18.932 0-10.456-14.281-18.931-31.896-18.931-17.616 0-31.896 8.475-31.896 18.931 0 10.456 14.28 18.932 31.896 18.932z" fill="url(#paint30_linear)"/><path d="M262.479 356.752s1.245 28.397 2.334 37.553c.778 2.327 3.423 2.327 4.356 1.241 1.089-1.086 1.556-36.467 1.089-38.794-.466-2.328-7.779 0-7.779 0z" fill="#FF9D6F"/><path d="M269.48 394.46s-2.333 1.086-4.512-.311c-.778-.155-5.601 0-7.468-.62-1.245.155-1.245 1.241.778 2.172 2.023 1.086 5.757 2.483 7.468 2.638 1.712.155 3.268.466 3.579-.776.311-1.241.311-2.793.155-3.103z" fill="#343996"/><path d="M281.15 346.355s1.244 28.397 2.333 37.553c.778 2.327 3.423 2.327 4.357 1.241.933-1.086 1.556-36.467 1.089-38.794-.467-2.328-7.779 0-7.779 0z" fill="#FF9D6F"/><path d="M288.151 384.063s-2.334 1.086-4.512-.311c-.778-.155-5.601 0-7.468-.62-1.245.155-1.245 1.241.778 2.172 2.022 1.086 5.912 2.483 7.468 2.638 1.711.155 3.267.466 3.578-.776.312-1.241.312-2.638.156-3.103zm-30.34-73.399s-4.356 15.208-3.89 30.725c.467 15.518-1.244 29.484 1.245 30.725 2.49 1.242 6.224 2.328 10.113 1.552 3.89-.776 8.247 2.328 21.005-1.552 12.758-3.879 14.47-14.431 16.026-17.535 1.556-3.103-3.89-7.759-7.469-14.742-3.578-6.982-7.468-24.828-12.914-32.276-5.445-7.449-24.116 3.103-24.116 3.103z" fill="#343996"/><path d="M256.722 279.318l-10.58-5.12s-3.112-3.104-4.045-3.88c-.778-.621-6.068-1.862-7.002-1.707-.933.155-2.645 1.552-2.178 1.862.467.311 4.979 2.638 5.134 3.725.156.931-1.556 2.172-.933 2.793.622.62 2.022-.621 2.956-.621.934 0 3.734 1.241 3.734 1.241l10.269 5.897 2.645-4.19z" fill="#FF9D6F"/><path d="M279.127 269.077s-2.023-2.173-5.135 2.017c-3.111 4.035-5.912 10.087-10.268 9.466-4.357-.466-11.67-4.035-11.67-4.035s-3.111 2.173-2.645 5.276c0 0 10.269 7.604 17.115 7.294 6.846-.311 14.314-7.449 15.87-12.415 1.712-4.965-3.267-7.603-3.267-7.603z" fill="#FF3D9D"/><path d="M257.967 313.768c.622 3.103 9.646 4.81 14.936 3.879 5.29-.776 11.047-3.414 10.736-9.621 0 0 .778-24.518.778-29.328 0-4.811-2.956-8.38-2.956-8.38s-2.956-3.414-12.292-1.552c0 0-7.624 1.707-11.047 7.294 0 0-2.334 6.207-1.556 18.931.778 13.035 1.401 18.777 1.401 18.777z" fill="#FF3D9D"/><path d="M276.482 262.249s-.778 4.655 0 6.828c.155 1.086-4.512 4.655-8.713 3.724-2.334-.465-2.334-1.707-2.334-1.707s2.023-3.414 1.712-6.517c-.156-3.259 6.534-3.104 9.335-2.328z" fill="#FF7C40"/><path d="M260.767 252.783c0 6.052 4.979 11.018 11.047 11.018 6.067 0 11.046-4.966 11.046-11.018 0-6.052-4.979-11.017-11.046-11.017-6.068 0-11.047 4.965-11.047 11.017z" fill="#FF9D6F"/><path d="M260.767 253.559s-.155 11.018 2.334 13.345c2.334 2.173 6.068-2.017 11.981-3.414 5.912-1.551-4.824-13.034-4.824-13.034l-9.491 3.103z" fill="#FF9D6F"/><path d="M265.124 243.473s-4.045.931-5.135 6.827c.467 2.638 4.201.466 5.602 4.035 1.4 3.414 2.178 4.5 2.178 4.5l.933-.31s0-2.793 1.245-2.793 1.556 3.258.934 4.655c-.623 1.396-2.179 2.017-2.179 2.017s1.712 2.949 2.645 3.259c.934.31 4.046-.31 5.135-.931 1.245-.466 3.423-2.949 5.134-5.742 1.712-2.793 3.268-7.603 2.178-10.862-1.089-3.259-3.422-4.19-3.422-4.19s-1.401-1.862-3.735-2.793c-2.645-.621-7.157-.931-11.513 2.328z" fill="#89543C"/><path d="M247.076 289.715s-15.404-6.827-17.582-8.069c-2.023-1.241-3.579-5.431-4.357-6.362-.777-.931-4.356-2.948-4.2-2.017.155.931 2.022 2.638 2.022 2.638s-1.245 2.172-1.556 3.569c-.311 1.396 1.712 4.345 2.801 5.12 1.089.776 3.578 1.087 3.578 1.087s12.603 8.379 14.626 8.534c2.023 0 4.979-1.241 4.668-4.5z" fill="#FF9D6F"/><path d="M260.923 275.594s-2.023-2.172-5.135 2.017c-3.111 4.035-5.912 10.087-10.268 9.466-4.357-.465-11.67-4.034-11.67-4.034s-3.111 2.172-2.645 5.276c0 0 10.269 7.603 17.115 7.293 6.846-.31 14.314-7.448 15.87-12.414 1.556-4.811-3.267-7.604-3.267-7.604z" fill="#FF3D9D"/><path d="M264.346 250.766s2.645 3.103 1.4 7.759c-1.4 4.5.467 4.5 2.334 10.397 1.867 5.896-3.423 12.724 1.556 21.259s18.671 7.448 24.739-1.086c6.068-8.535-3.423-14.587-3.735-22.191-.311-7.759 5.913-12.259-1.089-17.535-6.846-5.276-9.802-11.172-18.359-8.69-8.402 2.173-10.58 6.363-6.846 10.087z" fill="#89543C"/><path d="M176.438 207.627s1.4 2.172 2.023 2.483c.622.31 9.024 3.879 9.491 4.034l4.512-11.638.467-.466 4.667 6.518c.467-.776 8.869-13.966 9.491-15.052.467-.931 1.556-3.724 1.867-4.5 5.446 0 13.692-2.018 16.648-.311 3.423 2.018 4.823 12.57 4.979 14.742l-76.083 43.76c.156-2.328 1.556-14.587 4.979-20.483 3.112-5.121 11.669-12.725 16.959-19.087z" fill="#7986CB"/><path d="M178.772 204.523c1.089 0 8.091-.31 13.847-2.172l-.155.31-4.512 11.638c-.467-.155-9.025-3.724-9.491-4.034-.623-.311-1.867-2.328-1.867-2.483v-.155l2.178-3.104zm28.006-15.983l2.334.466v.155c-.311.776-1.401 3.569-1.867 4.5-.623.931-9.024 14.276-9.491 15.052l-4.668-6.517c5.446-4.501 11.825-11.639 13.381-13.346l.311-.31z" fill="#BEECF2"/><path d="M205.533 188.54c.311.155.623.155.934.31-1.556 1.707-7.935 8.845-13.381 13.346l-.467.465.156-.31c-5.757 1.862-12.758 2.172-13.692 2.172.311-.465.467-.776.778-1.086 2.023-3.259 2.956-7.604 3.267-11.173 1.867.466 4.046.466 5.913.311 1.089 0 2.178-.466 3.267-1.087 1.089-.62 2.178-1.551 3.268-2.638 2.178-2.327 4.823-5.431 6.69-8.224.155 3.414 1.089 6.983 3.267 7.914z" fill="#FF8654"/><path d="M191.686 133.918c4.356-2.483 8.713-2.793 10.58-1.086 2.334 2.172 3.267 2.172 3.267 2.172.156 0 4.512-.621 5.601 1.862 1.245 2.483.778 8.38 0 10.397-.778 2.017-.778 6.362-.778 6.673l-1.089 2.948-1.711 2.483c0 .155-1.245 1.707-2.334 2.327-.467.311-.778.311-1.089 0-.778-1.086-.622-4.034 0-7.603.622-3.414.778-7.604.311-8.069h-.155c-.156 0-.312.31-.467.775-.311.311-.623.776-1.089 1.087-.778.465-1.867.465-3.579-1.242 0 0-.311 0-.622.311-.623.465-1.712 1.241-2.645 3.103-1.401 2.949-1.401 8.845-5.446 14.432-2.645 3.724-6.379 6.207-8.557 7.448-1.245.621-1.867.931-1.867 1.086 0 .156-.467 3.259-2.801 4.501-.156.155-.311.155-.467.31l-2.178-.931s-.778-8.69-2.023-9.932c-1.244-1.396-.778-8.224 2.645-13.345s4.979-6.672 4.979-6.672c.156-.156 1.712-4.5 7.157-9.776 1.712-1.552 3.112-2.483 4.357-3.259z" fill="#843837"/><path d="M198.687 146.642c.467-.31.623-.31.623-.31 1.711 1.707 2.8 1.707 3.578 1.241.467-.31.778-.62 1.089-1.086.312-.31.467-.621.467-.776.467.466.311 4.5-.311 8.069-.622 3.414-.778 6.518 0 7.604.156.31.622.31 1.089 0 1.089-.621 2.178-2.172 2.334-2.328l1.711-2.327c.156-.155.156-.155.312-.155.311-.156.777-.311 1.089 0 2.022.931-1.867 12.103-3.423 13.034-.623.311-1.089.311-1.401.156-.466 2.793-1.089 5.431-1.711 7.293-.467.931-1.089 2.328-2.178 3.724-1.867 2.638-4.512 5.897-6.691 8.225-1.089 1.086-2.178 2.017-3.267 2.638-1.089.62-2.178.931-3.267 1.086-1.867.155-4.201 0-5.913-.311-1.244-.31-2.334-.775-2.8-1.396-.623-1.242-1.245-3.104-1.712-5.276a3.045 3.045 0 01-1.4 1.396c-1.556.931-5.446-5.896-3.423-9.155a2.393 2.393 0 011.089-1.086c.156 0 .156-.155.311-.155l2.178.931c.156 0 .312-.156.467-.311 2.334-1.396 2.801-4.345 2.801-4.5 0 0 .778-.31 1.867-1.086 2.178-1.242 5.912-3.724 8.557-7.449 4.046-5.741 4.046-11.483 5.446-14.431.778-1.862 1.867-2.793 2.489-3.259z" fill="#FF9D6F"/><path opacity=".32" d="M613.799 408.581l-143.92 81.468c-6.068 3.414-13.536 3.414-19.449-.155l-104.089-63.002c-5.601-3.259-5.445-11.328.156-14.432l144.853-81.933c5.446-3.104 12.292-3.104 17.738.155l104.867 63.467c5.601 3.104 5.445 11.173-.156 14.432z" fill="url(#paint31_linear)"/><path d="M597.151 375.994v-1.863l.156-.155h-.156l-103.155-60.829-137.075 77.588-.311 21.88 102.845 60.675v.31l.311-.155.155.155v-.31l136.608-77.279v-1.241l-136.608 77.433.312-18.776 136.918-77.433z" fill="#1AE5FF"/><path d="M596.062 376.614l-135.985 76.658v18.776l135.674-76.812.311-18.622z" fill="#F2F8FD"/><path d="M460.077 453.272v18.776l-101.289-60.053.156-18.156 101.133 59.433z" fill="#EAEEEE"/><path d="M549.696 383.442l-18.204 10.242-74.371-43.76 18.204-10.397 74.371 43.915z" fill="#F2F8FD"/><path d="M592.017 346.976v-2.018h.155-.155l-98.488-58.036-130.851 74.02-.311 20.948 98.177 57.881v.156h.467v-.156l130.383-73.864v-1.086l-130.383 73.864.311-17.845 130.695-73.864z" fill="#FF4174"/><path d="M590.927 347.441l-129.761 73.088v18.001l129.606-73.399.155-17.69z" fill="#F2F8FD"/><path d="M461.166 420.529v18.001l-96.776-57.26.155-17.38 96.621 56.639z" fill="#EAEEEE"/><path d="M546.74 353.959l-17.426 9.776-70.948-41.898 17.27-9.776 71.104 41.898z" fill="#F2F8FD"/><path d="M364.39 324.009v-2.017l99.732-56.019 129.295 76.658-.156 20.949-99.421 55.863v.311l-.156-.156-.155.156v-.311l-128.828-76.347v-1.241l128.828 76.502v-17.845L364.39 324.009z" fill="#D46AC0"/><path d="M365.479 324.475l128.205 75.881-.311 18.001-128.05-76.037.156-17.845z" fill="#F2F8FD"/><path d="M493.84 400.356l-.467 18.001 97.866-55.243.155-17.535-97.554 54.777z" fill="#EAEEEE"/><path d="M409.511 331.923l17.27 10.242 71.727-40.346-17.115-10.242-71.882 40.346z" fill="#F2F8FD"/><path d="M379.793 165.108s-2.334-.465-4.201 1.707c-1.867 2.018-.467 2.328-1.711 4.345-1.245 2.018-2.801 2.018-2.801 4.345 0 2.328.467 4.811 2.801 5.276 2.489.466 2.022 2.949 3.111 3.414 1.09.466 2.179.31 2.334.776.156.465-1.556 3.259-1.244 4.345.311 1.086 1.555.31 1.711-.155.156-.466.622-2.638 2.023-3.259 1.244-.621 2.178.931 1.711 2.793-.467 1.862-2.645 2.949-2.645 4.035 0 1.086 0 2.017.467 3.103.467 1.242-.934.931.467 1.862 1.4.932 4.201 1.552 7.001.466 2.801-1.086 3.734-2.793 4.046-3.104.311-.465.933-2.638 2.022-3.258 1.245-.621 2.801-.621 5.135-3.569 2.178-2.949 1.711-5.742 1.711-5.742s1.556.466 1.245-3.569c-.311-4.035-1.867-4.345-2.801-6.517-1.089-2.018-.311-2.638-2.956-4.966-2.801-2.328-5.134-2.638-5.134-2.638s-1.712-2.328-3.579-2.017c-1.867.31-4.823 1.396-4.823 1.396s-1.401-2.017-3.89.931z" fill="#113C7A"/><path d="M342.14 187.919s-.155-4.655-.155-5.276c0-.621 1.245-3.103.155-4.034-1.089-.931-2.333 3.103-2.333 3.103s-4.512-5.897-5.913-5.897c-1.4 0-1.245 4.035-.155 6.208 1.089 2.172 2.8 4.5 2.8 4.5l.778 2.017 4.823-.621z" fill="#FF9D6F"/><path d="M372.48 207.006s-16.648 5.431-22.093 2.328c-5.446-3.104-8.091-23.277-8.091-23.277s-4.201-1.086-6.224 2.638c0 0 2.645 22.501 7.002 28.242 4.356 5.742 25.672 5.897 30.34 3.569 4.668-2.327 5.446-8.069 3.578-10.086-1.711-2.173-4.512-3.414-4.512-3.414z" fill="#5C6BC0"/><path d="M540.05 203.127c0 11.948-9.647 21.569-21.627 21.569-11.98 0-21.627-9.621-21.627-21.569 0-11.949 9.647-21.57 21.627-21.57 11.98 0 21.627 9.776 21.627 21.57z" fill="#00A5FF"/><path d="M515.622 213.679l-9.024-9.156 4.357-4.345 4.667 4.656 11.67-11.483 4.356 4.345-16.026 15.983z" fill="#fff"/></g><defs><linearGradient id="paint0_linear" x1="354.193" y1="139.058" x2="288.028" y2="369.81" gradientUnits="userSpaceOnUse"><stop stop-color="#5155D4"/><stop offset="1" stop-color="#45F7FF"/></linearGradient><linearGradient id="paint1_linear" x1="147.947" y1="350.628" x2="298" y2="350.628" gradientUnits="userSpaceOnUse"><stop stop-color="#5155D4"/><stop offset="1" stop-color="#45F7FF"/></linearGradient><linearGradient id="paint2_linear" x1="344.072" y1="305.646" x2="233.092" y2="239.665" gradientUnits="userSpaceOnUse"><stop stop-color="#5155D4"/><stop offset="1" stop-color="#45F7FF"/></linearGradient><linearGradient id="paint3_linear" x1="337.066" y1="317.43" x2="226.086" y2="251.449" gradientUnits="userSpaceOnUse"><stop stop-color="#5155D4"/><stop offset="1" stop-color="#45F7FF"/></linearGradient><linearGradient id="paint4_linear" x1="330.06" y1="329.213" x2="219.08" y2="263.233" gradientUnits="userSpaceOnUse"><stop stop-color="#5155D4"/><stop offset="1" stop-color="#45F7FF"/></linearGradient><linearGradient id="paint5_linear" x1="323.055" y1="340.998" x2="212.074" y2="275.017" gradientUnits="userSpaceOnUse"><stop stop-color="#5155D4"/><stop offset="1" stop-color="#45F7FF"/></linearGradient><linearGradient id="paint6_linear" x1="316.05" y1="352.781" x2="205.069" y2="286.8" gradientUnits="userSpaceOnUse"><stop stop-color="#5155D4"/><stop offset="1" stop-color="#45F7FF"/></linearGradient><linearGradient id="paint7_linear" x1="309.042" y1="364.564" x2="198.063" y2="298.584" gradientUnits="userSpaceOnUse"><stop stop-color="#5155D4"/><stop offset="1" stop-color="#45F7FF"/></linearGradient><linearGradient id="paint8_linear" x1="344.14" y1="305.53" x2="233.16" y2="239.55" gradientUnits="userSpaceOnUse"><stop stop-color="#5155D4"/><stop offset="1" stop-color="#45F7FF"/></linearGradient><linearGradient id="paint9_linear" x1="344.212" y1="305.41" x2="233.232" y2="239.429" gradientUnits="userSpaceOnUse"><stop stop-color="#5155D4"/><stop offset="1" stop-color="#45F7FF"/></linearGradient><linearGradient id="paint10_linear" x1="337.135" y1="317.314" x2="226.155" y2="251.333" gradientUnits="userSpaceOnUse"><stop stop-color="#5155D4"/><stop offset="1" stop-color="#45F7FF"/></linearGradient><linearGradient id="paint11_linear" x1="330.13" y1="329.098" x2="219.149" y2="263.117" gradientUnits="userSpaceOnUse"><stop stop-color="#5155D4"/><stop offset="1" stop-color="#45F7FF"/></linearGradient><linearGradient id="paint12_linear" x1="323.123" y1="340.881" x2="212.143" y2="274.9" gradientUnits="userSpaceOnUse"><stop stop-color="#5155D4"/><stop offset="1" stop-color="#45F7FF"/></linearGradient><linearGradient id="paint13_linear" x1="316.118" y1="352.665" x2="205.138" y2="286.684" gradientUnits="userSpaceOnUse"><stop stop-color="#5155D4"/><stop offset="1" stop-color="#45F7FF"/></linearGradient><linearGradient id="paint14_linear" x1="326.831" y1="334.645" x2="215.851" y2="268.665" gradientUnits="userSpaceOnUse"><stop stop-color="#5155D4"/><stop offset="1" stop-color="#45F7FF"/></linearGradient><linearGradient id="paint15_linear" x1="309.112" y1="364.448" x2="198.132" y2="298.468" gradientUnits="userSpaceOnUse"><stop stop-color="#5155D4"/><stop offset="1" stop-color="#45F7FF"/></linearGradient><linearGradient id="paint16_linear" x1="309.185" y1="364.326" x2="198.205" y2="298.346" gradientUnits="userSpaceOnUse"><stop stop-color="#5155D4"/><stop offset="1" stop-color="#45F7FF"/></linearGradient><linearGradient id="paint17_linear" x1="302.094" y1="376.252" x2="191.114" y2="310.272" gradientUnits="userSpaceOnUse"><stop stop-color="#5155D4"/><stop offset="1" stop-color="#45F7FF"/></linearGradient><linearGradient id="paint18_linear" x1="188.852" y1="455.52" x2="205.831" y2="542.643" gradientUnits="userSpaceOnUse"><stop stop-color="#fff"/><stop offset="1" stop-color="#8AE6FF"/></linearGradient><linearGradient id="paint19_linear" x1="295.581" y1="506.754" x2="356.588" y2="602.017" gradientUnits="userSpaceOnUse"><stop stop-color="#fff"/><stop offset="1" stop-color="#8AE6FF"/></linearGradient><linearGradient id="paint20_linear" x1="111.805" y1="517.978" x2="38.774" y2="517.978" gradientUnits="userSpaceOnUse"><stop stop-color="#5155D4"/><stop offset="1" stop-color="#45F7FF"/></linearGradient><linearGradient id="paint21_linear" x1="0" y1="272.259" x2="7.261" y2="272.259" gradientUnits="userSpaceOnUse"><stop stop-color="#1AE5FF"/><stop offset="1" stop-color="#EAEEEE"/></linearGradient><linearGradient id="paint22_linear" x1="597.331" y1="483.151" x2="604.591" y2="483.151" gradientUnits="userSpaceOnUse"><stop stop-color="#1AE5FF"/><stop offset="1" stop-color="#EAEEEE"/></linearGradient><linearGradient id="paint23_linear" x1="123.434" y1="199.326" x2="130.695" y2="199.326" gradientUnits="userSpaceOnUse"><stop stop-color="#1AE5FF"/><stop offset="1" stop-color="#EAEEEE"/></linearGradient><linearGradient id="paint24_linear" x1="134.369" y1="248.437" x2="91.345" y2="248.437" gradientUnits="userSpaceOnUse"><stop stop-color="#F38273"/><stop offset="1" stop-color="#FF2FCC"/></linearGradient><linearGradient id="paint25_linear" x1="134.367" y1="256.735" x2="97.533" y2="256.735" gradientUnits="userSpaceOnUse"><stop stop-color="#F38273"/><stop offset="1" stop-color="#FF2FCC"/></linearGradient><linearGradient id="paint26_linear" x1="253.35" y1="94.657" x2="239.421" y2="173.336" gradientUnits="userSpaceOnUse"><stop stop-color="#FF962B"/><stop offset="1" stop-color="#E34958"/></linearGradient><linearGradient id="paint27_linear" x1="247.811" y1="120.895" x2="247.811" y2="138.804" gradientUnits="userSpaceOnUse"><stop stop-color="#F38273"/><stop offset="1" stop-color="#FF2FCC"/></linearGradient><linearGradient id="paint28_linear" x1="114.978" y1="559.857" x2="191.776" y2="559.857" gradientUnits="userSpaceOnUse"><stop stop-color="#5155D4"/><stop offset="1" stop-color="#45F7FF"/></linearGradient><linearGradient id="paint29_linear" x1="421.502" y1="320.884" x2="344.705" y2="320.884" gradientUnits="userSpaceOnUse"><stop stop-color="#5155D4"/><stop offset="1" stop-color="#45F7FF"/></linearGradient><linearGradient id="paint30_linear" x1="308.333" y1="395.651" x2="244.543" y2="395.651" gradientUnits="userSpaceOnUse"><stop stop-color="#5155D4"/><stop offset="1" stop-color="#45F7FF"/></linearGradient><linearGradient id="paint31_linear" x1="565.302" y1="294.966" x2="418.011" y2="495.757" gradientUnits="userSpaceOnUse"><stop stop-color="#5155D4"/><stop offset="1" stop-color="#45F7FF"/></linearGradient><clipPath id="clip0"><path fill="#fff" d="M0 0h618v601H0z"/></clipPath></defs></svg>