<svg width="1123" height="1123" fill="none" xmlns="http://www.w3.org/2000/svg"><g filter="url(#filter0_d)"><path fill-rule="evenodd" clip-rule="evenodd" d="M468.039 395.494c-89.404 51.617-120.036 165.937-68.418 255.34 51.617 89.404 165.937 120.036 255.34 68.419 89.404-51.618 120.035-165.937 68.418-255.341-51.617-89.403-165.937-120.035-255.34-68.418zM397.75 273.75c-156.641 90.437-210.31 290.732-119.873 447.373 90.436 156.641 290.732 210.31 447.373 119.874 156.641-90.437 210.31-290.733 119.873-447.374-90.436-156.641-290.732-210.31-447.373-119.873z" fill="url(#paint0_linear)"/></g><defs><linearGradient id="paint0_linear" x1="725.25" y1="840.997" x2="397.75" y2="273.75" gradientUnits="userSpaceOnUse"><stop stop-color="#fff"/><stop offset="1" stop-color="#F2F4F4"/></linearGradient><filter id="filter0_d" x=".127" y="0" width="1122.75" height="1122.75" filterUnits="userSpaceOnUse" color-interpolation-filters="sRGB"><feFlood flood-opacity="0" result="BackgroundImageFix"/><feColorMatrix in="SourceAlpha" values="0 0 0 0 0 0 0 0 0 0 0 0 0 0 0 0 0 0 127 0"/><feOffset dy="4"/><feGaussianBlur stdDeviation="57"/><feColorMatrix values="0 0 0 0 0 0 0 0 0 0 0 0 0 0 0 0 0 0 0.02 0"/><feBlend in2="BackgroundImageFix" result="effect1_dropShadow"/><feBlend in="SourceGraphic" in2="effect1_dropShadow" result="shape"/></filter></defs></svg>