<svg width="31" height="25" fill="none" xmlns="http://www.w3.org/2000/svg"><path d="M27.512 0C29.438 0 31 1.574 31 3.515v17.97C31 23.427 29.438 25 27.512 25H3.488C1.562 25 0 23.427 0 21.485V3.515C0 1.574 1.562 0 3.488 0h24.024zm0 2.343H3.488c-.642 0-1.162.525-1.162 1.172v17.97c0 .647.52 1.172 1.162 1.172l4.262-.001.002-4.302a2.726 2.726 0 012.49-2.724l.223-.01h10.07a2.722 2.722 0 012.703 2.51l.01.224-.002 4.302h4.266c.642 0 1.162-.524 1.162-1.17V3.514c0-.647-.52-1.172-1.162-1.172zM15.504 4.687c2.568 0 4.65 2.098 4.65 4.686s-2.082 4.686-4.65 4.686c-2.57 0-4.652-2.098-4.652-4.686s2.083-4.686 4.652-4.686z" fill="#A40E02"/></svg>