<svg width="23" height="23" fill="none" xmlns="http://www.w3.org/2000/svg"><path d="M7.667 7.31a.767.767 0 011.167.522l.213 1.283a.767.767 0 01-.33.764l-.769.512a6.901 6.901 0 01-.281-1.958V7.311zm6.9 8.023a6.9 6.9 0 01-1.958-.281l.512-.768a.767.767 0 01.764-.331l1.283.213c.543.09.815.706.522 1.167h-1.123z" fill="#000"/><path fill-rule="evenodd" clip-rule="evenodd" d="M0 11.5C0 5.149 5.149 0 11.5 0S23 5.149 23 11.5 17.851 23 11.5 23a11.45 11.45 0 01-6.512-2.02L1.11 22.92a.767.767 0 01-1.03-1.03l1.94-3.878A11.45 11.45 0 010 11.5zm6.485-5.245l.317-.21c1.388-.927 3.27-.112 3.544 1.535l.214 1.283a2.3 2.3 0 01-.993 2.292l-1.01.672a6.933 6.933 0 002.616 2.615l.672-1.009a2.3 2.3 0 012.292-.993l1.283.214c1.647.274 2.462 2.156 1.536 3.544l-.212.318a.766.766 0 01-.644.35h-1.533a8.433 8.433 0 01-8.434-8.433V6.9c0-.27.14-.508.352-.645z" fill="#000"/></svg>