<svg width="45" height="45" fill="none" xmlns="http://www.w3.org/2000/svg"><path d="M15 14.303a1.5 1.5 0 012.283 1.02l.418 2.51a1.5 1.5 0 01-.647 1.495l-1.503 1.002A13.501 13.501 0 0115 16.5v-2.197zM28.5 30c-1.33 0-2.616-.192-3.83-.551l1.002-1.503a1.5 1.5 0 011.495-.648l2.51.419A1.5 1.5 0 0130.697 30H28.5z" fill="#FDFDFD"/><path fill-rule="evenodd" clip-rule="evenodd" d="M0 22.5C0 10.074 10.074 0 22.5 0S45 10.074 45 22.5 34.926 45 22.5 45c-4.728 0-9.118-1.46-12.74-3.953l-7.59 3.795a1.5 1.5 0 01-2.012-2.013l3.795-7.588A22.402 22.402 0 010 22.5zm12.688-10.261l.62-.413c2.716-1.812 6.398-.217 6.934 3.004l.419 2.51a4.5 4.5 0 01-1.943 4.484l-1.975 1.316a13.565 13.565 0 005.117 5.117l1.316-1.975a4.5 4.5 0 014.484-1.943l2.51.419c3.221.537 4.816 4.218 3.004 6.934l-.414.622A1.499 1.499 0 0131.5 33h-3C19.387 33 12 25.613 12 16.5v-3c0-.529.274-.994.688-1.261z" fill="#FDFDFD"/></svg>