<svg width="131" height="30" fill="none" xmlns="http://www.w3.org/2000/svg"><path d="M17.867 8.367H19.4m-11.5-4.6h9.2A6.133 6.133 0 0123.233 9.9v9.2a6.133 6.133 0 01-6.133 6.133H7.9A6.133 6.133 0 011.767 19.1V9.9A6.133 6.133 0 017.9 3.767zM12.5 19.1a4.6 4.6 0 110-9.2 4.6 4.6 0 010 9.2z" stroke="#fff" stroke-width="2"/><path d="M38.71 2.846c-1.93.808-4.051 3.09-4.721 5.955-.849 3.63 2.682 5.164 2.972 4.66.34-.59-.633-.79-.833-2.674-.26-2.432.871-5.15 2.295-6.342.264-.222.252.087.252.657 0 1.02-.057 10.176-.057 12.087 0 2.586-.107 3.402-.298 4.209-.195.818-.507 1.37-.27 1.583.264.238 1.393-.328 2.047-1.24.784-1.095 1.059-2.41 1.108-3.837.06-1.72.057-4.45.06-6.008.002-1.428.023-5.61-.026-8.125-.012-.617-1.722-1.264-2.53-.926l.001.001zm68.527 12.101c-.062 1.344-.36 2.395-.729 3.136-.715 1.435-2.199 1.88-2.828-.182-.344-1.124-.36-3.002-.113-4.571.251-1.598.953-2.805 2.114-2.697 1.146.108 1.682 1.584 1.556 4.314zm-19.314 8.34c-.015 2.234-.367 4.192-1.12 4.76-1.07.807-2.507.202-2.21-1.428.264-1.442 1.51-2.915 3.333-4.714 0 0 .004.41-.003 1.382zm-.292-8.353c-.065 1.224-.382 2.454-.729 3.15-.715 1.434-2.209 1.883-2.828-.183-.424-1.411-.322-3.238-.113-4.389.272-1.493.931-2.878 2.115-2.878 1.15 0 1.717 1.262 1.555 4.3zm-11.188-.019c-.07 1.297-.323 2.381-.73 3.168-.734 1.425-2.187 1.877-2.828-.182-.462-1.485-.304-3.51-.112-4.603.285-1.623 1-2.773 2.114-2.664 1.145.112 1.702 1.583 1.556 4.281zm51.274 1.515c-.28 0-.408.288-.513.774-.367 1.69-.752 2.07-1.249 2.07-.555 0-1.054-.836-1.182-2.51-.101-1.316-.085-3.74.044-6.15.026-.496-.11-.986-1.439-1.468-.571-.208-1.402-.513-1.816.485-1.169 2.822-1.626 5.062-1.734 5.972-.006.047-.063.056-.074-.053-.068-.73-.221-2.054-.24-4.836-.004-.543-.119-1.005-.718-1.384-.389-.245-1.57-.68-1.995-.163-.368.422-.795 1.56-1.238 2.907-.361 1.095-.611 1.836-.611 1.836s.004-2.955.009-4.076c.002-.423-.289-.564-.376-.59-.394-.114-1.17-.305-1.499-.305-.406 0-.506.227-.506.558 0 .044-.064 3.891-.064 6.582l.001.38c-.224 1.236-.953 2.915-1.746 2.915s-1.167-.702-1.167-3.91c0-1.87.056-2.684.083-4.037.016-.78.047-1.379.046-1.514-.006-.417-.727-.627-1.062-.705a3.137 3.137 0 00-.858-.095c-.323.018-.552.23-.552.522l.002.454c-.417-.655-1.087-1.11-1.533-1.242-1.2-.357-2.453-.04-3.398 1.282-.751 1.05-1.204 2.24-1.382 3.95-.131 1.25-.088 2.518.143 3.59-.279 1.21-.799 1.705-1.368 1.705-.825 0-1.424-1.348-1.354-3.678.045-1.534.352-2.61.688-4.166.142-.664.026-1.011-.265-1.344-.267-.305-.837-.461-1.655-.27a29.21 29.21 0 01-2.18.397s.046-.183.084-.507c.198-1.698-1.646-1.56-2.235-1.018-.351.324-.59.706-.681 1.393-.144 1.089.744 1.603.744 1.603-.291 1.334-1.006 3.078-1.744 4.338-.395.675-.697 1.176-1.087 1.708a256.387 256.387 0 01.042-6.403c.015-.78.047-1.363.045-1.498-.004-.305-.182-.42-.552-.566a3.921 3.921 0 00-1.116-.249c-.507-.04-.812.23-.804.547.002.06.002.428.002.428-.417-.654-1.087-1.11-1.533-1.242-1.2-.356-2.453-.04-3.398 1.282-.751 1.05-1.243 2.525-1.383 3.937-.13 1.317-.105 2.435.072 3.378-.191.944-.74 1.93-1.361 1.93-.794 0-1.245-.701-1.245-3.91 0-1.87.056-2.684.084-4.037.016-.78.047-1.378.045-1.514-.006-.417-.726-.627-1.061-.705a3.086 3.086 0 00-.886-.093c-.307.023-.523.297-.523.502v.472c-.416-.654-1.086-1.11-1.532-1.242-1.2-.356-2.447-.035-3.399 1.282-.62.859-1.123 1.81-1.382 3.919a13.03 13.03 0 00-.103 1.712c-.248 1.514-1.342 3.26-2.236 3.26-.523 0-1.022-1.016-1.022-3.18 0-2.881.179-6.985.209-7.38 0 0 1.13-.02 1.349-.022.563-.006 1.074.007 1.825-.031.376-.02.74-1.37.35-1.538-.176-.076-1.42-.142-1.914-.153-.415-.009-1.57-.095-1.57-.095s.103-2.723.127-3.01c.02-.24-.29-.364-.468-.439-.432-.183-.82-.27-1.278-.365-.634-.13-.921-.003-.978.532-.084.812-.128 3.19-.128 3.19-.465 0-2.054-.091-2.52-.091-.432 0-.898 1.86-.3 1.882.687.027 1.885.05 2.68.074 0 0-.035 4.17-.035 5.458v.397c-.436 2.28-1.976 3.51-1.976 3.51.33-1.507-.345-2.64-1.562-3.598a116.11 116.11 0 00-2.324-1.754s.574-.566 1.082-1.703c.36-.805.376-1.727-.508-1.93-1.462-.337-2.667.737-3.026 1.883-.279.887-.13 1.546.415 2.23.04.05.083.102.128.153-.33.636-.783 1.492-1.167 2.156-1.066 1.844-1.87 3.302-2.48 3.302-.485 0-.479-1.48-.479-2.867 0-1.195.088-2.991.159-4.851.023-.615-.284-.966-.8-1.283-.313-.193-.982-.572-1.37-.572-.579 0-2.25.079-3.83 4.65-.2.575-.591 1.625-.591 1.625l.033-5.496c0-.129-.068-.253-.225-.339-.267-.144-.978-.44-1.61-.44-.301 0-.452.14-.452.42l-.055 8.598c0 .653.017 1.416.082 1.749.064.334.168.605.298.767a.854.854 0 00.524.335c.229.047 1.482.208 1.547-.271.078-.574.081-1.195.74-3.51 1.024-3.605 2.36-5.364 2.987-5.989.11-.109.236-.115.23.063-.027.79-.121 2.765-.185 4.443-.17 4.49.647 5.322 1.814 5.322.893 0 2.152-.887 3.501-3.133.842-1.4 1.658-2.772 2.245-3.761.41.378.868.786 1.327 1.221 1.066 1.012 1.416 1.973 1.183 2.885-.177.697-.846 1.415-2.036.717-.347-.204-.495-.361-.844-.59-.188-.124-.474-.161-.645-.032-.446.336-.7.764-.846 1.293-.142.515.374.787.908 1.025.46.205 1.45.39 2.08.412 2.459.082 4.428-1.187 5.798-4.46.246 2.826 1.29 4.426 3.104 4.426 1.213 0 2.43-1.568 2.96-3.11.153.628.38 1.175.671 1.637 1.398 2.215 4.11 1.739 5.473-.142.42-.581.485-.79.485-.79.199 1.776 1.629 2.396 2.448 2.396.917 0 1.864-.433 2.528-1.927.077.162.162.317.255.463 1.398 2.215 4.11 1.739 5.472-.142a9.38 9.38 0 00.169-.24l.04 1.166-1.254 1.15c-2.1 1.927-3.696 3.388-3.814 5.09-.15 2.17 1.61 2.977 2.94 3.082 1.415.113 2.626-.668 3.37-1.761.655-.963 1.083-3.034 1.052-5.079-.013-.819-.033-1.86-.05-2.977.738-.857 1.57-1.94 2.335-3.208.835-1.381 1.729-3.237 2.186-4.68 0 0 .777.006 1.606-.048.266-.018.342.036.293.23-.06.236-1.048 4.047-.146 6.587.618 1.738 2.01 2.297 2.834 2.297.966 0 1.89-.73 2.385-1.812.06.12.122.237.19.345 1.398 2.215 4.101 1.735 5.473-.143.309-.423.485-.79.485-.79.294 1.838 1.724 2.406 2.542 2.406.853 0 1.663-.35 2.319-1.903.028.684.071 1.243.139 1.42.042.108.284.243.46.308.781.29 1.576.153 1.871.093.204-.04.363-.204.384-.627.058-1.11.022-2.973.359-4.358.564-2.325 1.091-3.226 1.341-3.673.139-.25.297-.291.303-.027.012.536.038 2.109.257 4.222.161 1.554.375 2.473.54 2.764.471.831 1.052.87 1.525.87.301 0 .931-.083.874-.612-.027-.258.021-1.852.577-4.142.364-1.495.97-2.847 1.188-3.34.081-.183.118-.04.117-.011-.046 1.03-.149 4.399.27 6.241.569 2.496 2.215 2.775 2.788 2.775 1.224 0 2.225-.93 2.562-3.38.082-.59-.039-1.046-.399-1.046" fill="#fff"/></svg>