<svg width="104" height="27" fill="none" xmlns="http://www.w3.org/2000/svg"><path d="M.408 4.704c0 2.496 1.896 4.44 4.344 4.44 2.448 0 4.356-1.944 4.356-4.44 0-2.436-1.908-4.32-4.356-4.32S.408 2.268.408 4.704zm1.248 0c0-1.812 1.38-3.204 3.096-3.204 1.716 0 3.108 1.392 3.108 3.204 0 1.872-1.392 3.312-3.108 3.312-1.716 0-3.096-1.44-3.096-3.312zm11.316 4.44c1.692 0 2.928-1.116 2.928-2.868 0-1.716-1.08-2.796-2.604-2.796-.78 0-1.536.24-2.112 1.128h-.012c.024-.924.396-1.704 1.428-2.148l1.428-.612c.816-.324 1.248-.528 1.248-1.32V0h-1.128v.288c0 .276-.132.396-.696.636l-1.332.588c-1.632.72-2.064 1.932-2.064 3.912 0 2.016.744 3.72 2.916 3.72zM11.28 6.276c0-1.056.72-1.824 1.74-1.824.912 0 1.68.66 1.68 1.848 0 1.164-.768 1.848-1.704 1.848-.948 0-1.716-.684-1.716-1.872zm6.088 5.124h1.164V8.7c0-.312-.024-.528-.024-.528h.024s.516.972 1.86.972c1.596 0 2.76-1.248 2.76-3.18 0-1.884-1.032-3.18-2.676-3.18-1.512 0-2.016 1.08-2.016 1.08h-.024s.012-.144.012-.324c0-.384-.204-.612-.744-.612h-1.092v.996h.492c.168 0 .264.084.264.264V11.4zm1.128-5.412c0-1.548.852-2.184 1.752-2.184 1.008 0 1.716.852 1.716 2.172 0 1.38-.792 2.172-1.74 2.172-1.14 0-1.728-1.08-1.728-2.16zm5.395 1.356c0 1.164.984 1.8 2.04 1.8 1.44 0 1.968-1.2 1.956-1.2h.024s-.012.144-.012.36c0 .432.204.696.744.696h1.104v-.996h-.492c-.168 0-.264-.084-.264-.264V5.16c0-1.356-.528-2.376-2.532-2.376-.552 0-2.076.156-2.076 1.128v.612h1.104v-.348c0-.396.708-.468.996-.468.936 0 1.344.384 1.344 1.428v.084h-.264c-1.02 0-3.672.084-3.672 2.124zm1.164-.108c0-1.092 1.584-1.176 2.46-1.176h.312v.228c0 .9-.624 1.932-1.632 1.932-.756 0-1.14-.492-1.14-.984zm5.127 1.02c.36.336 1.056.888 2.232.888 1.26 0 2.352-.648 2.352-1.884 0-.816-.492-1.284-1.092-1.44v-.024c.468-.168.9-.612.9-1.368 0-1.08-.864-1.644-2.136-1.644-1.044 0-2.052.36-2.052 1.176v.564h.972v-.276c0-.42.552-.588.984-.588.6 0 1.056.276 1.056.888s-.444.924-1.188.924h-.612v.804h.768c.816 0 1.236.324 1.236.912 0 .684-.576 1.008-1.26 1.008-.852 0-1.44-.54-1.608-.708l-.552.768zM35.6 5.952c0 1.848 1.452 3.192 3.264 3.192 1.812 0 3.276-1.344 3.276-3.192 0-1.836-1.464-3.168-3.276-3.168-1.812 0-3.264 1.332-3.264 3.168zm1.176 0c0-1.26.948-2.16 2.088-2.16 1.152 0 2.088.9 2.088 2.16 0 1.272-.936 2.184-2.088 2.184-1.14 0-2.088-.912-2.088-2.184zm6.76 2.388c0 .456.192.66.672.66h1.92c1.32 0 2.232-.6 2.232-1.728 0-.66-.396-1.272-1.152-1.44v-.024c.492-.204.852-.636.852-1.32 0-1.02-.792-1.56-2.016-1.56H42.78v.996h.756V8.34zM44.7 5.484v-1.74h1.104c.708 0 1.08.3 1.08.852 0 .54-.36.888-1.044.888H44.7zm0 2.448V6.264h1.236c.792 0 1.236.348 1.236.948 0 .588-.396.96-1.236.96h-1.008c-.144 0-.228-.084-.228-.24zm4.399-.588c0 1.164.984 1.8 2.04 1.8 1.44 0 1.968-1.2 1.956-1.2h.024s-.012.144-.012.36c0 .432.204.696.744.696h1.104v-.996h-.492c-.168 0-.264-.084-.264-.264V5.16c0-1.356-.528-2.376-2.532-2.376-.552 0-2.076.156-2.076 1.128v.612h1.104v-.348c0-.396.708-.468.996-.468.936 0 1.344.384 1.344 1.428v.084h-.264c-1.02 0-3.672.084-3.672 2.124zm1.164-.108c0-1.092 1.584-1.176 2.46-1.176h.312v.228c0 .9-.624 1.932-1.632 1.932-.756 0-1.14-.492-1.14-.984zM57.659 9h1.152V3.924h1.176c.168 0 .264.096.264.264v.408h.96v-.924c0-.54-.228-.744-.768-.744h-4.416c-.54 0-.768.204-.768.744v.924h.96v-.408c0-.168.096-.264.264-.264h1.176V9zm4.167-3.036c0 1.8 1.32 3.18 3.228 3.18.84 0 1.764-.324 2.352-.864l-.492-.852c-.48.42-1.14.708-1.788.708-1.092 0-2.028-.732-2.1-2.052h4.428c.024-.156.036-.312.036-.456 0-1.572-.9-2.844-2.616-2.844-1.728 0-3.048 1.248-3.048 3.18zm1.248-.648c.168-1.02.876-1.62 1.776-1.62.792 0 1.44.552 1.476 1.62h-3.252zm4.898 3.72c2.232.012 2.544-3.096 2.544-4.632v-.48h1.392c.168 0 .264.084.264.264v4.044c0 .54.228.768.78.768h1.14v-.996H73.6c-.168 0-.264-.084-.264-.264V3.696c0-.54-.228-.768-.768-.768h-3.924v.996h.756v.468c0 1.476-.336 3.588-1.428 3.612v1.032zm7.392-.696c0 .456.191.66.66.66h1.727c1.272 0 2.16-.732 2.16-1.92 0-1.176-.78-1.932-2.16-1.932h-1.224V3.624c-.011-.468-.24-.696-.767-.696h-1.153v.996h.493c.168 0 .264.084.264.264V8.34zm1.163-.42V5.988h1.08c.745 0 1.14.42 1.14 1.08 0 .648-.42 1.092-1.14 1.092h-.852c-.143 0-.227-.084-.227-.24zM81.142 9h1.164V6.384h3.072v1.848c0 .54.228.768.768.768h1.14v-.996h-.48c-.168 0-.264-.084-.264-.264V2.928h-1.164v2.484h-3.072V3.696c0-.54-.228-.768-.768-.768h-1.152v.996h.492c.168 0 .264.084.264.264V9zm12.925-.768c0 .54.228.768.769.768h1.14v-.996h-.48c-.169 0-.264-.084-.264-.264V2.928h-1.164v5.304zm-5.496.108c0 .456.193.66.66.66h1.704c1.285 0 2.184-.732 2.184-1.92 0-1.176-.791-1.932-2.183-1.932h-1.2V3.624c0-.468-.24-.696-.769-.696h-1.151v.996h.492c.168 0 .263.084.263.264V8.34zm1.165-.42V5.988h1.055c.756 0 1.152.42 1.152 1.08 0 .648-.42 1.092-1.151 1.092h-.828c-.144 0-.228-.084-.228-.24zM97.254 9h1.151l2.616-3.648c.204-.276.516-.744.564-.852h.024c-.012.096-.048.552-.048.852v2.88c0 .54.228.768.768.768h1.068v-.996h-.48c-.156 0-.252-.084-.252-.264V2.928h-1.152l-2.616 3.648c-.204.276-.516.744-.564.84h-.024c.012-.06.048-.516.048-.84V3.684c0-.54-.228-.756-.768-.756h-1.068v.996h.48c.156 0 .252.084.252.264V9zm2.687-6.768c.936 0 1.776-.552 1.776-1.536v-.18h-.924v.156c0 .54-.432.804-.852.804s-.84-.264-.84-.792V.516h-.936v.18c0 .984.852 1.536 1.776 1.536zM1.008 23.244c0 .54.216.756.768.756h4.02c.156 0 .24.096.24.264v1.176h1.08v-1.656c0-.516-.216-.756-.744-.756H6.18v-5.1H5.016v5.1H2.424c-.156 0-.252-.096-.252-.264v-4.068c0-.54-.228-.768-.768-.768H.252v.996h.492c.168 0 .264.084.264.264v4.056zm6.665-2.28c0 1.8 1.32 3.18 3.228 3.18.84 0 1.764-.324 2.352-.864l-.492-.852c-.48.42-1.14.708-1.788.708-1.092 0-2.028-.732-2.1-2.052h4.428c.024-.156.036-.312.036-.456 0-1.572-.9-2.844-2.616-2.844-1.728 0-3.048 1.248-3.048 3.18zm1.248-.648c.168-1.02.876-1.62 1.776-1.62.792 0 1.44.552 1.476 1.62H8.921zM14.766 24h1.164v-2.616h3.072v1.848c0 .54.228.768.768.768h1.14v-.996h-.48c-.168 0-.264-.084-.264-.264v-4.812h-1.164v2.484H15.93v-1.716c0-.54-.228-.768-.768-.768H14.01v.996h.492c.168 0 .264.084.264.264V24zm8.979 0h1.152v-5.076h1.176c.168 0 .264.096.264.264v.408h.96v-.924c0-.54-.228-.744-.768-.744h-4.416c-.54 0-.768.204-.768.744v.924h.96v-.408c0-.168.096-.264.264-.264h1.176V24zm4.79 2.4H29.7v-2.7c0-.312-.024-.528-.024-.528h.024s.516.972 1.86.972c1.596 0 2.76-1.248 2.76-3.18 0-1.884-1.032-3.18-2.676-3.18-1.512 0-2.016 1.08-2.016 1.08h-.024s.012-.144.012-.324c0-.384-.204-.612-.744-.612H27.78v.996h.492c.168 0 .264.084.264.264V26.4zm1.129-5.412c0-1.548.852-2.184 1.752-2.184 1.008 0 1.716.852 1.716 2.172 0 1.38-.792 2.172-1.74 2.172-1.14 0-1.728-1.08-1.728-2.16z" fill="#000"/></svg>