<svg width="72" height="72" fill="none" xmlns="http://www.w3.org/2000/svg"><g clip-path="url(#clip0)" fill="#515E78"><path d="M69.267 5.014h-10.54V1.149A1.147 1.147 0 0057.58 0H14.42a1.15 1.15 0 00-1.149 1.149v3.865H2.733A2.736 2.736 0 000 7.747v50.43a2.736 2.736 0 002.733 2.734h25.094v8.791H16.99a1.149 1.149 0 100 2.298h32.933a1.149 1.149 0 100-2.298h-5.75v-8.791h4.729a1.149 1.149 0 100-2.298H2.733a.441.441 0 01-.435-.435V7.747c0-.236.2-.436.435-.436h10.54v41.954H5.9a1.149 1.149 0 100 2.298h43a1.149 1.149 0 100-2.298h-9.02v-9.39a1.15 1.15 0 00-1.149-1.15H20.55a1.15 1.15 0 00-1.149 1.15v9.39h-3.83V2.298h40.86v10.469a1.149 1.149 0 102.298 0V7.312h10.54a.44.44 0 01.434.435v50.431a.44.44 0 01-.435.435h-3.012a1.149 1.149 0 100 2.298h3.012A2.736 2.736 0 0072 58.178V7.747a2.736 2.736 0 00-2.733-2.733zM41.875 69.702h-11.75v-8.791h11.75v8.791zM21.698 41.024h15.885v8.241H21.698v-8.241z"/><path d="M62.794 27.355l-.007-.05a.82.82 0 00-.018-.071l-.009-.036a1.072 1.072 0 00-.025-.072l-.01-.027-.005-.014a.221.221 0 01-.003-.008l-4.072-10.143a1.149 1.149 0 00-2.133 0L52.44 27.078l-.009.02-.01.03a1.024 1.024 0 00-.024.07l-.01.037c-.005.023-.012.046-.016.07-.004.016-.005.033-.008.05l-.009.06a1.143 1.143 0 00-.005.112V66.77a5.236 5.236 0 005.23 5.23 5.236 5.236 0 005.23-5.23V27.527a1.07 1.07 0 00-.006-.113l-.009-.06zm-8.147 1.32h5.864v32.812h-5.864V28.676zm2.932-8.229l2.381 5.932h-4.763l2.382-5.932zm0 49.256a2.936 2.936 0 01-2.933-2.932v-2.985h5.865v2.985a2.935 2.935 0 01-2.932 2.932zm-37.03-53.189h30.902a1.15 1.15 0 001.15-1.149V7.277a1.15 1.15 0 00-1.15-1.15H20.55a1.15 1.15 0 00-1.149 1.15v8.087c0 .635.514 1.15 1.149 1.15zm1.149-8.087h28.604v5.79H21.698v-5.79zm29.753 10.385H20.55a1.149 1.149 0 100 2.298h30.902a1.149 1.149 0 100-2.298zm-12.719 6.128H20.55a1.149 1.149 0 100 2.298h18.183a1.149 1.149 0 100-2.298zm10.391 0h-5.795a1.149 1.149 0 100 2.298h5.795a1.149 1.149 0 100-2.298zm-10.391 4.595H20.55a1.149 1.149 0 100 2.298h18.183a1.149 1.149 0 100-2.298zm10.17 0h-5.574a1.149 1.149 0 100 2.298h5.574a1.149 1.149 0 100-2.298zm-10.17 4.596H20.55a1.149 1.149 0 100 2.298h18.183a1.149 1.149 0 100-2.298zm10.17 0h-5.574a1.149 1.149 0 100 2.298h5.574a1.149 1.149 0 100-2.298z"/></g><defs><clipPath id="clip0"><path fill="#fff" d="M0 0h72v72H0z"/></clipPath></defs></svg>