<svg width="72" height="72" fill="none" xmlns="http://www.w3.org/2000/svg"><g clip-path="url(#clip0)" fill="#515E78"><path d="M65.311 13.207H49.285a1.054 1.054 0 100 2.11h16.026a1.055 1.055 0 100-2.11zm0 6.183H49.285a1.055 1.055 0 100 2.108h16.026a1.055 1.055 0 100-2.109zM28.257 52.799a3.97 3.97 0 00-3.965 3.965 3.97 3.97 0 003.965 3.964 3.97 3.97 0 003.965-3.965 3.97 3.97 0 00-3.965-3.964zm0 5.82a1.857 1.857 0 01-1.855-1.855c0-1.024.832-1.856 1.855-1.856 1.023 0 1.856.832 1.856 1.855a1.858 1.858 0 01-1.856 1.856z"/><path d="M67.095 6.296H42.653a16.3 16.3 0 00-1.237-1.624C38.808 1.659 35.457 0 31.981 0h-7.448c-3.476 0-6.827 1.66-9.435 4.672-2.437 2.815-3.88 6.453-3.958 9.986l-.926 12.796a12.156 12.156 0 003.242 9.234c1.775 1.914 4.034 3.18 6.523 3.684-.63.181-1.904.552-3.44 1.02H8.498c-.87 0-1.708.365-2.3 1.002a3.153 3.153 0 00-.836 2.366l.053.744c-3.018 1.803-4.84 4.66-5.032 7.934l-.002.044L.141 68a3.923 3.923 0 001.14 2.826A3.925 3.925 0 004.093 72H52.42a3.922 3.922 0 002.812-1.174 3.924 3.924 0 001.14-2.83l-.24-14.514-.002-.044c-.201-3.431-2.257-6.462-5.539-8.223l.032-.455a3.158 3.158 0 00-.835-2.366 3.156 3.156 0 00-2.3-1.002h-7.515a240.612 240.612 0 00-3.439-1.02c2.489-.505 4.748-1.77 6.523-3.684a12.189 12.189 0 002.912-5.348h2.73l-1.196 4.831c-.2.806.12 1.62.815 2.075.326.213.692.319 1.056.319.412 0 .822-.135 1.171-.403l8.88-6.822h7.67a5.045 5.045 0 005.039-5.04V11.336c0-2.779-2.26-5.04-5.04-5.04zm-53.847 8.433c.062-3.058 1.318-6.22 3.445-8.677 2.2-2.542 4.985-3.943 7.84-3.943h7.448c2.855 0 5.64 1.4 7.84 3.943.486.56.926 1.158 1.316 1.782.025.048.053.093.084.137 1.27 2.08 1.998 4.448 2.045 6.758l.003.054.173 2.396a3.026 3.026 0 00-.741-.091h-1.734a2.187 2.187 0 00-2.44-.653c-1.74.644-7.14 1.638-19.682-3.048a2.81 2.81 0 00-3.792 2.627l-.001 1.074h-1.238c-.256 0-.505.031-.742.091l.173-2.396a1.65 1.65 0 00.003-.054zm21.19 17.386l-3.76.436a.632.632 0 11-.144-1.257l3.76-.436a.624.624 0 01.465.132.627.627 0 01.235.424.631.631 0 01-.555.7zm2.323-1.967a2.743 2.743 0 00-.692-.81 2.723 2.723 0 00-2.019-.575l-3.758.435a2.725 2.725 0 00-1.834 1.021 2.74 2.74 0 002.464 4.426l2.626-.303-.084.066a1.015 1.015 0 00-.11.083c-1.423 1.073-3.079 1.89-5.097 1.918-2.018-.028-3.674-.845-5.097-1.917a1.02 1.02 0 00-.11-.085c-.773-.594-1.476-1.26-2.133-1.91-1.429-1.418-2.953-4.06-3.525-6.754a1.06 1.06 0 00-.037-.182 10.241 10.241 0 01-.196-1.744l.003-7.801c0-.33.21-.51.3-.573a.694.694 0 01.645-.08c2.453.917 6.187 2.178 10.04 2.981 4.797 1 8.536 1.024 11.113.07a.07.07 0 01.07.006.053.053 0 01.013.013l.008.025v.005l.004 5.354c-.012.574-.08 1.16-.195 1.743a1.09 1.09 0 00-.038.184c-.325 1.531-.958 3.046-1.706 4.328l-.656.076zm.213.491zm-.181-.432l-.002-.004.002.004zm-.016-.03l-.002-.004.002.005zm-23.883-10.06a.92.92 0 01.92-.92h1.237l-.001 4.63v.021c.006.319.027.639.06.96h-1.296a.92.92 0 01-.92-.92v-3.772zm28.114 6.8h.074v2.73l-1.131.13c.429-.905.793-1.871 1.057-2.86zm1.693-2.11h-1.297c.033-.32.054-.64.06-.959v-.021l-.003-4.63h1.24a.92.92 0 01.92.92v3.771a.92.92 0 01-.92.92zM15.004 35.255a10.068 10.068 0 01-2.686-7.649l.075-1.042c.424.226.908.354 1.42.354h1.694c.762 2.855 2.362 5.526 3.926 7.077.63.624 1.285 1.237 1.98 1.8v2.663a10.048 10.048 0 01-6.41-3.203zm33.595 33.109a.765.765 0 010 1.528H7.915a.765.765 0 010-1.528H48.6zm-45.817.98a1.828 1.828 0 01-.532-1.313l.24-14.49c.136-2.208 1.243-4.185 3.097-5.608l1.248 17.51c.024.332.099.649.218.944a2.878 2.878 0 00-1.908 3.505H4.092a1.83 1.83 0 01-1.31-.548zM54.024 53.54l.24 14.486a1.83 1.83 0 01-.532 1.317 1.83 1.83 0 01-1.31.548h-1.053a2.877 2.877 0 00-2.396-3.612c.096-.264.157-.545.178-.836l1.273-17.874c2.161 1.435 3.451 3.549 3.6 5.97zm-5.779-9.709c.198.213.296.489.275.779l-.08 1.14-.003.036-1.39 19.506a1.04 1.04 0 01-1.033.962H9.971c-.54 0-.994-.422-1.032-.962l-1.372-19.25c0-.014-.002-.027-.003-.041l-.099-1.391c-.02-.29.077-.566.275-.779.198-.213.467-.33.757-.33h8.176l.024.001h30.791c.291 0 .56.116.757.33zm-25.649-2.439a3.22 3.22 0 00.927-2.263v-1.892c1.381.763 2.929 1.26 4.722 1.281h.025c1.793-.021 3.34-.518 4.721-1.282v1.894c0 .872.35 1.675.927 2.262H22.596zm18.915-6.139a10.054 10.054 0 01-6.41 3.205v-2.663a26.616 26.616 0 001.98-1.801c.534-.53 1.073-1.19 1.58-1.944l3.597-.416c.533-.061.934-.512.934-1.047v-3.71c.33-.054.643-.162.93-.314l.074 1.042c.06.82.023 1.627-.106 2.413a1.05 1.05 0 00-.03.173 10.071 10.071 0 01-2.549 5.063zm28.514-8.952a2.933 2.933 0 01-2.93 2.93H59.07c-.233 0-.46.076-.643.218l-8.748 6.72 1.395-5.63a1.055 1.055 0 00-1.024-1.308h-3.745c.04-.586.04-1.18-.003-1.778l-.926-12.795c-.048-2.113-.582-4.263-1.526-6.253h23.247a2.933 2.933 0 012.93 2.93v14.966z"/></g><defs><clipPath id="clip0"><path fill="#fff" d="M0 0h72v72H0z"/></clipPath></defs></svg>