<svg width="72" height="72" fill="none" xmlns="http://www.w3.org/2000/svg"><path d="M28.784 42.993c0-.207.191-.39.481-.39h1.718c1.095 0 1.958.515 1.958 1.909v.041c0 1.395-.896 1.925-2.04 1.925h-.822v1.793c0 .265-.324.398-.648.398-.323 0-.647-.133-.647-.398v-5.278zm1.295.739v1.75h.821c.465 0 .747-.265.747-.83v-.09c0-.565-.282-.83-.747-.83h-.821zm3.261 4.406c0-.025.008-.059.017-.092l1.543-5.061c.091-.29.465-.432.847-.432.382 0 .755.141.846.432l1.551 5.061a.431.431 0 01.017.092c0 .307-.473.53-.83.53-.207 0-.373-.066-.423-.24l-.282-1.037h-1.75l-.283 1.037c-.05.174-.216.24-.423.24-.357 0-.83-.223-.83-.53zm3.013-1.743l-.606-2.224-.606 2.224h1.212zm3.659-.207a.215.215 0 00-.033-.116l-1.718-2.846c-.016-.033-.016-.067-.016-.091 0-.308.522-.532.88-.532.206 0 .281.083.372.24l1.162 2.133 1.154-2.132c.083-.158.166-.24.373-.24.357 0 .88.223.88.53 0 .025 0 .059-.017.092l-1.71 2.846a.216.216 0 00-.032.116v2.083c0 .265-.324.398-.648.398-.323 0-.647-.133-.647-.398v-2.083zm2.678-31.361H29.31a1.055 1.055 0 000 2.11h13.38a1.055 1.055 0 100-2.11zm0 5.157H29.31a1.055 1.055 0 100 2.109h13.38a1.055 1.055 0 000-2.11z" fill="#515E78"/><path d="M69.634 58.672H67.17V21.99a3.29 3.29 0 00-3.286-3.286H51.96a1.055 1.055 0 000 2.11h11.923c.648 0 1.176.527 1.176 1.176v36.683H6.94V21.99c0-.649.527-1.177 1.176-1.177h11.935a1.055 1.055 0 100-2.11H8.116A3.29 3.29 0 004.83 21.99v36.683H2.366A2.368 2.368 0 000 61.038a6.237 6.237 0 006.23 6.23h59.54a6.237 6.237 0 006.23-6.23 2.368 2.368 0 00-2.366-2.365zM2.109 61.038c0-.141.115-.256.257-.256H27.48v2.211c0 .79.215 1.53.59 2.166H6.231a4.126 4.126 0 01-4.122-4.12zm29.647 4.121a2.168 2.168 0 01-2.166-2.166v-2.211h12.82v2.211a2.168 2.168 0 01-2.166 2.166h-8.488zm34.013 0H43.93c.374-.635.59-1.376.59-2.166v-2.211h25.115c.142 0 .257.115.257.256a4.126 4.126 0 01-4.122 4.121z" fill="#515E78"/><path d="M20.05 24.971a1.054 1.054 0 100-2.11H9.915c-.582 0-1.055.473-1.055 1.056v31.758c0 .582.473 1.055 1.055 1.055h52.172c.582 0 1.055-.473 1.055-1.055V23.917c0-.583-.473-1.055-1.055-1.055H51.96a1.055 1.055 0 000 2.11h9.07V54.62H10.97V24.971h9.082z" fill="#515E78"/><path d="M20.813 34.233a1.055 1.055 0 000 2.11h30.375a1.055 1.055 0 100-2.11h-2.391V6.686c0-.54-.261-1.053-.699-1.372a1.701 1.701 0 00-1.52-.242l-2.75.89-3.393-1.098a1.69 1.69 0 00-1.044 0l-3.392 1.097-3.392-1.097a1.686 1.686 0 00-1.044 0l-3.391 1.097-2.75-.89a1.7 1.7 0 00-2.219 1.615v27.548h-2.39zm4.5-26.98l2.337.757c.34.11.702.11 1.044 0l3.392-1.098 3.392 1.098c.341.11.702.11 1.043 0l3.392-1.098 3.393 1.097c.341.11.702.11 1.044 0l2.337-.756v26.98H25.314V7.253zm18.06 44.807a6.56 6.56 0 006.552-6.553 6.56 6.56 0 00-6.552-6.552H28.627a6.56 6.56 0 00-6.552 6.552 6.56 6.56 0 006.552 6.552h14.746zm-19.189-6.553a4.448 4.448 0 014.443-4.443h14.746a4.448 4.448 0 014.443 4.443 4.448 4.448 0 01-4.443 4.443H28.627a4.448 4.448 0 01-4.443-4.443z" fill="#515E78"/></svg>