<svg width="92" height="92" fill="none" xmlns="http://www.w3.org/2000/svg"><g clip-path="url(#clip0)" fill="#515E78"><path d="M84.09 81.895L71.91 52.491a1.468 1.468 0 10-2.712 1.123l11.01 26.583-10.043-2.91c-.66-.192-1.363.1-1.694.702l-5.044 9.16-11.815-28.524C65.248 55.995 75.58 43.973 75.58 29.58 75.58 13.27 62.31 0 46 0S16.42 13.27 16.42 29.58a29.425 29.425 0 005.851 17.644L7.91 81.895a1.468 1.468 0 001.765 1.972l11.849-3.433 5.95 10.806a1.469 1.469 0 002.643-.146l11.38-27.474a1.468 1.468 0 10-2.713-1.123L28.573 87.148l-5.044-9.16a1.468 1.468 0 00-1.694-.701l-10.044 2.91 12.606-30.432C29.799 55.543 37.484 59.16 46 59.16c.88 0 1.749-.04 2.608-.116l13.275 32.049a1.468 1.468 0 002.642.146l5.951-10.806 11.85 3.433a1.468 1.468 0 001.764-1.972zM19.355 29.581C19.355 14.889 31.308 2.936 46 2.936S72.644 14.89 72.644 29.581 60.692 56.225 46 56.225c-14.692 0-26.645-11.952-26.645-26.644z"/><path d="M62.963 24.069a1.468 1.468 0 00-1.153-.994l-9.879-1.658-4.63-8.883a1.468 1.468 0 00-2.603 0l-4.63 8.883-9.878 1.658a1.468 1.468 0 00-.804 2.476l7.017 7.148-1.476 9.907a1.468 1.468 0 002.106 1.53L46 39.672l8.966 4.466a1.468 1.468 0 002.107-1.53L55.597 32.7l7.018-7.148c.383-.39.517-.961.348-1.482zm-9.973 7.095a1.465 1.465 0 00-.405 1.244l1.169 7.845-7.1-3.536a1.47 1.47 0 00-1.308 0l-7.1 3.536 1.169-7.845a1.467 1.467 0 00-.404-1.244l-5.557-5.66 7.822-1.312a1.468 1.468 0 001.059-.77L46 16.39l3.665 7.034c.213.408.605.693 1.06.769l7.82 1.312-5.555 5.66z"/><path d="M68.239 31.061a1.467 1.467 0 00-1.648 1.263C65.229 42.602 56.377 50.353 46 50.353c-11.454 0-20.772-9.318-20.772-20.772 0-11.454 9.318-20.773 20.772-20.773 10.377 0 19.229 7.751 20.59 18.03a1.467 1.467 0 102.911-.386C67.947 14.72 57.844 5.872 46 5.872c-13.073 0-23.708 10.636-23.708 23.709S32.927 53.289 46 53.289c11.844 0 21.947-8.847 23.501-20.58a1.468 1.468 0 00-1.262-1.648z"/></g><defs><clipPath id="clip0"><path fill="#fff" d="M0 0h92v92H0z"/></clipPath></defs></svg>