<svg width="25" height="25" fill="none" xmlns="http://www.w3.org/2000/svg"><path d="M6.5 21.709l.402.202c1.68 1.014 3.559 1.487 5.439 1.487 5.908 0 10.742-4.865 10.742-10.811 0-2.838-1.141-5.608-3.155-7.635-2.015-2.027-4.7-3.176-7.587-3.176-5.908 0-10.742 4.865-10.675 10.878 0 2.027.604 3.987 1.611 5.676l.269.406-1.075 3.986L6.5 21.708z" fill="#00E676"/><path d="M21.082 3.649C18.799 1.284 15.643 0 12.42 0 5.573 0 .067 5.608.134 12.432c0 2.163.605 4.257 1.612 6.15L0 25l6.512-1.69c1.813 1.014 3.827 1.487 5.842 1.487 6.78 0 12.286-5.608 12.286-12.432 0-3.31-1.276-6.42-3.558-8.716zM12.42 22.703c-1.813 0-3.626-.473-5.17-1.42l-.403-.202-3.894 1.014 1.007-3.852-.268-.405C.739 13.04 2.148 6.689 6.983 3.716 11.815.743 18.06 2.162 21.014 7.027c2.953 4.865 1.544 11.149-3.29 14.122-1.545 1.013-3.424 1.554-5.304 1.554zm5.908-7.5l-.739-.338s-1.074-.473-1.745-.81c-.067 0-.135-.068-.202-.068-.201 0-.335.067-.47.135 0 0-.067.067-1.007 1.148a.369.369 0 01-.335.203h-.068a.508.508 0 01-.268-.135l-.336-.135c-.738-.338-1.41-.743-1.947-1.284-.134-.135-.336-.27-.47-.405-.47-.473-.94-1.014-1.275-1.622l-.068-.135c-.067-.068-.067-.135-.134-.27 0-.136 0-.27.067-.338 0 0 .269-.338.47-.54.135-.136.202-.339.336-.474.134-.202.201-.473.134-.675-.067-.338-.873-2.163-1.074-2.568-.134-.203-.268-.27-.47-.338H7.99c-.135 0-.269.068-.403.068l-.067.067c-.135.068-.269.203-.403.27-.135.136-.202.27-.336.406a3.46 3.46 0 00-.739 2.095c0 .54.135 1.08.336 1.554l.067.202a11.253 11.253 0 002.485 3.446l.268.27c.201.203.403.338.537.541 1.41 1.216 3.021 2.095 4.834 2.568.202.067.47.067.671.135h.672c.336 0 .738-.135 1.007-.27.201-.136.336-.136.47-.27l.134-.136c.134-.135.269-.203.403-.338s.269-.27.336-.405c.134-.27.201-.608.268-.946v-.473s-.067-.068-.201-.135z" fill="#fff"/></svg>